<svg xmlns="http://www.w3.org/2000/svg" viewBox="0 0 960 720">
  <rect width="960" height="720" fill="#05070f"/>
  <rect x="24" y="24" width="912" height="672" fill="#0f172a" stroke="#38bdf8" stroke-width="2"/>

  <!-- Maze board -->
  <rect x="156" y="56" width="544" height="608" fill="#0b1220" stroke="#1e3a8a" stroke-width="1.5"/>

  <!-- Tile walls -->
  <g fill="#1e3a8a">
    <rect x="156" y="56" width="544" height="32"/>
    <rect x="156" y="632" width="544" height="32"/>
    <rect x="156" y="56" width="32" height="608"/>
    <rect x="668" y="56" width="32" height="608"/>

    <rect x="220" y="120" width="128" height="32"/>
    <rect x="412" y="120" width="160" height="32"/>
    <rect x="220" y="184" width="32" height="160"/>
    <rect x="316" y="184" width="32" height="96"/>
    <rect x="412" y="184" width="32" height="160"/>
    <rect x="508" y="184" width="32" height="96"/>
    <rect x="220" y="376" width="224" height="32"/>
    <rect x="476" y="376" width="96" height="32"/>
    <rect x="252" y="472" width="32" height="128"/>
    <rect x="540" y="472" width="32" height="128"/>
    <rect x="316" y="536" width="192" height="32"/>
  </g>

  <!-- Pellets -->
  <g fill="#f8fafc">
    <circle cx="204" cy="108" r="3"/><circle cx="236" cy="108" r="3"/><circle cx="268" cy="108" r="3"/><circle cx="300" cy="108" r="3"/>
    <circle cx="332" cy="108" r="3"/><circle cx="364" cy="108" r="3"/><circle cx="396" cy="108" r="3"/><circle cx="428" cy="108" r="3"/>
    <circle cx="460" cy="108" r="3"/><circle cx="492" cy="108" r="3"/><circle cx="524" cy="108" r="3"/><circle cx="556" cy="108" r="3"/>
    <circle cx="588" cy="108" r="3"/><circle cx="620" cy="108" r="3"/><circle cx="652" cy="108" r="3"/>
    <circle cx="204" cy="620" r="3"/><circle cx="236" cy="620" r="3"/><circle cx="268" cy="620" r="3"/><circle cx="300" cy="620" r="3"/>
    <circle cx="332" cy="620" r="3"/><circle cx="364" cy="620" r="3"/><circle cx="396" cy="620" r="3"/><circle cx="428" cy="620" r="3"/>
    <circle cx="460" cy="620" r="3"/><circle cx="492" cy="620" r="3"/><circle cx="524" cy="620" r="3"/><circle cx="556" cy="620" r="3"/>
    <circle cx="588" cy="620" r="3"/><circle cx="620" cy="620" r="3"/><circle cx="652" cy="620" r="3"/>
  </g>

  <!-- Player and Ghost -->
  <g>
    <circle cx="460" cy="364" r="13" fill="#facc15"/>
    <polygon points="460,364 472,358 472,370" fill="#0b1220"/>

    <circle cx="556" cy="364" r="13" fill="#ef4444"/>
    <rect x="543" y="364" width="26" height="12" fill="#ef4444"/>
    <circle cx="551" cy="364" r="3" fill="#fff"/>
    <circle cx="561" cy="364" r="3" fill="#fff"/>
    <circle cx="551" cy="364" r="1.5" fill="#111827"/>
    <circle cx="561" cy="364" r="1.5" fill="#111827"/>
  </g>

  <text x="30" y="42" fill="#e2e8f0" font-family="monospace" font-size="26" font-weight="bold">PACMAN LITE</text>
  <text x="30" y="76" fill="#94a3b8" font-family="monospace" font-size="16">SCORE 240</text>
  <text x="30" y="100" fill="#94a3b8" font-family="monospace" font-size="16">LIVES 2</text>

  <rect x="622" y="64" width="300" height="166" fill="rgba(2,6,23,0.86)" stroke="#334155"/>
  <text x="638" y="90" fill="#94a3b8" font-family="monospace" font-size="15">P TILE: 9,9</text>
  <text x="638" y="118" fill="#94a3b8" font-family="monospace" font-size="15">G TILE: 12,9</text>
  <text x="638" y="146" fill="#94a3b8" font-family="monospace" font-size="15">QUEUE: RIGHT</text>
  <text x="638" y="174" fill="#94a3b8" font-family="monospace" font-size="15">PELLETS: 126</text>
</svg>
