<svg width="64" height="64" viewBox="0 0 64 64" xmlns="http://www.w3.org/2000/svg"><rect width="64" height="64" rx="14" fill="#070A12"/><path d="M15 39h34v6a6 6 0 0 1-6 6H21a6 6 0 0 1-6-6v-6Z" fill="#0F172A" stroke="#22D3EE" stroke-width="3"/><path d="M20 18h24a5 5 0 0 1 5 5v17H15V23a5 5 0 0 1 5-5Z" fill="#111C33" stroke="#FF8A2A" stroke-width="3"/><rect x="21" y="27" width="9" height="8" rx="2" fill="#22D3EE"/><rect x="34" y="27" width="9" height="8" rx="2" fill="#22D3EE"/><path d="M27 43c3 2 7 2 10 0" stroke="#FFD166" stroke-width="3" stroke-linecap="round"/></svg>
