<svg xmlns="http://www.w3.org/2000/svg" viewBox="0 0 24 24" fill="none" stroke="currentColor" stroke-width="1.8" stroke-linecap="round" stroke-linejoin="round">
  <path d="M13.5 3.2 L14.1 5.3 C14.6 5.5 15 5.7 15.5 6 L17.6 5.4 L19.4 8.6 L17.9 10.2 C18 10.8 18 11.2 17.9 11.8 L19.4 13.4 L17.6 16.6 L15.5 16 C15 16.3 14.6 16.5 14.1 16.7 L13.5 18.8 H10.5 L9.9 16.7 C9.4 16.5 9 16.3 8.5 16 L6.4 16.6 L4.6 13.4 L6.1 11.8 C6 11.2 6 10.8 6.1 10.2 L4.6 8.6 L6.4 5.4 L8.5 6 C9 5.7 9.4 5.5 9.9 5.3 L10.5 3.2 Z" />
  <circle cx="12" cy="11" r="3.2" />
</svg>
