<svg xmlns="http://www.w3.org/2000/svg" width="960" height="720" viewBox="0 0 960 720" role="img" aria-label="Pacman Full AI preview">
  <defs>
    <linearGradient id="bg" x1="0" y1="0" x2="0" y2="1">
      <stop offset="0%" stop-color="#020617"/>
      <stop offset="100%" stop-color="#0b1329"/>
    </linearGradient>
  </defs>
  <rect width="960" height="720" fill="url(#bg)"/>
  <rect x="168" y="56" width="624" height="608" fill="#020b1e" stroke="#1e3a8a" stroke-width="3"/>
  <g fill="#1d4ed8" stroke="#38bdf8" stroke-width="1">
    <rect x="200" y="88" width="32" height="32"/><rect x="232" y="88" width="32" height="32"/><rect x="264" y="88" width="32" height="32"/>
    <rect x="392" y="88" width="32" height="32"/><rect x="424" y="88" width="32" height="32"/><rect x="456" y="88" width="32" height="32"/>
    <rect x="584" y="88" width="32" height="32"/><rect x="616" y="88" width="32" height="32"/><rect x="648" y="88" width="32" height="32"/>
    <rect x="200" y="536" width="32" height="32"/><rect x="232" y="536" width="32" height="32"/><rect x="264" y="536" width="32" height="32"/>
    <rect x="392" y="536" width="32" height="32"/><rect x="424" y="536" width="32" height="32"/><rect x="456" y="536" width="32" height="32"/>
    <rect x="584" y="536" width="32" height="32"/><rect x="616" y="536" width="32" height="32"/><rect x="648" y="536" width="32" height="32"/>
  </g>
  <circle cx="464" cy="568" r="14" fill="#facc15"/>
  <circle cx="464" cy="568" r="5" fill="#020617"/>
  <circle cx="464" cy="312" r="14" fill="#ef4444"/>
  <circle cx="432" cy="312" r="14" fill="#f472b6"/>
  <circle cx="496" cy="312" r="14" fill="#22d3ee"/>
  <circle cx="528" cy="312" r="14" fill="#fb923c"/>
  <text x="36" y="44" fill="#f8fafc" font-family="monospace" font-size="30" font-weight="700">PAC-MAN FULL AI</text>
  <text x="36" y="78" fill="#cbd5e1" font-family="monospace" font-size="18">Scatter/Chase/Frightened + Personality Routing</text>
</svg>
