<svg width="900" height="760" viewBox="0 0 900 760" fill="none" xmlns="http://www.w3.org/2000/svg">
<rect width="900" height="760" rx="70" fill="#070A12"/>
<circle cx="706" cy="148" r="92" fill="#FF8A2A" opacity=".18"/>
<circle cx="213" cy="602" r="122" fill="#22D3EE" opacity=".12"/>
<path d="M275 284h350v282c0 52-42 94-94 94H369c-52 0-94-42-94-94V284Z" fill="#111C33" stroke="#FF8A2A" stroke-width="18"/>
<path d="M332 208h236c31 0 57 26 57 57v57H275v-57c0-31 26-57 57-57Z" fill="#0F172A" stroke="#22D3EE" stroke-width="18"/>
<rect x="344" y="358" width="90" height="76" rx="22" fill="#22D3EE"/>
<rect x="466" y="358" width="90" height="76" rx="22" fill="#22D3EE"/>
<path d="M388 511c40 30 84 30 124 0" stroke="#FFD166" stroke-width="20" stroke-linecap="round"/>
<path d="M450 177v-70" stroke="#FFD166" stroke-width="18" stroke-linecap="round"/>
<path d="M450 78l18 34 38 7-27 28 6 39-35-18-35 18 6-39-27-28 38-7 18-34Z" fill="#FFD166"/>
<path d="M268 456h-90c-34 0-62 28-62 62v40" stroke="#8B5CF6" stroke-width="22" stroke-linecap="round"/>
<path d="M632 456h90c34 0 62 28 62 62v40" stroke="#8B5CF6" stroke-width="22" stroke-linecap="round"/>
<path d="M186 568l-52 88h104l-52-88Z" fill="#FF8A2A"/>
<path d="M714 568l-52 88h104l-52-88Z" fill="#FF8A2A"/>
</svg>
