{
  "file": "Inu_No_Omawari-san__full_verses_chords.mid",
  "format": 0,
  "tracks": 1,
  "ppq": 480,
  "parsedTracks": [
    {
      "id": "MTrk",
      "length": 11923,
      "meta": [
        {
          "tick": 0,
          "type": 3,
          "data": [
            80,
            105,
            97,
            110,
            111,
            0
          ]
        },
        {
          "tick": 0,
          "type": 88,
          "data": [
            4,
            2,
            24,
            8
          ]
        },
        {
          "tick": 0,
          "type": 89,
          "data": [
            2,
            0
          ]
        },
        {
          "tick": 0,
          "type": 81,
          "data": [
            7,
            161,
            32
          ]
        },
        {
          "tick": 0,
          "type": 33,
          "data": [
            0
          ]
        },
        {
          "tick": 7680,
          "type": 89,
          "data": [
            2,
            0
          ]
        },
        {
          "tick": 76656,
          "type": 47,
          "data": []
        }
      ],
      "programs": [
        {
          "tick": 0,
          "channel": 1,
          "program": 71
        },
        {
          "tick": 0,
          "channel": 2,
          "program": 0
        },
        {
          "tick": 0,
          "channel": 3,
          "program": 33
        }
      ],
      "notesCount": 1459,
      "notes": [
        {
          "channel": 1,
          "note": 78,
          "startTick": 0,
          "durationTicks": 113,
          "velocity": 80
        },
        {
          "channel": 1,
          "note": 86,
          "startTick": 0,
          "durationTicks": 113,
          "velocity": 80
        },
        {
          "channel": 10,
          "note": 42,
          "startTick": 0,
          "durationTicks": 192,
          "velocity": 52
        },
        {
          "channel": 10,
          "note": 36,
          "startTick": 0,
          "durationTicks": 216,
          "velocity": 95
        },
        {
          "channel": 1,
          "note": 85,
          "startTick": 120,
          "durationTicks": 113,
          "velocity": 80
        },
        {
          "channel": 3,
          "note": 38,
          "startTick": 0,
          "durationTicks": 336,
          "velocity": 70
        },
        {
          "channel": 1,
          "note": 86,
          "startTick": 240,
          "durationTicks": 113,
          "velocity": 80
        },
        {
          "channel": 2,
          "note": 50,
          "startTick": 0,
          "durationTicks": 432,
          "velocity": 60
        },
        {
          "channel": 2,
          "note": 54,
          "startTick": 0,
          "durationTicks": 432,
          "velocity": 60
        },
        {
          "channel": 2,
          "note": 57,
          "startTick": 0,
          "durationTicks": 432,
          "velocity": 60
        },
        {
          "channel": 1,
          "note": 85,
          "startTick": 360,
          "durationTicks": 113,
          "velocity": 80
        },
        {
          "channel": 10,
          "note": 42,
          "startTick": 480,
          "durationTicks": 192,
          "velocity": 52
        },
        {
          "channel": 1,
          "note": 38,
          "startTick": 0,
          "durationTicks": 683,
          "velocity": 80
        },
        {
          "channel": 1,
          "note": 50,
          "startTick": 0,
          "durationTicks": 683,
          "velocity": 80
        },
        {
          "channel": 10,
          "note": 38,
          "startTick": 480,
          "durationTicks": 216,
          "velocity": 90
        },
        {
          "channel": 1,
          "note": 86,
          "startTick": 480,
          "durationTicks": 227,
          "velocity": 80
        },
        {
          "channel": 3,
          "note": 38,
          "startTick": 480,
          "durationTicks": 336,
          "velocity": 70
        },
        {
          "channel": 1,
          "note": 74,
          "startTick": 720,
          "durationTicks": 227,
          "velocity": 80
        },
        {
          "channel": 1,
          "note": 45,
          "startTick": 720,
          "durationTicks": 227,
          "velocity": 80
        },
        {
          "channel": 1,
          "note": 78,
          "startTick": 960,
          "durationTicks": 113,
          "velocity": 80
        },
        {
          "channel": 1,
          "note": 81,
          "startTick": 960,
          "durationTicks": 113,
          "velocity": 80
        },
        {
          "channel": 10,
          "note": 42,
          "startTick": 960,
          "durationTicks": 192,
          "velocity": 52
        },
        {
          "channel": 10,
          "note": 36,
          "startTick": 960,
          "durationTicks": 216,
          "velocity": 95
        },
        {
          "channel": 1,
          "note": 77,
          "startTick": 1080,
          "durationTicks": 113,
          "velocity": 80
        },
        {
          "channel": 3,
          "note": 38,
          "startTick": 960,
          "durationTicks": 336,
          "velocity": 70
        },
        {
          "channel": 1,
          "note": 78,
          "startTick": 1200,
          "durationTicks": 113,
          "velocity": 80
        },
        {
          "channel": 2,
          "note": 50,
          "startTick": 960,
          "durationTicks": 432,
          "velocity": 60
        },
        {
          "channel": 2,
          "note": 54,
          "startTick": 960,
          "durationTicks": 432,
          "velocity": 60
        },
        {
          "channel": 2,
          "note": 57,
          "startTick": 960,
          "durationTicks": 432,
          "velocity": 60
        },
        {
          "channel": 1,
          "note": 77,
          "startTick": 1320,
          "durationTicks": 113,
          "velocity": 80
        },
        {
          "channel": 10,
          "note": 42,
          "startTick": 1440,
          "durationTicks": 192,
          "velocity": 52
        },
        {
          "channel": 10,
          "note": 38,
          "startTick": 1440,
          "durationTicks": 216,
          "velocity": 90
        },
        {
          "channel": 1,
          "note": 78,
          "startTick": 1440,
          "durationTicks": 227,
          "velocity": 80
        },
        {
          "channel": 3,
          "note": 38,
          "startTick": 1440,
          "durationTicks": 336,
          "velocity": 70
        },
        {
          "channel": 1,
          "note": 38,
          "startTick": 960,
          "durationTicks": 911,
          "velocity": 80
        },
        {
          "channel": 1,
          "note": 50,
          "startTick": 960,
          "durationTicks": 911,
          "velocity": 80
        },
        {
          "channel": 1,
          "note": 74,
          "startTick": 1680,
          "durationTicks": 227,
          "velocity": 80
        },
        {
          "channel": 10,
          "note": 42,
          "startTick": 1920,
          "durationTicks": 192,
          "velocity": 52
        },
        {
          "channel": 10,
          "note": 36,
          "startTick": 1920,
          "durationTicks": 216,
          "velocity": 95
        },
        {
          "channel": 1,
          "note": 81,
          "startTick": 1920,
          "durationTicks": 227,
          "velocity": 80
        },
        {
          "channel": 1,
          "note": 45,
          "startTick": 1920,
          "durationTicks": 227,
          "velocity": 80
        },
        {
          "channel": 1,
          "note": 52,
          "startTick": 1920,
          "durationTicks": 227,
          "velocity": 80
        },
        {
          "channel": 1,
          "note": 55,
          "startTick": 1920,
          "durationTicks": 227,
          "velocity": 80
        },
        {
          "channel": 3,
          "note": 45,
          "startTick": 1920,
          "durationTicks": 336,
          "velocity": 70
        },
        {
          "channel": 2,
          "note": 57,
          "startTick": 1920,
          "durationTicks": 432,
          "velocity": 60
        },
        {
          "channel": 2,
          "note": 61,
          "startTick": 1920,
          "durationTicks": 432,
          "velocity": 60
        },
        {
          "channel": 2,
          "note": 64,
          "startTick": 1920,
          "durationTicks": 432,
          "velocity": 60
        },
        {
          "channel": 1,
          "note": 79,
          "startTick": 2160,
          "durationTicks": 227,
          "velocity": 80
        },
        {
          "channel": 1,
          "note": 45,
          "startTick": 2160,
          "durationTicks": 227,
          "velocity": 80
        },
        {
          "channel": 1,
          "note": 52,
          "startTick": 2160,
          "durationTicks": 227,
          "velocity": 80
        },
        {
          "channel": 1,
          "note": 55,
          "startTick": 2160,
          "durationTicks": 227,
          "velocity": 80
        },
        {
          "channel": 10,
          "note": 42,
          "startTick": 2400,
          "durationTicks": 192,
          "velocity": 52
        },
        {
          "channel": 10,
          "note": 38,
          "startTick": 2400,
          "durationTicks": 216,
          "velocity": 90
        },
        {
          "channel": 1,
          "note": 78,
          "startTick": 2400,
          "durationTicks": 227,
          "velocity": 80
        },
        {
          "channel": 1,
          "note": 45,
          "startTick": 2400,
          "durationTicks": 227,
          "velocity": 80
        },
        {
          "channel": 1,
          "note": 52,
          "startTick": 2400,
          "durationTicks": 227,
          "velocity": 80
        },
        {
          "channel": 1,
          "note": 55,
          "startTick": 2400,
          "durationTicks": 227,
          "velocity": 80
        },
        {
          "channel": 3,
          "note": 45,
          "startTick": 2400,
          "durationTicks": 336,
          "velocity": 70
        },
        {
          "channel": 1,
          "note": 76,
          "startTick": 2640,
          "durationTicks": 227,
          "velocity": 80
        },
        {
          "channel": 1,
          "note": 45,
          "startTick": 2640,
          "durationTicks": 227,
          "velocity": 80
        },
        {
          "channel": 1,
          "note": 52,
          "startTick": 2640,
          "durationTicks": 227,
          "velocity": 80
        },
        {
          "channel": 1,
          "note": 55,
          "startTick": 2640,
          "durationTicks": 227,
          "velocity": 80
        },
        {
          "channel": 10,
          "note": 42,
          "startTick": 2880,
          "durationTicks": 192,
          "velocity": 52
        },
        {
          "channel": 10,
          "note": 36,
          "startTick": 2880,
          "durationTicks": 216,
          "velocity": 95
        },
        {
          "channel": 1,
          "note": 74,
          "startTick": 2880,
          "durationTicks": 227,
          "velocity": 80
        },
        {
          "channel": 1,
          "note": 45,
          "startTick": 2880,
          "durationTicks": 227,
          "velocity": 80
        },
        {
          "channel": 1,
          "note": 52,
          "startTick": 2880,
          "durationTicks": 227,
          "velocity": 80
        },
        {
          "channel": 1,
          "note": 55,
          "startTick": 2880,
          "durationTicks": 227,
          "velocity": 80
        },
        {
          "channel": 3,
          "note": 45,
          "startTick": 2880,
          "durationTicks": 336,
          "velocity": 70
        },
        {
          "channel": 2,
          "note": 57,
          "startTick": 2880,
          "durationTicks": 432,
          "velocity": 60
        },
        {
          "channel": 2,
          "note": 61,
          "startTick": 2880,
          "durationTicks": 432,
          "velocity": 60
        },
        {
          "channel": 2,
          "note": 64,
          "startTick": 2880,
          "durationTicks": 432,
          "velocity": 60
        },
        {
          "channel": 1,
          "note": 73,
          "startTick": 3120,
          "durationTicks": 227,
          "velocity": 80
        },
        {
          "channel": 1,
          "note": 45,
          "startTick": 3120,
          "durationTicks": 227,
          "velocity": 80
        },
        {
          "channel": 10,
          "note": 42,
          "startTick": 3360,
          "durationTicks": 192,
          "velocity": 52
        },
        {
          "channel": 10,
          "note": 38,
          "startTick": 3360,
          "durationTicks": 216,
          "velocity": 90
        },
        {
          "channel": 1,
          "note": 71,
          "startTick": 3360,
          "durationTicks": 227,
          "velocity": 80
        },
        {
          "channel": 1,
          "note": 47,
          "startTick": 3360,
          "durationTicks": 227,
          "velocity": 80
        },
        {
          "channel": 3,
          "note": 45,
          "startTick": 3360,
          "durationTicks": 336,
          "velocity": 70
        },
        {
          "channel": 1,
          "note": 69,
          "startTick": 3600,
          "durationTicks": 227,
          "velocity": 80
        },
        {
          "channel": 1,
          "note": 49,
          "startTick": 3600,
          "durationTicks": 227,
          "velocity": 80
        },
        {
          "channel": 10,
          "note": 42,
          "startTick": 3840,
          "durationTicks": 192,
          "velocity": 52
        },
        {
          "channel": 10,
          "note": 36,
          "startTick": 3840,
          "durationTicks": 216,
          "velocity": 95
        },
        {
          "channel": 1,
          "note": 66,
          "startTick": 3840,
          "durationTicks": 227,
          "velocity": 80
        },
        {
          "channel": 1,
          "note": 38,
          "startTick": 3840,
          "durationTicks": 227,
          "velocity": 80
        },
        {
          "channel": 3,
          "note": 38,
          "startTick": 3840,
          "durationTicks": 336,
          "velocity": 70
        },
        {
          "channel": 2,
          "note": 50,
          "startTick": 3840,
          "durationTicks": 432,
          "velocity": 60
        },
        {
          "channel": 2,
          "note": 54,
          "startTick": 3840,
          "durationTicks": 432,
          "velocity": 60
        },
        {
          "channel": 2,
          "note": 57,
          "startTick": 3840,
          "durationTicks": 432,
          "velocity": 60
        },
        {
          "channel": 1,
          "note": 62,
          "startTick": 4080,
          "durationTicks": 227,
          "velocity": 80
        },
        {
          "channel": 1,
          "note": 50,
          "startTick": 4080,
          "durationTicks": 227,
          "velocity": 80
        },
        {
          "channel": 10,
          "note": 42,
          "startTick": 4320,
          "durationTicks": 192,
          "velocity": 52
        },
        {
          "channel": 10,
          "note": 38,
          "startTick": 4320,
          "durationTicks": 216,
          "velocity": 90
        },
        {
          "channel": 1,
          "note": 62,
          "startTick": 4320,
          "durationTicks": 227,
          "velocity": 80
        },
        {
          "channel": 1,
          "note": 45,
          "startTick": 4320,
          "durationTicks": 227,
          "velocity": 80
        },
        {
          "channel": 3,
          "note": 38,
          "startTick": 4320,
          "durationTicks": 336,
          "velocity": 70
        },
        {
          "channel": 1,
          "note": 62,
          "startTick": 4560,
          "durationTicks": 227,
          "velocity": 80
        },
        {
          "channel": 1,
          "note": 50,
          "startTick": 4560,
          "durationTicks": 227,
          "velocity": 80
        },
        {
          "channel": 10,
          "note": 42,
          "startTick": 4800,
          "durationTicks": 192,
          "velocity": 52
        },
        {
          "channel": 10,
          "note": 36,
          "startTick": 4800,
          "durationTicks": 216,
          "velocity": 95
        },
        {
          "channel": 1,
          "note": 66,
          "startTick": 4800,
          "durationTicks": 227,
          "velocity": 80
        },
        {
          "channel": 1,
          "note": 38,
          "startTick": 4800,
          "durationTicks": 227,
          "velocity": 80
        },
        {
          "channel": 3,
          "note": 38,
          "startTick": 4800,
          "durationTicks": 336,
          "velocity": 70
        },
        {
          "channel": 2,
          "note": 50,
          "startTick": 4800,
          "durationTicks": 432,
          "velocity": 60
        },
        {
          "channel": 2,
          "note": 54,
          "startTick": 4800,
          "durationTicks": 432,
          "velocity": 60
        },
        {
          "channel": 2,
          "note": 57,
          "startTick": 4800,
          "durationTicks": 432,
          "velocity": 60
        },
        {
          "channel": 1,
          "note": 62,
          "startTick": 5040,
          "durationTicks": 227,
          "velocity": 80
        },
        {
          "channel": 1,
          "note": 50,
          "startTick": 5040,
          "durationTicks": 227,
          "velocity": 80
        },
        {
          "channel": 10,
          "note": 42,
          "startTick": 5280,
          "durationTicks": 192,
          "velocity": 52
        },
        {
          "channel": 10,
          "note": 38,
          "startTick": 5280,
          "durationTicks": 216,
          "velocity": 90
        },
        {
          "channel": 1,
          "note": 62,
          "startTick": 5280,
          "durationTicks": 227,
          "velocity": 80
        },
        {
          "channel": 1,
          "note": 45,
          "startTick": 5280,
          "durationTicks": 227,
          "velocity": 80
        },
        {
          "channel": 3,
          "note": 38,
          "startTick": 5280,
          "durationTicks": 336,
          "velocity": 70
        },
        {
          "channel": 1,
          "note": 62,
          "startTick": 5520,
          "durationTicks": 227,
          "velocity": 80
        },
        {
          "channel": 1,
          "note": 50,
          "startTick": 5520,
          "durationTicks": 227,
          "velocity": 80
        },
        {
          "channel": 10,
          "note": 42,
          "startTick": 5760,
          "durationTicks": 192,
          "velocity": 52
        },
        {
          "channel": 10,
          "note": 36,
          "startTick": 5760,
          "durationTicks": 216,
          "velocity": 95
        },
        {
          "channel": 1,
          "note": 59,
          "startTick": 5760,
          "durationTicks": 227,
          "velocity": 80
        },
        {
          "channel": 1,
          "note": 64,
          "startTick": 5760,
          "durationTicks": 227,
          "velocity": 80
        },
        {
          "channel": 1,
          "note": 67,
          "startTick": 5760,
          "durationTicks": 227,
          "velocity": 80
        },
        {
          "channel": 1,
          "note": 40,
          "startTick": 5760,
          "durationTicks": 227,
          "velocity": 80
        },
        {
          "channel": 3,
          "note": 40,
          "startTick": 5760,
          "durationTicks": 336,
          "velocity": 70
        },
        {
          "channel": 2,
          "note": 52,
          "startTick": 5760,
          "durationTicks": 432,
          "velocity": 60
        },
        {
          "channel": 2,
          "note": 55,
          "startTick": 5760,
          "durationTicks": 432,
          "velocity": 60
        },
        {
          "channel": 2,
          "note": 59,
          "startTick": 5760,
          "durationTicks": 432,
          "velocity": 60
        },
        {
          "channel": 1,
          "note": 59,
          "startTick": 6000,
          "durationTicks": 227,
          "velocity": 80
        },
        {
          "channel": 1,
          "note": 64,
          "startTick": 6000,
          "durationTicks": 227,
          "velocity": 80
        },
        {
          "channel": 1,
          "note": 67,
          "startTick": 6000,
          "durationTicks": 227,
          "velocity": 80
        },
        {
          "channel": 1,
          "note": 52,
          "startTick": 6000,
          "durationTicks": 227,
          "velocity": 80
        },
        {
          "channel": 10,
          "note": 42,
          "startTick": 6240,
          "durationTicks": 192,
          "velocity": 52
        },
        {
          "channel": 10,
          "note": 38,
          "startTick": 6240,
          "durationTicks": 216,
          "velocity": 90
        },
        {
          "channel": 1,
          "note": 59,
          "startTick": 6240,
          "durationTicks": 227,
          "velocity": 80
        },
        {
          "channel": 1,
          "note": 66,
          "startTick": 6240,
          "durationTicks": 227,
          "velocity": 80
        },
        {
          "channel": 1,
          "note": 47,
          "startTick": 6240,
          "durationTicks": 227,
          "velocity": 80
        },
        {
          "channel": 3,
          "note": 40,
          "startTick": 6240,
          "durationTicks": 336,
          "velocity": 70
        },
        {
          "channel": 1,
          "note": 59,
          "startTick": 6480,
          "durationTicks": 227,
          "velocity": 80
        },
        {
          "channel": 1,
          "note": 66,
          "startTick": 6480,
          "durationTicks": 227,
          "velocity": 80
        },
        {
          "channel": 1,
          "note": 52,
          "startTick": 6480,
          "durationTicks": 227,
          "velocity": 80
        },
        {
          "channel": 10,
          "note": 42,
          "startTick": 6720,
          "durationTicks": 192,
          "velocity": 52
        },
        {
          "channel": 10,
          "note": 36,
          "startTick": 6720,
          "durationTicks": 216,
          "velocity": 95
        },
        {
          "channel": 1,
          "note": 40,
          "startTick": 6720,
          "durationTicks": 227,
          "velocity": 80
        },
        {
          "channel": 3,
          "note": 40,
          "startTick": 6720,
          "durationTicks": 336,
          "velocity": 70
        },
        {
          "channel": 2,
          "note": 52,
          "startTick": 6720,
          "durationTicks": 432,
          "velocity": 60
        },
        {
          "channel": 2,
          "note": 55,
          "startTick": 6720,
          "durationTicks": 432,
          "velocity": 60
        },
        {
          "channel": 2,
          "note": 59,
          "startTick": 6720,
          "durationTicks": 432,
          "velocity": 60
        },
        {
          "channel": 1,
          "note": 52,
          "startTick": 6960,
          "durationTicks": 227,
          "velocity": 80
        },
        {
          "channel": 10,
          "note": 42,
          "startTick": 7200,
          "durationTicks": 192,
          "velocity": 52
        },
        {
          "channel": 10,
          "note": 38,
          "startTick": 7200,
          "durationTicks": 216,
          "velocity": 90
        },
        {
          "channel": 1,
          "note": 47,
          "startTick": 7200,
          "durationTicks": 227,
          "velocity": 80
        },
        {
          "channel": 3,
          "note": 40,
          "startTick": 7200,
          "durationTicks": 336,
          "velocity": 70
        },
        {
          "channel": 1,
          "note": 59,
          "startTick": 6720,
          "durationTicks": 911,
          "velocity": 80
        },
        {
          "channel": 1,
          "note": 64,
          "startTick": 6720,
          "durationTicks": 911,
          "velocity": 80
        },
        {
          "channel": 1,
          "note": 52,
          "startTick": 7440,
          "durationTicks": 227,
          "velocity": 80
        },
        {
          "channel": 10,
          "note": 42,
          "startTick": 7680,
          "durationTicks": 192,
          "velocity": 52
        },
        {
          "channel": 10,
          "note": 36,
          "startTick": 7680,
          "durationTicks": 216,
          "velocity": 95
        },
        {
          "channel": 1,
          "note": 57,
          "startTick": 7680,
          "durationTicks": 227,
          "velocity": 80
        },
        {
          "channel": 1,
          "note": 61,
          "startTick": 7680,
          "durationTicks": 227,
          "velocity": 80
        },
        {
          "channel": 1,
          "note": 67,
          "startTick": 7680,
          "durationTicks": 227,
          "velocity": 80
        },
        {
          "channel": 1,
          "note": 45,
          "startTick": 7680,
          "durationTicks": 227,
          "velocity": 80
        },
        {
          "channel": 3,
          "note": 37,
          "startTick": 7680,
          "durationTicks": 336,
          "velocity": 70
        },
        {
          "channel": 2,
          "note": 49,
          "startTick": 7680,
          "durationTicks": 432,
          "velocity": 60
        },
        {
          "channel": 2,
          "note": 52,
          "startTick": 7680,
          "durationTicks": 432,
          "velocity": 60
        },
        {
          "channel": 2,
          "note": 56,
          "startTick": 7680,
          "durationTicks": 432,
          "velocity": 60
        },
        {
          "channel": 1,
          "note": 57,
          "startTick": 7920,
          "durationTicks": 227,
          "velocity": 80
        },
        {
          "channel": 1,
          "note": 61,
          "startTick": 7920,
          "durationTicks": 227,
          "velocity": 80
        },
        {
          "channel": 1,
          "note": 67,
          "startTick": 7920,
          "durationTicks": 227,
          "velocity": 80
        },
        {
          "channel": 1,
          "note": 52,
          "startTick": 7920,
          "durationTicks": 227,
          "velocity": 80
        },
        {
          "channel": 10,
          "note": 42,
          "startTick": 8160,
          "durationTicks": 192,
          "velocity": 52
        },
        {
          "channel": 10,
          "note": 38,
          "startTick": 8160,
          "durationTicks": 216,
          "velocity": 90
        },
        {
          "channel": 1,
          "note": 61,
          "startTick": 8160,
          "durationTicks": 227,
          "velocity": 80
        },
        {
          "channel": 1,
          "note": 66,
          "startTick": 8160,
          "durationTicks": 227,
          "velocity": 80
        },
        {
          "channel": 1,
          "note": 49,
          "startTick": 8160,
          "durationTicks": 227,
          "velocity": 80
        },
        {
          "channel": 3,
          "note": 37,
          "startTick": 8160,
          "durationTicks": 336,
          "velocity": 70
        },
        {
          "channel": 1,
          "note": 61,
          "startTick": 8400,
          "durationTicks": 227,
          "velocity": 80
        },
        {
          "channel": 1,
          "note": 66,
          "startTick": 8400,
          "durationTicks": 227,
          "velocity": 80
        },
        {
          "channel": 1,
          "note": 52,
          "startTick": 8400,
          "durationTicks": 227,
          "velocity": 80
        },
        {
          "channel": 10,
          "note": 42,
          "startTick": 8640,
          "durationTicks": 192,
          "velocity": 52
        },
        {
          "channel": 10,
          "note": 36,
          "startTick": 8640,
          "durationTicks": 216,
          "velocity": 95
        },
        {
          "channel": 1,
          "note": 61,
          "startTick": 8640,
          "durationTicks": 227,
          "velocity": 80
        },
        {
          "channel": 1,
          "note": 64,
          "startTick": 8640,
          "durationTicks": 227,
          "velocity": 80
        },
        {
          "channel": 1,
          "note": 45,
          "startTick": 8640,
          "durationTicks": 227,
          "velocity": 80
        },
        {
          "channel": 3,
          "note": 37,
          "startTick": 8640,
          "durationTicks": 336,
          "velocity": 70
        },
        {
          "channel": 2,
          "note": 49,
          "startTick": 8640,
          "durationTicks": 432,
          "velocity": 60
        },
        {
          "channel": 2,
          "note": 52,
          "startTick": 8640,
          "durationTicks": 432,
          "velocity": 60
        },
        {
          "channel": 2,
          "note": 56,
          "startTick": 8640,
          "durationTicks": 432,
          "velocity": 60
        },
        {
          "channel": 1,
          "note": 61,
          "startTick": 8880,
          "durationTicks": 227,
          "velocity": 80
        },
        {
          "channel": 1,
          "note": 64,
          "startTick": 8880,
          "durationTicks": 227,
          "velocity": 80
        },
        {
          "channel": 1,
          "note": 52,
          "startTick": 8880,
          "durationTicks": 227,
          "velocity": 80
        },
        {
          "channel": 10,
          "note": 42,
          "startTick": 9120,
          "durationTicks": 192,
          "velocity": 52
        },
        {
          "channel": 10,
          "note": 38,
          "startTick": 9120,
          "durationTicks": 216,
          "velocity": 90
        },
        {
          "channel": 1,
          "note": 61,
          "startTick": 9120,
          "durationTicks": 227,
          "velocity": 80
        },
        {
          "channel": 1,
          "note": 71,
          "startTick": 9120,
          "durationTicks": 227,
          "velocity": 80
        },
        {
          "channel": 1,
          "note": 49,
          "startTick": 9120,
          "durationTicks": 227,
          "velocity": 80
        },
        {
          "channel": 3,
          "note": 37,
          "startTick": 9120,
          "durationTicks": 336,
          "velocity": 70
        },
        {
          "channel": 1,
          "note": 61,
          "startTick": 9360,
          "durationTicks": 227,
          "velocity": 80
        },
        {
          "channel": 1,
          "note": 71,
          "startTick": 9360,
          "durationTicks": 227,
          "velocity": 80
        },
        {
          "channel": 1,
          "note": 52,
          "startTick": 9360,
          "durationTicks": 227,
          "velocity": 80
        },
        {
          "channel": 10,
          "note": 42,
          "startTick": 9600,
          "durationTicks": 192,
          "velocity": 52
        },
        {
          "channel": 10,
          "note": 36,
          "startTick": 9600,
          "durationTicks": 216,
          "velocity": 95
        },
        {
          "channel": 1,
          "note": 69,
          "startTick": 9600,
          "durationTicks": 227,
          "velocity": 80
        },
        {
          "channel": 1,
          "note": 38,
          "startTick": 9600,
          "durationTicks": 227,
          "velocity": 80
        },
        {
          "channel": 3,
          "note": 38,
          "startTick": 9600,
          "durationTicks": 336,
          "velocity": 70
        },
        {
          "channel": 2,
          "note": 50,
          "startTick": 9600,
          "durationTicks": 432,
          "velocity": 60
        },
        {
          "channel": 2,
          "note": 54,
          "startTick": 9600,
          "durationTicks": 432,
          "velocity": 60
        },
        {
          "channel": 2,
          "note": 57,
          "startTick": 9600,
          "durationTicks": 432,
          "velocity": 60
        },
        {
          "channel": 1,
          "note": 67,
          "startTick": 9840,
          "durationTicks": 227,
          "velocity": 80
        },
        {
          "channel": 1,
          "note": 50,
          "startTick": 9840,
          "durationTicks": 227,
          "velocity": 80
        },
        {
          "channel": 10,
          "note": 42,
          "startTick": 10080,
          "durationTicks": 192,
          "velocity": 52
        },
        {
          "channel": 10,
          "note": 38,
          "startTick": 10080,
          "durationTicks": 216,
          "velocity": 90
        },
        {
          "channel": 1,
          "note": 66,
          "startTick": 10080,
          "durationTicks": 227,
          "velocity": 80
        },
        {
          "channel": 1,
          "note": 45,
          "startTick": 10080,
          "durationTicks": 227,
          "velocity": 80
        },
        {
          "channel": 3,
          "note": 38,
          "startTick": 10080,
          "durationTicks": 336,
          "velocity": 70
        },
        {
          "channel": 1,
          "note": 64,
          "startTick": 10320,
          "durationTicks": 227,
          "velocity": 80
        },
        {
          "channel": 1,
          "note": 50,
          "startTick": 10320,
          "durationTicks": 227,
          "velocity": 80
        },
        {
          "channel": 10,
          "note": 42,
          "startTick": 10560,
          "durationTicks": 192,
          "velocity": 52
        },
        {
          "channel": 10,
          "note": 36,
          "startTick": 10560,
          "durationTicks": 216,
          "velocity": 95
        },
        {
          "channel": 1,
          "note": 38,
          "startTick": 10560,
          "durationTicks": 227,
          "velocity": 80
        },
        {
          "channel": 3,
          "note": 38,
          "startTick": 10560,
          "durationTicks": 336,
          "velocity": 70
        },
        {
          "channel": 2,
          "note": 50,
          "startTick": 10560,
          "durationTicks": 432,
          "velocity": 60
        },
        {
          "channel": 2,
          "note": 54,
          "startTick": 10560,
          "durationTicks": 432,
          "velocity": 60
        },
        {
          "channel": 2,
          "note": 57,
          "startTick": 10560,
          "durationTicks": 432,
          "velocity": 60
        },
        {
          "channel": 1,
          "note": 62,
          "startTick": 10560,
          "durationTicks": 455,
          "velocity": 80
        },
        {
          "channel": 1,
          "note": 50,
          "startTick": 10800,
          "durationTicks": 227,
          "velocity": 80
        },
        {
          "channel": 10,
          "note": 42,
          "startTick": 11040,
          "durationTicks": 192,
          "velocity": 52
        },
        {
          "channel": 10,
          "note": 38,
          "startTick": 11040,
          "durationTicks": 216,
          "velocity": 90
        },
        {
          "channel": 1,
          "note": 62,
          "startTick": 11040,
          "durationTicks": 227,
          "velocity": 80
        },
        {
          "channel": 1,
          "note": 45,
          "startTick": 11040,
          "durationTicks": 227,
          "velocity": 80
        },
        {
          "channel": 3,
          "note": 38,
          "startTick": 11040,
          "durationTicks": 336,
          "velocity": 70
        },
        {
          "channel": 1,
          "note": 64,
          "startTick": 11280,
          "durationTicks": 227,
          "velocity": 80
        },
        {
          "channel": 1,
          "note": 50,
          "startTick": 11280,
          "durationTicks": 227,
          "velocity": 80
        },
        {
          "channel": 10,
          "note": 42,
          "startTick": 11520,
          "durationTicks": 192,
          "velocity": 52
        },
        {
          "channel": 10,
          "note": 36,
          "startTick": 11520,
          "durationTicks": 216,
          "velocity": 95
        },
        {
          "channel": 1,
          "note": 38,
          "startTick": 11520,
          "durationTicks": 227,
          "velocity": 80
        },
        {
          "channel": 3,
          "note": 38,
          "startTick": 11520,
          "durationTicks": 336,
          "velocity": 70
        },
        {
          "channel": 2,
          "note": 50,
          "startTick": 11520,
          "durationTicks": 432,
          "velocity": 60
        },
        {
          "channel": 2,
          "note": 54,
          "startTick": 11520,
          "durationTicks": 432,
          "velocity": 60
        },
        {
          "channel": 2,
          "note": 57,
          "startTick": 11520,
          "durationTicks": 432,
          "velocity": 60
        },
        {
          "channel": 1,
          "note": 50,
          "startTick": 11760,
          "durationTicks": 227,
          "velocity": 80
        },
        {
          "channel": 10,
          "note": 42,
          "startTick": 12000,
          "durationTicks": 192,
          "velocity": 52
        },
        {
          "channel": 1,
          "note": 57,
          "startTick": 11520,
          "durationTicks": 683,
          "velocity": 80
        },
        {
          "channel": 1,
          "note": 62,
          "startTick": 11520,
          "durationTicks": 683,
          "velocity": 80
        },
        {
          "channel": 1,
          "note": 66,
          "startTick": 11520,
          "durationTicks": 683,
          "velocity": 80
        },
        {
          "channel": 10,
          "note": 38,
          "startTick": 12000,
          "durationTicks": 216,
          "velocity": 90
        },
        {
          "channel": 1,
          "note": 45,
          "startTick": 12000,
          "durationTicks": 227,
          "velocity": 80
        },
        {
          "channel": 3,
          "note": 38,
          "startTick": 12000,
          "durationTicks": 336,
          "velocity": 70
        },
        {
          "channel": 1,
          "note": 57,
          "startTick": 12240,
          "durationTicks": 227,
          "velocity": 80
        },
        {
          "channel": 1,
          "note": 66,
          "startTick": 12240,
          "durationTicks": 227,
          "velocity": 80
        },
        {
          "channel": 1,
          "note": 50,
          "startTick": 12240,
          "durationTicks": 227,
          "velocity": 80
        },
        {
          "channel": 10,
          "note": 42,
          "startTick": 12480,
          "durationTicks": 192,
          "velocity": 52
        },
        {
          "channel": 10,
          "note": 36,
          "startTick": 12480,
          "durationTicks": 216,
          "velocity": 95
        },
        {
          "channel": 1,
          "note": 38,
          "startTick": 12480,
          "durationTicks": 227,
          "velocity": 80
        },
        {
          "channel": 3,
          "note": 38,
          "startTick": 12480,
          "durationTicks": 336,
          "velocity": 70
        },
        {
          "channel": 2,
          "note": 50,
          "startTick": 12480,
          "durationTicks": 432,
          "velocity": 60
        },
        {
          "channel": 2,
          "note": 54,
          "startTick": 12480,
          "durationTicks": 432,
          "velocity": 60
        },
        {
          "channel": 2,
          "note": 57,
          "startTick": 12480,
          "durationTicks": 432,
          "velocity": 60
        },
        {
          "channel": 1,
          "note": 57,
          "startTick": 12480,
          "durationTicks": 455,
          "velocity": 80
        },
        {
          "channel": 1,
          "note": 66,
          "startTick": 12480,
          "durationTicks": 455,
          "velocity": 80
        },
        {
          "channel": 1,
          "note": 50,
          "startTick": 12720,
          "durationTicks": 227,
          "velocity": 80
        },
        {
          "channel": 10,
          "note": 42,
          "startTick": 12960,
          "durationTicks": 192,
          "velocity": 52
        },
        {
          "channel": 10,
          "note": 38,
          "startTick": 12960,
          "durationTicks": 216,
          "velocity": 90
        },
        {
          "channel": 1,
          "note": 57,
          "startTick": 12960,
          "durationTicks": 227,
          "velocity": 80
        },
        {
          "channel": 1,
          "note": 66,
          "startTick": 12960,
          "durationTicks": 227,
          "velocity": 80
        },
        {
          "channel": 1,
          "note": 45,
          "startTick": 12960,
          "durationTicks": 227,
          "velocity": 80
        },
        {
          "channel": 3,
          "note": 38,
          "startTick": 12960,
          "durationTicks": 336,
          "velocity": 70
        },
        {
          "channel": 1,
          "note": 62,
          "startTick": 13200,
          "durationTicks": 227,
          "velocity": 80
        },
        {
          "channel": 1,
          "note": 50,
          "startTick": 13200,
          "durationTicks": 227,
          "velocity": 80
        },
        {
          "channel": 10,
          "note": 42,
          "startTick": 13440,
          "durationTicks": 192,
          "velocity": 52
        },
        {
          "channel": 10,
          "note": 36,
          "startTick": 13440,
          "durationTicks": 216,
          "velocity": 95
        },
        {
          "channel": 1,
          "note": 59,
          "startTick": 13440,
          "durationTicks": 227,
          "velocity": 80
        },
        {
          "channel": 1,
          "note": 67,
          "startTick": 13440,
          "durationTicks": 227,
          "velocity": 80
        },
        {
          "channel": 1,
          "note": 40,
          "startTick": 13440,
          "durationTicks": 227,
          "velocity": 80
        },
        {
          "channel": 3,
          "note": 40,
          "startTick": 13440,
          "durationTicks": 336,
          "velocity": 70
        },
        {
          "channel": 2,
          "note": 52,
          "startTick": 13440,
          "durationTicks": 432,
          "velocity": 60
        },
        {
          "channel": 2,
          "note": 55,
          "startTick": 13440,
          "durationTicks": 432,
          "velocity": 60
        },
        {
          "channel": 2,
          "note": 59,
          "startTick": 13440,
          "durationTicks": 432,
          "velocity": 60
        },
        {
          "channel": 1,
          "note": 59,
          "startTick": 13680,
          "durationTicks": 227,
          "velocity": 80
        },
        {
          "channel": 1,
          "note": 67,
          "startTick": 13680,
          "durationTicks": 227,
          "velocity": 80
        },
        {
          "channel": 1,
          "note": 52,
          "startTick": 13680,
          "durationTicks": 227,
          "velocity": 80
        },
        {
          "channel": 10,
          "note": 42,
          "startTick": 13920,
          "durationTicks": 192,
          "velocity": 52
        },
        {
          "channel": 10,
          "note": 38,
          "startTick": 13920,
          "durationTicks": 216,
          "velocity": 90
        },
        {
          "channel": 1,
          "note": 59,
          "startTick": 13920,
          "durationTicks": 227,
          "velocity": 80
        },
        {
          "channel": 1,
          "note": 67,
          "startTick": 13920,
          "durationTicks": 227,
          "velocity": 80
        },
        {
          "channel": 1,
          "note": 47,
          "startTick": 13920,
          "durationTicks": 227,
          "velocity": 80
        },
        {
          "channel": 3,
          "note": 40,
          "startTick": 13920,
          "durationTicks": 336,
          "velocity": 70
        },
        {
          "channel": 1,
          "note": 57,
          "startTick": 14160,
          "durationTicks": 227,
          "velocity": 80
        },
        {
          "channel": 1,
          "note": 66,
          "startTick": 14160,
          "durationTicks": 227,
          "velocity": 80
        },
        {
          "channel": 1,
          "note": 52,
          "startTick": 14160,
          "durationTicks": 227,
          "velocity": 80
        },
        {
          "channel": 10,
          "note": 42,
          "startTick": 14400,
          "durationTicks": 192,
          "velocity": 52
        },
        {
          "channel": 10,
          "note": 36,
          "startTick": 14400,
          "durationTicks": 216,
          "velocity": 95
        },
        {
          "channel": 1,
          "note": 40,
          "startTick": 14400,
          "durationTicks": 227,
          "velocity": 80
        },
        {
          "channel": 3,
          "note": 40,
          "startTick": 14400,
          "durationTicks": 336,
          "velocity": 70
        },
        {
          "channel": 2,
          "note": 52,
          "startTick": 14400,
          "durationTicks": 432,
          "velocity": 60
        },
        {
          "channel": 2,
          "note": 55,
          "startTick": 14400,
          "durationTicks": 432,
          "velocity": 60
        },
        {
          "channel": 2,
          "note": 59,
          "startTick": 14400,
          "durationTicks": 432,
          "velocity": 60
        },
        {
          "channel": 1,
          "note": 55,
          "startTick": 14400,
          "durationTicks": 455,
          "velocity": 80
        },
        {
          "channel": 1,
          "note": 59,
          "startTick": 14400,
          "durationTicks": 455,
          "velocity": 80
        },
        {
          "channel": 1,
          "note": 64,
          "startTick": 14400,
          "durationTicks": 455,
          "velocity": 80
        },
        {
          "channel": 1,
          "note": 52,
          "startTick": 14640,
          "durationTicks": 227,
          "velocity": 80
        },
        {
          "channel": 10,
          "note": 42,
          "startTick": 14880,
          "durationTicks": 192,
          "velocity": 52
        },
        {
          "channel": 10,
          "note": 38,
          "startTick": 14880,
          "durationTicks": 216,
          "velocity": 90
        },
        {
          "channel": 1,
          "note": 64,
          "startTick": 14880,
          "durationTicks": 227,
          "velocity": 80
        },
        {
          "channel": 1,
          "note": 47,
          "startTick": 14880,
          "durationTicks": 227,
          "velocity": 80
        },
        {
          "channel": 3,
          "note": 40,
          "startTick": 14880,
          "durationTicks": 336,
          "velocity": 70
        },
        {
          "channel": 1,
          "note": 66,
          "startTick": 15120,
          "durationTicks": 227,
          "velocity": 80
        },
        {
          "channel": 1,
          "note": 52,
          "startTick": 15120,
          "durationTicks": 227,
          "velocity": 80
        },
        {
          "channel": 10,
          "note": 42,
          "startTick": 15360,
          "durationTicks": 192,
          "velocity": 52
        },
        {
          "channel": 10,
          "note": 36,
          "startTick": 15360,
          "durationTicks": 216,
          "velocity": 95
        },
        {
          "channel": 1,
          "note": 33,
          "startTick": 15360,
          "durationTicks": 227,
          "velocity": 80
        },
        {
          "channel": 3,
          "note": 45,
          "startTick": 15360,
          "durationTicks": 336,
          "velocity": 70
        },
        {
          "channel": 2,
          "note": 57,
          "startTick": 15360,
          "durationTicks": 432,
          "velocity": 60
        },
        {
          "channel": 2,
          "note": 61,
          "startTick": 15360,
          "durationTicks": 432,
          "velocity": 60
        },
        {
          "channel": 2,
          "note": 64,
          "startTick": 15360,
          "durationTicks": 432,
          "velocity": 60
        },
        {
          "channel": 1,
          "note": 45,
          "startTick": 15600,
          "durationTicks": 227,
          "velocity": 80
        },
        {
          "channel": 10,
          "note": 42,
          "startTick": 15840,
          "durationTicks": 192,
          "velocity": 52
        },
        {
          "channel": 1,
          "note": 57,
          "startTick": 15360,
          "durationTicks": 683,
          "velocity": 80
        },
        {
          "channel": 1,
          "note": 61,
          "startTick": 15360,
          "durationTicks": 683,
          "velocity": 80
        },
        {
          "channel": 1,
          "note": 67,
          "startTick": 15360,
          "durationTicks": 683,
          "velocity": 80
        },
        {
          "channel": 10,
          "note": 38,
          "startTick": 15840,
          "durationTicks": 216,
          "velocity": 90
        },
        {
          "channel": 1,
          "note": 40,
          "startTick": 15840,
          "durationTicks": 227,
          "velocity": 80
        },
        {
          "channel": 3,
          "note": 45,
          "startTick": 15840,
          "durationTicks": 336,
          "velocity": 70
        },
        {
          "channel": 1,
          "note": 57,
          "startTick": 16080,
          "durationTicks": 227,
          "velocity": 80
        },
        {
          "channel": 1,
          "note": 61,
          "startTick": 16080,
          "durationTicks": 227,
          "velocity": 80
        },
        {
          "channel": 1,
          "note": 67,
          "startTick": 16080,
          "durationTicks": 227,
          "velocity": 80
        },
        {
          "channel": 1,
          "note": 45,
          "startTick": 16080,
          "durationTicks": 227,
          "velocity": 80
        },
        {
          "channel": 10,
          "note": 42,
          "startTick": 16320,
          "durationTicks": 192,
          "velocity": 52
        },
        {
          "channel": 10,
          "note": 36,
          "startTick": 16320,
          "durationTicks": 216,
          "velocity": 95
        },
        {
          "channel": 1,
          "note": 33,
          "startTick": 16320,
          "durationTicks": 227,
          "velocity": 80
        },
        {
          "channel": 3,
          "note": 45,
          "startTick": 16320,
          "durationTicks": 336,
          "velocity": 70
        },
        {
          "channel": 2,
          "note": 57,
          "startTick": 16320,
          "durationTicks": 432,
          "velocity": 60
        },
        {
          "channel": 2,
          "note": 61,
          "startTick": 16320,
          "durationTicks": 432,
          "velocity": 60
        },
        {
          "channel": 2,
          "note": 64,
          "startTick": 16320,
          "durationTicks": 432,
          "velocity": 60
        },
        {
          "channel": 1,
          "note": 57,
          "startTick": 16320,
          "durationTicks": 455,
          "velocity": 80
        },
        {
          "channel": 1,
          "note": 61,
          "startTick": 16320,
          "durationTicks": 455,
          "velocity": 80
        },
        {
          "channel": 1,
          "note": 67,
          "startTick": 16320,
          "durationTicks": 455,
          "velocity": 80
        },
        {
          "channel": 1,
          "note": 45,
          "startTick": 16560,
          "durationTicks": 227,
          "velocity": 80
        },
        {
          "channel": 10,
          "note": 42,
          "startTick": 16800,
          "durationTicks": 192,
          "velocity": 52
        },
        {
          "channel": 10,
          "note": 38,
          "startTick": 16800,
          "durationTicks": 216,
          "velocity": 90
        },
        {
          "channel": 1,
          "note": 57,
          "startTick": 16800,
          "durationTicks": 227,
          "velocity": 80
        },
        {
          "channel": 1,
          "note": 61,
          "startTick": 16800,
          "durationTicks": 227,
          "velocity": 80
        },
        {
          "channel": 1,
          "note": 67,
          "startTick": 16800,
          "durationTicks": 227,
          "velocity": 80
        },
        {
          "channel": 1,
          "note": 40,
          "startTick": 16800,
          "durationTicks": 227,
          "velocity": 80
        },
        {
          "channel": 3,
          "note": 45,
          "startTick": 16800,
          "durationTicks": 336,
          "velocity": 70
        },
        {
          "channel": 1,
          "note": 64,
          "startTick": 17040,
          "durationTicks": 227,
          "velocity": 80
        },
        {
          "channel": 1,
          "note": 45,
          "startTick": 17040,
          "durationTicks": 227,
          "velocity": 80
        },
        {
          "channel": 10,
          "note": 42,
          "startTick": 17280,
          "durationTicks": 192,
          "velocity": 52
        },
        {
          "channel": 10,
          "note": 36,
          "startTick": 17280,
          "durationTicks": 216,
          "velocity": 95
        },
        {
          "channel": 1,
          "note": 62,
          "startTick": 17280,
          "durationTicks": 227,
          "velocity": 80
        },
        {
          "channel": 1,
          "note": 66,
          "startTick": 17280,
          "durationTicks": 227,
          "velocity": 80
        },
        {
          "channel": 1,
          "note": 69,
          "startTick": 17280,
          "durationTicks": 227,
          "velocity": 80
        },
        {
          "channel": 1,
          "note": 38,
          "startTick": 17280,
          "durationTicks": 227,
          "velocity": 80
        },
        {
          "channel": 3,
          "note": 38,
          "startTick": 17280,
          "durationTicks": 336,
          "velocity": 70
        },
        {
          "channel": 2,
          "note": 50,
          "startTick": 17280,
          "durationTicks": 432,
          "velocity": 60
        },
        {
          "channel": 2,
          "note": 54,
          "startTick": 17280,
          "durationTicks": 432,
          "velocity": 60
        },
        {
          "channel": 2,
          "note": 57,
          "startTick": 17280,
          "durationTicks": 432,
          "velocity": 60
        },
        {
          "channel": 1,
          "note": 62,
          "startTick": 17520,
          "durationTicks": 227,
          "velocity": 80
        },
        {
          "channel": 1,
          "note": 66,
          "startTick": 17520,
          "durationTicks": 227,
          "velocity": 80
        },
        {
          "channel": 1,
          "note": 69,
          "startTick": 17520,
          "durationTicks": 227,
          "velocity": 80
        },
        {
          "channel": 1,
          "note": 50,
          "startTick": 17520,
          "durationTicks": 227,
          "velocity": 80
        },
        {
          "channel": 10,
          "note": 42,
          "startTick": 17760,
          "durationTicks": 192,
          "velocity": 52
        },
        {
          "channel": 10,
          "note": 38,
          "startTick": 17760,
          "durationTicks": 216,
          "velocity": 90
        },
        {
          "channel": 1,
          "note": 62,
          "startTick": 17760,
          "durationTicks": 227,
          "velocity": 80
        },
        {
          "channel": 1,
          "note": 66,
          "startTick": 17760,
          "durationTicks": 227,
          "velocity": 80
        },
        {
          "channel": 1,
          "note": 69,
          "startTick": 17760,
          "durationTicks": 227,
          "velocity": 80
        },
        {
          "channel": 1,
          "note": 45,
          "startTick": 17760,
          "durationTicks": 227,
          "velocity": 80
        },
        {
          "channel": 3,
          "note": 38,
          "startTick": 17760,
          "durationTicks": 336,
          "velocity": 70
        },
        {
          "channel": 1,
          "note": 64,
          "startTick": 18000,
          "durationTicks": 227,
          "velocity": 80
        },
        {
          "channel": 1,
          "note": 67,
          "startTick": 18000,
          "durationTicks": 227,
          "velocity": 80
        },
        {
          "channel": 1,
          "note": 50,
          "startTick": 18000,
          "durationTicks": 227,
          "velocity": 80
        },
        {
          "channel": 10,
          "note": 42,
          "startTick": 18240,
          "durationTicks": 192,
          "velocity": 52
        },
        {
          "channel": 10,
          "note": 36,
          "startTick": 18240,
          "durationTicks": 216,
          "velocity": 95
        },
        {
          "channel": 1,
          "note": 38,
          "startTick": 18240,
          "durationTicks": 227,
          "velocity": 80
        },
        {
          "channel": 3,
          "note": 38,
          "startTick": 18240,
          "durationTicks": 336,
          "velocity": 70
        },
        {
          "channel": 2,
          "note": 50,
          "startTick": 18240,
          "durationTicks": 432,
          "velocity": 60
        },
        {
          "channel": 2,
          "note": 54,
          "startTick": 18240,
          "durationTicks": 432,
          "velocity": 60
        },
        {
          "channel": 2,
          "note": 57,
          "startTick": 18240,
          "durationTicks": 432,
          "velocity": 60
        },
        {
          "channel": 1,
          "note": 50,
          "startTick": 18480,
          "durationTicks": 227,
          "velocity": 80
        },
        {
          "channel": 10,
          "note": 42,
          "startTick": 18720,
          "durationTicks": 192,
          "velocity": 52
        },
        {
          "channel": 10,
          "note": 38,
          "startTick": 18720,
          "durationTicks": 216,
          "velocity": 90
        },
        {
          "channel": 1,
          "note": 45,
          "startTick": 18720,
          "durationTicks": 227,
          "velocity": 80
        },
        {
          "channel": 3,
          "note": 38,
          "startTick": 18720,
          "durationTicks": 336,
          "velocity": 70
        },
        {
          "channel": 1,
          "note": 62,
          "startTick": 18240,
          "durationTicks": 911,
          "velocity": 80
        },
        {
          "channel": 1,
          "note": 66,
          "startTick": 18240,
          "durationTicks": 911,
          "velocity": 80
        },
        {
          "channel": 1,
          "note": 50,
          "startTick": 18960,
          "durationTicks": 227,
          "velocity": 80
        },
        {
          "channel": 10,
          "note": 42,
          "startTick": 19200,
          "durationTicks": 192,
          "velocity": 52
        },
        {
          "channel": 10,
          "note": 36,
          "startTick": 19200,
          "durationTicks": 216,
          "velocity": 95
        },
        {
          "channel": 1,
          "note": 62,
          "startTick": 19200,
          "durationTicks": 239,
          "velocity": 80
        },
        {
          "channel": 1,
          "note": 69,
          "startTick": 19200,
          "durationTicks": 239,
          "velocity": 80
        },
        {
          "channel": 1,
          "note": 38,
          "startTick": 19200,
          "durationTicks": 239,
          "velocity": 80
        },
        {
          "channel": 1,
          "note": 45,
          "startTick": 19200,
          "durationTicks": 239,
          "velocity": 80
        },
        {
          "channel": 1,
          "note": 50,
          "startTick": 19200,
          "durationTicks": 239,
          "velocity": 80
        },
        {
          "channel": 3,
          "note": 38,
          "startTick": 19200,
          "durationTicks": 336,
          "velocity": 70
        },
        {
          "channel": 2,
          "note": 50,
          "startTick": 19200,
          "durationTicks": 432,
          "velocity": 60
        },
        {
          "channel": 2,
          "note": 54,
          "startTick": 19200,
          "durationTicks": 432,
          "velocity": 60
        },
        {
          "channel": 2,
          "note": 57,
          "startTick": 19200,
          "durationTicks": 432,
          "velocity": 60
        },
        {
          "channel": 10,
          "note": 42,
          "startTick": 19680,
          "durationTicks": 192,
          "velocity": 52
        },
        {
          "channel": 10,
          "note": 38,
          "startTick": 19680,
          "durationTicks": 216,
          "velocity": 90
        },
        {
          "channel": 1,
          "note": 62,
          "startTick": 19680,
          "durationTicks": 239,
          "velocity": 80
        },
        {
          "channel": 1,
          "note": 66,
          "startTick": 19680,
          "durationTicks": 239,
          "velocity": 80
        },
        {
          "channel": 1,
          "note": 38,
          "startTick": 19680,
          "durationTicks": 239,
          "velocity": 80
        },
        {
          "channel": 1,
          "note": 45,
          "startTick": 19680,
          "durationTicks": 239,
          "velocity": 80
        },
        {
          "channel": 1,
          "note": 50,
          "startTick": 19680,
          "durationTicks": 239,
          "velocity": 80
        },
        {
          "channel": 3,
          "note": 38,
          "startTick": 19680,
          "durationTicks": 336,
          "velocity": 70
        },
        {
          "channel": 1,
          "note": 62,
          "startTick": 20160,
          "durationTicks": 119,
          "velocity": 80
        },
        {
          "channel": 1,
          "note": 69,
          "startTick": 20160,
          "durationTicks": 119,
          "velocity": 80
        },
        {
          "channel": 1,
          "note": 38,
          "startTick": 20160,
          "durationTicks": 119,
          "velocity": 80
        },
        {
          "channel": 1,
          "note": 45,
          "startTick": 20160,
          "durationTicks": 119,
          "velocity": 80
        },
        {
          "channel": 1,
          "note": 50,
          "startTick": 20160,
          "durationTicks": 119,
          "velocity": 80
        },
        {
          "channel": 10,
          "note": 42,
          "startTick": 20160,
          "durationTicks": 192,
          "velocity": 52
        },
        {
          "channel": 10,
          "note": 36,
          "startTick": 20160,
          "durationTicks": 216,
          "velocity": 95
        },
        {
          "channel": 3,
          "note": 38,
          "startTick": 20160,
          "durationTicks": 336,
          "velocity": 70
        },
        {
          "channel": 2,
          "note": 50,
          "startTick": 20160,
          "durationTicks": 432,
          "velocity": 60
        },
        {
          "channel": 2,
          "note": 54,
          "startTick": 20160,
          "durationTicks": 432,
          "velocity": 60
        },
        {
          "channel": 2,
          "note": 57,
          "startTick": 20160,
          "durationTicks": 432,
          "velocity": 60
        },
        {
          "channel": 1,
          "note": 62,
          "startTick": 20400,
          "durationTicks": 359,
          "velocity": 80
        },
        {
          "channel": 1,
          "note": 66,
          "startTick": 20400,
          "durationTicks": 359,
          "velocity": 80
        },
        {
          "channel": 1,
          "note": 74,
          "startTick": 20400,
          "durationTicks": 359,
          "velocity": 80
        },
        {
          "channel": 1,
          "note": 38,
          "startTick": 20400,
          "durationTicks": 359,
          "velocity": 80
        },
        {
          "channel": 1,
          "note": 45,
          "startTick": 20400,
          "durationTicks": 359,
          "velocity": 80
        },
        {
          "channel": 1,
          "note": 50,
          "startTick": 20400,
          "durationTicks": 359,
          "velocity": 80
        },
        {
          "channel": 10,
          "note": 42,
          "startTick": 20640,
          "durationTicks": 192,
          "velocity": 52
        },
        {
          "channel": 10,
          "note": 38,
          "startTick": 20640,
          "durationTicks": 216,
          "velocity": 90
        },
        {
          "channel": 3,
          "note": 38,
          "startTick": 20640,
          "durationTicks": 336,
          "velocity": 70
        },
        {
          "channel": 10,
          "note": 42,
          "startTick": 21120,
          "durationTicks": 192,
          "velocity": 52
        },
        {
          "channel": 10,
          "note": 36,
          "startTick": 21120,
          "durationTicks": 216,
          "velocity": 95
        },
        {
          "channel": 1,
          "note": 62,
          "startTick": 21120,
          "durationTicks": 239,
          "velocity": 80
        },
        {
          "channel": 1,
          "note": 69,
          "startTick": 21120,
          "durationTicks": 239,
          "velocity": 80
        },
        {
          "channel": 1,
          "note": 38,
          "startTick": 21120,
          "durationTicks": 239,
          "velocity": 80
        },
        {
          "channel": 1,
          "note": 45,
          "startTick": 21120,
          "durationTicks": 239,
          "velocity": 80
        },
        {
          "channel": 1,
          "note": 50,
          "startTick": 21120,
          "durationTicks": 239,
          "velocity": 80
        },
        {
          "channel": 3,
          "note": 38,
          "startTick": 21120,
          "durationTicks": 336,
          "velocity": 70
        },
        {
          "channel": 2,
          "note": 50,
          "startTick": 21120,
          "durationTicks": 432,
          "velocity": 60
        },
        {
          "channel": 2,
          "note": 54,
          "startTick": 21120,
          "durationTicks": 432,
          "velocity": 60
        },
        {
          "channel": 2,
          "note": 57,
          "startTick": 21120,
          "durationTicks": 432,
          "velocity": 60
        },
        {
          "channel": 10,
          "note": 42,
          "startTick": 21600,
          "durationTicks": 192,
          "velocity": 52
        },
        {
          "channel": 10,
          "note": 38,
          "startTick": 21600,
          "durationTicks": 216,
          "velocity": 90
        },
        {
          "channel": 1,
          "note": 62,
          "startTick": 21600,
          "durationTicks": 239,
          "velocity": 80
        },
        {
          "channel": 1,
          "note": 66,
          "startTick": 21600,
          "durationTicks": 239,
          "velocity": 80
        },
        {
          "channel": 1,
          "note": 38,
          "startTick": 21600,
          "durationTicks": 239,
          "velocity": 80
        },
        {
          "channel": 1,
          "note": 45,
          "startTick": 21600,
          "durationTicks": 239,
          "velocity": 80
        },
        {
          "channel": 1,
          "note": 50,
          "startTick": 21600,
          "durationTicks": 239,
          "velocity": 80
        },
        {
          "channel": 3,
          "note": 38,
          "startTick": 21600,
          "durationTicks": 336,
          "velocity": 70
        },
        {
          "channel": 1,
          "note": 62,
          "startTick": 22080,
          "durationTicks": 119,
          "velocity": 80
        },
        {
          "channel": 1,
          "note": 66,
          "startTick": 22080,
          "durationTicks": 119,
          "velocity": 80
        },
        {
          "channel": 1,
          "note": 69,
          "startTick": 22080,
          "durationTicks": 119,
          "velocity": 80
        },
        {
          "channel": 1,
          "note": 38,
          "startTick": 22080,
          "durationTicks": 119,
          "velocity": 80
        },
        {
          "channel": 1,
          "note": 45,
          "startTick": 22080,
          "durationTicks": 119,
          "velocity": 80
        },
        {
          "channel": 1,
          "note": 50,
          "startTick": 22080,
          "durationTicks": 119,
          "velocity": 80
        },
        {
          "channel": 10,
          "note": 42,
          "startTick": 22080,
          "durationTicks": 192,
          "velocity": 52
        },
        {
          "channel": 10,
          "note": 36,
          "startTick": 22080,
          "durationTicks": 216,
          "velocity": 95
        },
        {
          "channel": 3,
          "note": 38,
          "startTick": 22080,
          "durationTicks": 336,
          "velocity": 70
        },
        {
          "channel": 2,
          "note": 50,
          "startTick": 22080,
          "durationTicks": 432,
          "velocity": 60
        },
        {
          "channel": 2,
          "note": 54,
          "startTick": 22080,
          "durationTicks": 432,
          "velocity": 60
        },
        {
          "channel": 2,
          "note": 57,
          "startTick": 22080,
          "durationTicks": 432,
          "velocity": 60
        },
        {
          "channel": 1,
          "note": 61,
          "startTick": 22320,
          "durationTicks": 359,
          "velocity": 80
        },
        {
          "channel": 1,
          "note": 64,
          "startTick": 22320,
          "durationTicks": 359,
          "velocity": 80
        },
        {
          "channel": 1,
          "note": 33,
          "startTick": 22320,
          "durationTicks": 359,
          "velocity": 80
        },
        {
          "channel": 1,
          "note": 40,
          "startTick": 22320,
          "durationTicks": 359,
          "velocity": 80
        },
        {
          "channel": 1,
          "note": 45,
          "startTick": 22320,
          "durationTicks": 359,
          "velocity": 80
        },
        {
          "channel": 10,
          "note": 42,
          "startTick": 22560,
          "durationTicks": 192,
          "velocity": 52
        },
        {
          "channel": 10,
          "note": 38,
          "startTick": 22560,
          "durationTicks": 216,
          "velocity": 90
        },
        {
          "channel": 3,
          "note": 38,
          "startTick": 22560,
          "durationTicks": 336,
          "velocity": 70
        },
        {
          "channel": 10,
          "note": 42,
          "startTick": 23040,
          "durationTicks": 192,
          "velocity": 52
        },
        {
          "channel": 10,
          "note": 36,
          "startTick": 23040,
          "durationTicks": 216,
          "velocity": 95
        },
        {
          "channel": 3,
          "note": 40,
          "startTick": 23040,
          "durationTicks": 336,
          "velocity": 70
        },
        {
          "channel": 2,
          "note": 52,
          "startTick": 23040,
          "durationTicks": 432,
          "velocity": 60
        },
        {
          "channel": 2,
          "note": 55,
          "startTick": 23040,
          "durationTicks": 432,
          "velocity": 60
        },
        {
          "channel": 2,
          "note": 59,
          "startTick": 23040,
          "durationTicks": 432,
          "velocity": 60
        },
        {
          "channel": 10,
          "note": 42,
          "startTick": 23520,
          "durationTicks": 192,
          "velocity": 52
        },
        {
          "channel": 1,
          "note": 64,
          "startTick": 23040,
          "durationTicks": 683,
          "velocity": 80
        },
        {
          "channel": 10,
          "note": 38,
          "startTick": 23520,
          "durationTicks": 216,
          "velocity": 90
        },
        {
          "channel": 3,
          "note": 40,
          "startTick": 23520,
          "durationTicks": 336,
          "velocity": 70
        },
        {
          "channel": 1,
          "note": 40,
          "startTick": 23040,
          "durationTicks": 911,
          "velocity": 80
        },
        {
          "channel": 1,
          "note": 43,
          "startTick": 23040,
          "durationTicks": 911,
          "velocity": 80
        },
        {
          "channel": 1,
          "note": 47,
          "startTick": 23040,
          "durationTicks": 911,
          "velocity": 80
        },
        {
          "channel": 1,
          "note": 66,
          "startTick": 23760,
          "durationTicks": 227,
          "velocity": 80
        },
        {
          "channel": 1,
          "note": 67,
          "startTick": 24000,
          "durationTicks": 113,
          "velocity": 80
        },
        {
          "channel": 10,
          "note": 42,
          "startTick": 24000,
          "durationTicks": 192,
          "velocity": 52
        },
        {
          "channel": 10,
          "note": 36,
          "startTick": 24000,
          "durationTicks": 216,
          "velocity": 95
        },
        {
          "channel": 1,
          "note": 66,
          "startTick": 24120,
          "durationTicks": 113,
          "velocity": 80
        },
        {
          "channel": 3,
          "note": 40,
          "startTick": 24000,
          "durationTicks": 336,
          "velocity": 70
        },
        {
          "channel": 2,
          "note": 52,
          "startTick": 24000,
          "durationTicks": 432,
          "velocity": 60
        },
        {
          "channel": 2,
          "note": 55,
          "startTick": 24000,
          "durationTicks": 432,
          "velocity": 60
        },
        {
          "channel": 2,
          "note": 59,
          "startTick": 24000,
          "durationTicks": 432,
          "velocity": 60
        },
        {
          "channel": 1,
          "note": 64,
          "startTick": 24240,
          "durationTicks": 227,
          "velocity": 80
        },
        {
          "channel": 10,
          "note": 42,
          "startTick": 24480,
          "durationTicks": 192,
          "velocity": 52
        },
        {
          "channel": 10,
          "note": 38,
          "startTick": 24480,
          "durationTicks": 216,
          "velocity": 90
        },
        {
          "channel": 1,
          "note": 67,
          "startTick": 24480,
          "durationTicks": 227,
          "velocity": 80
        },
        {
          "channel": 3,
          "note": 40,
          "startTick": 24480,
          "durationTicks": 336,
          "velocity": 70
        },
        {
          "channel": 1,
          "note": 40,
          "startTick": 24000,
          "durationTicks": 911,
          "velocity": 80
        },
        {
          "channel": 1,
          "note": 47,
          "startTick": 24000,
          "durationTicks": 911,
          "velocity": 80
        },
        {
          "channel": 1,
          "note": 50,
          "startTick": 24000,
          "durationTicks": 911,
          "velocity": 80
        },
        {
          "channel": 1,
          "note": 71,
          "startTick": 24720,
          "durationTicks": 227,
          "velocity": 80
        },
        {
          "channel": 10,
          "note": 42,
          "startTick": 24960,
          "durationTicks": 192,
          "velocity": 52
        },
        {
          "channel": 10,
          "note": 36,
          "startTick": 24960,
          "durationTicks": 216,
          "velocity": 95
        },
        {
          "channel": 1,
          "note": 69,
          "startTick": 24960,
          "durationTicks": 227,
          "velocity": 80
        },
        {
          "channel": 3,
          "note": 45,
          "startTick": 24960,
          "durationTicks": 336,
          "velocity": 70
        },
        {
          "channel": 2,
          "note": 57,
          "startTick": 24960,
          "durationTicks": 432,
          "velocity": 60
        },
        {
          "channel": 2,
          "note": 61,
          "startTick": 24960,
          "durationTicks": 432,
          "velocity": 60
        },
        {
          "channel": 2,
          "note": 64,
          "startTick": 24960,
          "durationTicks": 432,
          "velocity": 60
        },
        {
          "channel": 1,
          "note": 45,
          "startTick": 24960,
          "durationTicks": 455,
          "velocity": 80
        },
        {
          "channel": 1,
          "note": 49,
          "startTick": 24960,
          "durationTicks": 455,
          "velocity": 80
        },
        {
          "channel": 1,
          "note": 52,
          "startTick": 24960,
          "durationTicks": 455,
          "velocity": 80
        },
        {
          "channel": 1,
          "note": 73,
          "startTick": 25200,
          "durationTicks": 227,
          "velocity": 80
        },
        {
          "channel": 10,
          "note": 42,
          "startTick": 25440,
          "durationTicks": 192,
          "velocity": 52
        },
        {
          "channel": 10,
          "note": 38,
          "startTick": 25440,
          "durationTicks": 216,
          "velocity": 90
        },
        {
          "channel": 1,
          "note": 71,
          "startTick": 25440,
          "durationTicks": 227,
          "velocity": 80
        },
        {
          "channel": 3,
          "note": 45,
          "startTick": 25440,
          "durationTicks": 336,
          "velocity": 70
        },
        {
          "channel": 1,
          "note": 47,
          "startTick": 25440,
          "durationTicks": 455,
          "velocity": 80
        },
        {
          "channel": 1,
          "note": 50,
          "startTick": 25440,
          "durationTicks": 455,
          "velocity": 80
        },
        {
          "channel": 1,
          "note": 68,
          "startTick": 25680,
          "durationTicks": 227,
          "velocity": 80
        },
        {
          "channel": 10,
          "note": 42,
          "startTick": 25920,
          "durationTicks": 192,
          "velocity": 52
        },
        {
          "channel": 10,
          "note": 36,
          "startTick": 25920,
          "durationTicks": 216,
          "velocity": 95
        },
        {
          "channel": 1,
          "note": 45,
          "startTick": 25920,
          "durationTicks": 227,
          "velocity": 80
        },
        {
          "channel": 1,
          "note": 49,
          "startTick": 25920,
          "durationTicks": 227,
          "velocity": 80
        },
        {
          "channel": 1,
          "note": 52,
          "startTick": 25920,
          "durationTicks": 227,
          "velocity": 80
        },
        {
          "channel": 3,
          "note": 45,
          "startTick": 25920,
          "durationTicks": 336,
          "velocity": 70
        },
        {
          "channel": 2,
          "note": 57,
          "startTick": 25920,
          "durationTicks": 432,
          "velocity": 60
        },
        {
          "channel": 2,
          "note": 61,
          "startTick": 25920,
          "durationTicks": 432,
          "velocity": 60
        },
        {
          "channel": 2,
          "note": 64,
          "startTick": 25920,
          "durationTicks": 432,
          "velocity": 60
        },
        {
          "channel": 1,
          "note": 52,
          "startTick": 26160,
          "durationTicks": 227,
          "velocity": 80
        },
        {
          "channel": 1,
          "note": 57,
          "startTick": 26160,
          "durationTicks": 227,
          "velocity": 80
        },
        {
          "channel": 10,
          "note": 42,
          "startTick": 26400,
          "durationTicks": 192,
          "velocity": 52
        },
        {
          "channel": 10,
          "note": 38,
          "startTick": 26400,
          "durationTicks": 216,
          "velocity": 90
        },
        {
          "channel": 1,
          "note": 52,
          "startTick": 26400,
          "durationTicks": 227,
          "velocity": 80
        },
        {
          "channel": 1,
          "note": 57,
          "startTick": 26400,
          "durationTicks": 227,
          "velocity": 80
        },
        {
          "channel": 3,
          "note": 45,
          "startTick": 26400,
          "durationTicks": 336,
          "velocity": 70
        },
        {
          "channel": 1,
          "note": 69,
          "startTick": 25920,
          "durationTicks": 911,
          "velocity": 80
        },
        {
          "channel": 1,
          "note": 52,
          "startTick": 26640,
          "durationTicks": 227,
          "velocity": 80
        },
        {
          "channel": 1,
          "note": 57,
          "startTick": 26640,
          "durationTicks": 227,
          "velocity": 80
        },
        {
          "channel": 10,
          "note": 42,
          "startTick": 26880,
          "durationTicks": 192,
          "velocity": 52
        },
        {
          "channel": 10,
          "note": 36,
          "startTick": 26880,
          "durationTicks": 216,
          "velocity": 95
        },
        {
          "channel": 1,
          "note": 38,
          "startTick": 26880,
          "durationTicks": 227,
          "velocity": 80
        },
        {
          "channel": 3,
          "note": 38,
          "startTick": 26880,
          "durationTicks": 336,
          "velocity": 70
        },
        {
          "channel": 2,
          "note": 50,
          "startTick": 26880,
          "durationTicks": 432,
          "velocity": 60
        },
        {
          "channel": 2,
          "note": 54,
          "startTick": 26880,
          "durationTicks": 432,
          "velocity": 60
        },
        {
          "channel": 2,
          "note": 57,
          "startTick": 26880,
          "durationTicks": 432,
          "velocity": 60
        },
        {
          "channel": 1,
          "note": 62,
          "startTick": 26880,
          "durationTicks": 455,
          "velocity": 80
        },
        {
          "channel": 1,
          "note": 66,
          "startTick": 26880,
          "durationTicks": 455,
          "velocity": 80
        },
        {
          "channel": 1,
          "note": 50,
          "startTick": 27120,
          "durationTicks": 227,
          "velocity": 80
        },
        {
          "channel": 10,
          "note": 42,
          "startTick": 27360,
          "durationTicks": 192,
          "velocity": 52
        },
        {
          "channel": 10,
          "note": 38,
          "startTick": 27360,
          "durationTicks": 216,
          "velocity": 90
        },
        {
          "channel": 1,
          "note": 45,
          "startTick": 27360,
          "durationTicks": 227,
          "velocity": 80
        },
        {
          "channel": 3,
          "note": 38,
          "startTick": 27360,
          "durationTicks": 336,
          "velocity": 70
        },
        {
          "channel": 1,
          "note": 62,
          "startTick": 27360,
          "durationTicks": 455,
          "velocity": 80
        },
        {
          "channel": 1,
          "note": 69,
          "startTick": 27360,
          "durationTicks": 455,
          "velocity": 80
        },
        {
          "channel": 1,
          "note": 50,
          "startTick": 27600,
          "durationTicks": 227,
          "velocity": 80
        },
        {
          "channel": 10,
          "note": 42,
          "startTick": 27840,
          "durationTicks": 192,
          "velocity": 52
        },
        {
          "channel": 10,
          "note": 36,
          "startTick": 27840,
          "durationTicks": 216,
          "velocity": 95
        },
        {
          "channel": 1,
          "note": 38,
          "startTick": 27840,
          "durationTicks": 227,
          "velocity": 80
        },
        {
          "channel": 3,
          "note": 38,
          "startTick": 27840,
          "durationTicks": 336,
          "velocity": 70
        },
        {
          "channel": 2,
          "note": 50,
          "startTick": 27840,
          "durationTicks": 432,
          "velocity": 60
        },
        {
          "channel": 2,
          "note": 54,
          "startTick": 27840,
          "durationTicks": 432,
          "velocity": 60
        },
        {
          "channel": 2,
          "note": 57,
          "startTick": 27840,
          "durationTicks": 432,
          "velocity": 60
        },
        {
          "channel": 1,
          "note": 50,
          "startTick": 28080,
          "durationTicks": 227,
          "velocity": 80
        },
        {
          "channel": 10,
          "note": 42,
          "startTick": 28320,
          "durationTicks": 192,
          "velocity": 52
        },
        {
          "channel": 10,
          "note": 38,
          "startTick": 28320,
          "durationTicks": 216,
          "velocity": 90
        },
        {
          "channel": 1,
          "note": 45,
          "startTick": 28320,
          "durationTicks": 227,
          "velocity": 80
        },
        {
          "channel": 3,
          "note": 38,
          "startTick": 28320,
          "durationTicks": 336,
          "velocity": 70
        },
        {
          "channel": 1,
          "note": 62,
          "startTick": 27840,
          "durationTicks": 911,
          "velocity": 80
        },
        {
          "channel": 1,
          "note": 69,
          "startTick": 27840,
          "durationTicks": 911,
          "velocity": 80
        },
        {
          "channel": 1,
          "note": 50,
          "startTick": 28560,
          "durationTicks": 227,
          "velocity": 80
        },
        {
          "channel": 10,
          "note": 42,
          "startTick": 28800,
          "durationTicks": 192,
          "velocity": 52
        },
        {
          "channel": 10,
          "note": 36,
          "startTick": 28800,
          "durationTicks": 216,
          "velocity": 95
        },
        {
          "channel": 1,
          "note": 35,
          "startTick": 28800,
          "durationTicks": 227,
          "velocity": 80
        },
        {
          "channel": 1,
          "note": 62,
          "startTick": 28800,
          "durationTicks": 239,
          "velocity": 80
        },
        {
          "channel": 1,
          "note": 66,
          "startTick": 28800,
          "durationTicks": 239,
          "velocity": 80
        },
        {
          "channel": 3,
          "note": 47,
          "startTick": 28800,
          "durationTicks": 336,
          "velocity": 70
        },
        {
          "channel": 2,
          "note": 59,
          "startTick": 28800,
          "durationTicks": 432,
          "velocity": 60
        },
        {
          "channel": 2,
          "note": 62,
          "startTick": 28800,
          "durationTicks": 432,
          "velocity": 60
        },
        {
          "channel": 2,
          "note": 66,
          "startTick": 28800,
          "durationTicks": 432,
          "velocity": 60
        },
        {
          "channel": 1,
          "note": 62,
          "startTick": 29040,
          "durationTicks": 227,
          "velocity": 80
        },
        {
          "channel": 1,
          "note": 71,
          "startTick": 29040,
          "durationTicks": 227,
          "velocity": 80
        },
        {
          "channel": 1,
          "note": 47,
          "startTick": 29040,
          "durationTicks": 227,
          "velocity": 80
        },
        {
          "channel": 10,
          "note": 42,
          "startTick": 29280,
          "durationTicks": 192,
          "velocity": 52
        },
        {
          "channel": 10,
          "note": 38,
          "startTick": 29280,
          "durationTicks": 216,
          "velocity": 90
        },
        {
          "channel": 1,
          "note": 62,
          "startTick": 29280,
          "durationTicks": 227,
          "velocity": 80
        },
        {
          "channel": 1,
          "note": 69,
          "startTick": 29280,
          "durationTicks": 227,
          "velocity": 80
        },
        {
          "channel": 1,
          "note": 42,
          "startTick": 29280,
          "durationTicks": 227,
          "velocity": 80
        },
        {
          "channel": 3,
          "note": 47,
          "startTick": 29280,
          "durationTicks": 336,
          "velocity": 70
        },
        {
          "channel": 1,
          "note": 66,
          "startTick": 29520,
          "durationTicks": 227,
          "velocity": 80
        },
        {
          "channel": 1,
          "note": 47,
          "startTick": 29520,
          "durationTicks": 227,
          "velocity": 80
        },
        {
          "channel": 10,
          "note": 42,
          "startTick": 29760,
          "durationTicks": 192,
          "velocity": 52
        },
        {
          "channel": 10,
          "note": 36,
          "startTick": 29760,
          "durationTicks": 216,
          "velocity": 95
        },
        {
          "channel": 1,
          "note": 35,
          "startTick": 29760,
          "durationTicks": 227,
          "velocity": 80
        },
        {
          "channel": 3,
          "note": 47,
          "startTick": 29760,
          "durationTicks": 336,
          "velocity": 70
        },
        {
          "channel": 2,
          "note": 59,
          "startTick": 29760,
          "durationTicks": 432,
          "velocity": 60
        },
        {
          "channel": 2,
          "note": 62,
          "startTick": 29760,
          "durationTicks": 432,
          "velocity": 60
        },
        {
          "channel": 2,
          "note": 66,
          "startTick": 29760,
          "durationTicks": 432,
          "velocity": 60
        },
        {
          "channel": 1,
          "note": 47,
          "startTick": 30000,
          "durationTicks": 227,
          "velocity": 80
        },
        {
          "channel": 10,
          "note": 42,
          "startTick": 30240,
          "durationTicks": 192,
          "velocity": 52
        },
        {
          "channel": 10,
          "note": 38,
          "startTick": 30240,
          "durationTicks": 216,
          "velocity": 90
        },
        {
          "channel": 1,
          "note": 42,
          "startTick": 30240,
          "durationTicks": 227,
          "velocity": 80
        },
        {
          "channel": 3,
          "note": 47,
          "startTick": 30240,
          "durationTicks": 336,
          "velocity": 70
        },
        {
          "channel": 1,
          "note": 62,
          "startTick": 29760,
          "durationTicks": 911,
          "velocity": 80
        },
        {
          "channel": 1,
          "note": 47,
          "startTick": 30480,
          "durationTicks": 227,
          "velocity": 80
        },
        {
          "channel": 10,
          "note": 42,
          "startTick": 30720,
          "durationTicks": 192,
          "velocity": 52
        },
        {
          "channel": 10,
          "note": 36,
          "startTick": 30720,
          "durationTicks": 216,
          "velocity": 95
        },
        {
          "channel": 1,
          "note": 59,
          "startTick": 30720,
          "durationTicks": 227,
          "velocity": 80
        },
        {
          "channel": 1,
          "note": 64,
          "startTick": 30720,
          "durationTicks": 227,
          "velocity": 80
        },
        {
          "channel": 1,
          "note": 40,
          "startTick": 30720,
          "durationTicks": 227,
          "velocity": 80
        },
        {
          "channel": 3,
          "note": 40,
          "startTick": 30720,
          "durationTicks": 336,
          "velocity": 70
        },
        {
          "channel": 2,
          "note": 52,
          "startTick": 30720,
          "durationTicks": 432,
          "velocity": 60
        },
        {
          "channel": 2,
          "note": 56,
          "startTick": 30720,
          "durationTicks": 432,
          "velocity": 60
        },
        {
          "channel": 2,
          "note": 59,
          "startTick": 30720,
          "durationTicks": 432,
          "velocity": 60
        },
        {
          "channel": 1,
          "note": 52,
          "startTick": 30960,
          "durationTicks": 227,
          "velocity": 80
        },
        {
          "channel": 10,
          "note": 42,
          "startTick": 31200,
          "durationTicks": 192,
          "velocity": 52
        },
        {
          "channel": 1,
          "note": 66,
          "startTick": 30960,
          "durationTicks": 455,
          "velocity": 80
        },
        {
          "channel": 10,
          "note": 38,
          "startTick": 31200,
          "durationTicks": 216,
          "velocity": 90
        },
        {
          "channel": 1,
          "note": 47,
          "startTick": 31200,
          "durationTicks": 227,
          "velocity": 80
        },
        {
          "channel": 3,
          "note": 40,
          "startTick": 31200,
          "durationTicks": 336,
          "velocity": 70
        },
        {
          "channel": 1,
          "note": 62,
          "startTick": 31440,
          "durationTicks": 227,
          "velocity": 80
        },
        {
          "channel": 1,
          "note": 52,
          "startTick": 31440,
          "durationTicks": 227,
          "velocity": 80
        },
        {
          "channel": 10,
          "note": 42,
          "startTick": 31680,
          "durationTicks": 192,
          "velocity": 52
        },
        {
          "channel": 10,
          "note": 36,
          "startTick": 31680,
          "durationTicks": 216,
          "velocity": 95
        },
        {
          "channel": 1,
          "note": 59,
          "startTick": 31680,
          "durationTicks": 227,
          "velocity": 80
        },
        {
          "channel": 1,
          "note": 40,
          "startTick": 31680,
          "durationTicks": 227,
          "velocity": 80
        },
        {
          "channel": 3,
          "note": 40,
          "startTick": 31680,
          "durationTicks": 336,
          "velocity": 70
        },
        {
          "channel": 2,
          "note": 52,
          "startTick": 31680,
          "durationTicks": 432,
          "velocity": 60
        },
        {
          "channel": 2,
          "note": 56,
          "startTick": 31680,
          "durationTicks": 432,
          "velocity": 60
        },
        {
          "channel": 2,
          "note": 59,
          "startTick": 31680,
          "durationTicks": 432,
          "velocity": 60
        },
        {
          "channel": 1,
          "note": 52,
          "startTick": 31920,
          "durationTicks": 227,
          "velocity": 80
        },
        {
          "channel": 10,
          "note": 42,
          "startTick": 32160,
          "durationTicks": 192,
          "velocity": 52
        },
        {
          "channel": 1,
          "note": 62,
          "startTick": 31920,
          "durationTicks": 455,
          "velocity": 80
        },
        {
          "channel": 10,
          "note": 38,
          "startTick": 32160,
          "durationTicks": 216,
          "velocity": 90
        },
        {
          "channel": 1,
          "note": 47,
          "startTick": 32160,
          "durationTicks": 227,
          "velocity": 80
        },
        {
          "channel": 3,
          "note": 40,
          "startTick": 32160,
          "durationTicks": 336,
          "velocity": 70
        },
        {
          "channel": 1,
          "note": 64,
          "startTick": 32400,
          "durationTicks": 227,
          "velocity": 80
        },
        {
          "channel": 1,
          "note": 52,
          "startTick": 32400,
          "durationTicks": 227,
          "velocity": 80
        },
        {
          "channel": 10,
          "note": 42,
          "startTick": 32640,
          "durationTicks": 192,
          "velocity": 52
        },
        {
          "channel": 10,
          "note": 36,
          "startTick": 32640,
          "durationTicks": 216,
          "velocity": 95
        },
        {
          "channel": 3,
          "note": 40,
          "startTick": 32640,
          "durationTicks": 336,
          "velocity": 70
        },
        {
          "channel": 2,
          "note": 52,
          "startTick": 32640,
          "durationTicks": 432,
          "velocity": 60
        },
        {
          "channel": 2,
          "note": 56,
          "startTick": 32640,
          "durationTicks": 432,
          "velocity": 60
        },
        {
          "channel": 2,
          "note": 59,
          "startTick": 32640,
          "durationTicks": 432,
          "velocity": 60
        },
        {
          "channel": 1,
          "note": 66,
          "startTick": 32640,
          "durationTicks": 455,
          "velocity": 80
        },
        {
          "channel": 1,
          "note": 38,
          "startTick": 32640,
          "durationTicks": 455,
          "velocity": 80
        },
        {
          "channel": 1,
          "note": 45,
          "startTick": 32640,
          "durationTicks": 455,
          "velocity": 80
        },
        {
          "channel": 1,
          "note": 50,
          "startTick": 32640,
          "durationTicks": 455,
          "velocity": 80
        },
        {
          "channel": 10,
          "note": 42,
          "startTick": 33120,
          "durationTicks": 192,
          "velocity": 52
        },
        {
          "channel": 10,
          "note": 38,
          "startTick": 33120,
          "durationTicks": 216,
          "velocity": 90
        },
        {
          "channel": 3,
          "note": 40,
          "startTick": 33120,
          "durationTicks": 336,
          "velocity": 70
        },
        {
          "channel": 1,
          "note": 62,
          "startTick": 33120,
          "durationTicks": 455,
          "velocity": 80
        },
        {
          "channel": 1,
          "note": 38,
          "startTick": 33120,
          "durationTicks": 455,
          "velocity": 80
        },
        {
          "channel": 1,
          "note": 45,
          "startTick": 33120,
          "durationTicks": 455,
          "velocity": 80
        },
        {
          "channel": 1,
          "note": 50,
          "startTick": 33120,
          "durationTicks": 455,
          "velocity": 80
        },
        {
          "channel": 10,
          "note": 42,
          "startTick": 33600,
          "durationTicks": 192,
          "velocity": 52
        },
        {
          "channel": 10,
          "note": 36,
          "startTick": 33600,
          "durationTicks": 216,
          "velocity": 95
        },
        {
          "channel": 1,
          "note": 59,
          "startTick": 33600,
          "durationTicks": 227,
          "velocity": 80
        },
        {
          "channel": 1,
          "note": 64,
          "startTick": 33600,
          "durationTicks": 227,
          "velocity": 80
        },
        {
          "channel": 1,
          "note": 40,
          "startTick": 33600,
          "durationTicks": 227,
          "velocity": 80
        },
        {
          "channel": 1,
          "note": 47,
          "startTick": 33600,
          "durationTicks": 227,
          "velocity": 80
        },
        {
          "channel": 1,
          "note": 52,
          "startTick": 33600,
          "durationTicks": 227,
          "velocity": 80
        },
        {
          "channel": 3,
          "note": 40,
          "startTick": 33600,
          "durationTicks": 336,
          "velocity": 70
        },
        {
          "channel": 2,
          "note": 52,
          "startTick": 33600,
          "durationTicks": 432,
          "velocity": 60
        },
        {
          "channel": 2,
          "note": 56,
          "startTick": 33600,
          "durationTicks": 432,
          "velocity": 60
        },
        {
          "channel": 2,
          "note": 59,
          "startTick": 33600,
          "durationTicks": 432,
          "velocity": 60
        },
        {
          "channel": 10,
          "note": 42,
          "startTick": 34080,
          "durationTicks": 192,
          "velocity": 52
        },
        {
          "channel": 10,
          "note": 38,
          "startTick": 34080,
          "durationTicks": 216,
          "velocity": 90
        },
        {
          "channel": 3,
          "note": 40,
          "startTick": 34080,
          "durationTicks": 336,
          "velocity": 70
        },
        {
          "channel": 1,
          "note": 59,
          "startTick": 33840,
          "durationTicks": 683,
          "velocity": 80
        },
        {
          "channel": 1,
          "note": 64,
          "startTick": 33840,
          "durationTicks": 683,
          "velocity": 80
        },
        {
          "channel": 1,
          "note": 71,
          "startTick": 33840,
          "durationTicks": 683,
          "velocity": 80
        },
        {
          "channel": 1,
          "note": 40,
          "startTick": 33840,
          "durationTicks": 683,
          "velocity": 80
        },
        {
          "channel": 1,
          "note": 47,
          "startTick": 33840,
          "durationTicks": 683,
          "velocity": 80
        },
        {
          "channel": 1,
          "note": 52,
          "startTick": 33840,
          "durationTicks": 683,
          "velocity": 80
        },
        {
          "channel": 10,
          "note": 42,
          "startTick": 34560,
          "durationTicks": 192,
          "velocity": 52
        },
        {
          "channel": 10,
          "note": 36,
          "startTick": 34560,
          "durationTicks": 216,
          "velocity": 95
        },
        {
          "channel": 3,
          "note": 45,
          "startTick": 34560,
          "durationTicks": 336,
          "velocity": 70
        },
        {
          "channel": 2,
          "note": 57,
          "startTick": 34560,
          "durationTicks": 432,
          "velocity": 60
        },
        {
          "channel": 2,
          "note": 61,
          "startTick": 34560,
          "durationTicks": 432,
          "velocity": 60
        },
        {
          "channel": 2,
          "note": 64,
          "startTick": 34560,
          "durationTicks": 432,
          "velocity": 60
        },
        {
          "channel": 1,
          "note": 61,
          "startTick": 34560,
          "durationTicks": 455,
          "velocity": 80
        },
        {
          "channel": 1,
          "note": 69,
          "startTick": 34560,
          "durationTicks": 455,
          "velocity": 80
        },
        {
          "channel": 1,
          "note": 45,
          "startTick": 34560,
          "durationTicks": 455,
          "velocity": 80
        },
        {
          "channel": 1,
          "note": 49,
          "startTick": 34560,
          "durationTicks": 455,
          "velocity": 80
        },
        {
          "channel": 1,
          "note": 52,
          "startTick": 34560,
          "durationTicks": 455,
          "velocity": 80
        },
        {
          "channel": 10,
          "note": 42,
          "startTick": 35040,
          "durationTicks": 192,
          "velocity": 52
        },
        {
          "channel": 10,
          "note": 38,
          "startTick": 35040,
          "durationTicks": 216,
          "velocity": 90
        },
        {
          "channel": 3,
          "note": 45,
          "startTick": 35040,
          "durationTicks": 336,
          "velocity": 70
        },
        {
          "channel": 1,
          "note": 64,
          "startTick": 35040,
          "durationTicks": 455,
          "velocity": 80
        },
        {
          "channel": 1,
          "note": 45,
          "startTick": 35040,
          "durationTicks": 455,
          "velocity": 80
        },
        {
          "channel": 1,
          "note": 49,
          "startTick": 35040,
          "durationTicks": 455,
          "velocity": 80
        },
        {
          "channel": 1,
          "note": 52,
          "startTick": 35040,
          "durationTicks": 455,
          "velocity": 80
        },
        {
          "channel": 10,
          "note": 42,
          "startTick": 35520,
          "durationTicks": 192,
          "velocity": 52
        },
        {
          "channel": 10,
          "note": 36,
          "startTick": 35520,
          "durationTicks": 216,
          "velocity": 95
        },
        {
          "channel": 1,
          "note": 66,
          "startTick": 35520,
          "durationTicks": 227,
          "velocity": 80
        },
        {
          "channel": 1,
          "note": 38,
          "startTick": 35520,
          "durationTicks": 227,
          "velocity": 80
        },
        {
          "channel": 1,
          "note": 45,
          "startTick": 35520,
          "durationTicks": 227,
          "velocity": 80
        },
        {
          "channel": 1,
          "note": 50,
          "startTick": 35520,
          "durationTicks": 227,
          "velocity": 80
        },
        {
          "channel": 3,
          "note": 45,
          "startTick": 35520,
          "durationTicks": 336,
          "velocity": 70
        },
        {
          "channel": 2,
          "note": 57,
          "startTick": 35520,
          "durationTicks": 432,
          "velocity": 60
        },
        {
          "channel": 2,
          "note": 61,
          "startTick": 35520,
          "durationTicks": 432,
          "velocity": 60
        },
        {
          "channel": 2,
          "note": 64,
          "startTick": 35520,
          "durationTicks": 432,
          "velocity": 60
        },
        {
          "channel": 10,
          "note": 42,
          "startTick": 36000,
          "durationTicks": 192,
          "velocity": 52
        },
        {
          "channel": 10,
          "note": 38,
          "startTick": 36000,
          "durationTicks": 216,
          "velocity": 90
        },
        {
          "channel": 3,
          "note": 45,
          "startTick": 36000,
          "durationTicks": 336,
          "velocity": 70
        },
        {
          "channel": 1,
          "note": 62,
          "startTick": 35760,
          "durationTicks": 683,
          "velocity": 80
        },
        {
          "channel": 1,
          "note": 38,
          "startTick": 35760,
          "durationTicks": 683,
          "velocity": 80
        },
        {
          "channel": 1,
          "note": 45,
          "startTick": 35760,
          "durationTicks": 683,
          "velocity": 80
        },
        {
          "channel": 1,
          "note": 50,
          "startTick": 35760,
          "durationTicks": 683,
          "velocity": 80
        },
        {
          "channel": 1,
          "note": 66,
          "startTick": 36480,
          "durationTicks": 113,
          "velocity": 80
        },
        {
          "channel": 1,
          "note": 74,
          "startTick": 36480,
          "durationTicks": 113,
          "velocity": 80
        },
        {
          "channel": 10,
          "note": 42,
          "startTick": 36480,
          "durationTicks": 192,
          "velocity": 52
        },
        {
          "channel": 10,
          "note": 36,
          "startTick": 36480,
          "durationTicks": 216,
          "velocity": 95
        },
        {
          "channel": 1,
          "note": 73,
          "startTick": 36600,
          "durationTicks": 113,
          "velocity": 80
        },
        {
          "channel": 3,
          "note": 38,
          "startTick": 36480,
          "durationTicks": 336,
          "velocity": 70
        },
        {
          "channel": 1,
          "note": 74,
          "startTick": 36720,
          "durationTicks": 113,
          "velocity": 80
        },
        {
          "channel": 2,
          "note": 50,
          "startTick": 36480,
          "durationTicks": 432,
          "velocity": 60
        },
        {
          "channel": 2,
          "note": 54,
          "startTick": 36480,
          "durationTicks": 432,
          "velocity": 60
        },
        {
          "channel": 2,
          "note": 57,
          "startTick": 36480,
          "durationTicks": 432,
          "velocity": 60
        },
        {
          "channel": 1,
          "note": 73,
          "startTick": 36840,
          "durationTicks": 113,
          "velocity": 80
        },
        {
          "channel": 10,
          "note": 42,
          "startTick": 36960,
          "durationTicks": 192,
          "velocity": 52
        },
        {
          "channel": 1,
          "note": 38,
          "startTick": 36480,
          "durationTicks": 683,
          "velocity": 80
        },
        {
          "channel": 1,
          "note": 50,
          "startTick": 36480,
          "durationTicks": 683,
          "velocity": 80
        },
        {
          "channel": 10,
          "note": 38,
          "startTick": 36960,
          "durationTicks": 216,
          "velocity": 90
        },
        {
          "channel": 1,
          "note": 74,
          "startTick": 36960,
          "durationTicks": 227,
          "velocity": 80
        },
        {
          "channel": 3,
          "note": 38,
          "startTick": 36960,
          "durationTicks": 336,
          "velocity": 70
        },
        {
          "channel": 1,
          "note": 62,
          "startTick": 37200,
          "durationTicks": 227,
          "velocity": 80
        },
        {
          "channel": 1,
          "note": 45,
          "startTick": 37200,
          "durationTicks": 227,
          "velocity": 80
        },
        {
          "channel": 1,
          "note": 66,
          "startTick": 37440,
          "durationTicks": 113,
          "velocity": 80
        },
        {
          "channel": 1,
          "note": 69,
          "startTick": 37440,
          "durationTicks": 113,
          "velocity": 80
        },
        {
          "channel": 10,
          "note": 42,
          "startTick": 37440,
          "durationTicks": 192,
          "velocity": 52
        },
        {
          "channel": 10,
          "note": 36,
          "startTick": 37440,
          "durationTicks": 216,
          "velocity": 95
        },
        {
          "channel": 1,
          "note": 65,
          "startTick": 37560,
          "durationTicks": 113,
          "velocity": 80
        },
        {
          "channel": 3,
          "note": 38,
          "startTick": 37440,
          "durationTicks": 336,
          "velocity": 70
        },
        {
          "channel": 1,
          "note": 66,
          "startTick": 37680,
          "durationTicks": 113,
          "velocity": 80
        },
        {
          "channel": 2,
          "note": 50,
          "startTick": 37440,
          "durationTicks": 432,
          "velocity": 60
        },
        {
          "channel": 2,
          "note": 54,
          "startTick": 37440,
          "durationTicks": 432,
          "velocity": 60
        },
        {
          "channel": 2,
          "note": 57,
          "startTick": 37440,
          "durationTicks": 432,
          "velocity": 60
        },
        {
          "channel": 1,
          "note": 65,
          "startTick": 37800,
          "durationTicks": 113,
          "velocity": 80
        },
        {
          "channel": 10,
          "note": 42,
          "startTick": 37920,
          "durationTicks": 192,
          "velocity": 52
        },
        {
          "channel": 1,
          "note": 38,
          "startTick": 37440,
          "durationTicks": 683,
          "velocity": 80
        },
        {
          "channel": 1,
          "note": 50,
          "startTick": 37440,
          "durationTicks": 683,
          "velocity": 80
        },
        {
          "channel": 10,
          "note": 38,
          "startTick": 37920,
          "durationTicks": 216,
          "velocity": 90
        },
        {
          "channel": 1,
          "note": 66,
          "startTick": 37920,
          "durationTicks": 227,
          "velocity": 80
        },
        {
          "channel": 3,
          "note": 38,
          "startTick": 37920,
          "durationTicks": 336,
          "velocity": 70
        },
        {
          "channel": 1,
          "note": 62,
          "startTick": 38160,
          "durationTicks": 227,
          "velocity": 80
        },
        {
          "channel": 1,
          "note": 45,
          "startTick": 38160,
          "durationTicks": 227,
          "velocity": 80
        },
        {
          "channel": 10,
          "note": 42,
          "startTick": 38400,
          "durationTicks": 192,
          "velocity": 52
        },
        {
          "channel": 10,
          "note": 36,
          "startTick": 38400,
          "durationTicks": 216,
          "velocity": 95
        },
        {
          "channel": 1,
          "note": 69,
          "startTick": 38400,
          "durationTicks": 227,
          "velocity": 80
        },
        {
          "channel": 1,
          "note": 33,
          "startTick": 38400,
          "durationTicks": 227,
          "velocity": 80
        },
        {
          "channel": 3,
          "note": 45,
          "startTick": 38400,
          "durationTicks": 336,
          "velocity": 70
        },
        {
          "channel": 2,
          "note": 57,
          "startTick": 38400,
          "durationTicks": 432,
          "velocity": 60
        },
        {
          "channel": 2,
          "note": 61,
          "startTick": 38400,
          "durationTicks": 432,
          "velocity": 60
        },
        {
          "channel": 2,
          "note": 64,
          "startTick": 38400,
          "durationTicks": 432,
          "velocity": 60
        },
        {
          "channel": 1,
          "note": 67,
          "startTick": 38640,
          "durationTicks": 227,
          "velocity": 80
        },
        {
          "channel": 1,
          "note": 40,
          "startTick": 38640,
          "durationTicks": 227,
          "velocity": 80
        },
        {
          "channel": 10,
          "note": 42,
          "startTick": 38880,
          "durationTicks": 192,
          "velocity": 52
        },
        {
          "channel": 10,
          "note": 38,
          "startTick": 38880,
          "durationTicks": 216,
          "velocity": 90
        },
        {
          "channel": 1,
          "note": 66,
          "startTick": 38880,
          "durationTicks": 227,
          "velocity": 80
        },
        {
          "channel": 1,
          "note": 45,
          "startTick": 38880,
          "durationTicks": 227,
          "velocity": 80
        },
        {
          "channel": 3,
          "note": 45,
          "startTick": 38880,
          "durationTicks": 336,
          "velocity": 70
        },
        {
          "channel": 1,
          "note": 64,
          "startTick": 39120,
          "durationTicks": 227,
          "velocity": 80
        },
        {
          "channel": 1,
          "note": 40,
          "startTick": 39120,
          "durationTicks": 227,
          "velocity": 80
        },
        {
          "channel": 10,
          "note": 42,
          "startTick": 39360,
          "durationTicks": 192,
          "velocity": 52
        },
        {
          "channel": 10,
          "note": 36,
          "startTick": 39360,
          "durationTicks": 216,
          "velocity": 95
        },
        {
          "channel": 1,
          "note": 62,
          "startTick": 39360,
          "durationTicks": 227,
          "velocity": 80
        },
        {
          "channel": 1,
          "note": 33,
          "startTick": 39360,
          "durationTicks": 227,
          "velocity": 80
        },
        {
          "channel": 3,
          "note": 45,
          "startTick": 39360,
          "durationTicks": 336,
          "velocity": 70
        },
        {
          "channel": 2,
          "note": 57,
          "startTick": 39360,
          "durationTicks": 432,
          "velocity": 60
        },
        {
          "channel": 2,
          "note": 61,
          "startTick": 39360,
          "durationTicks": 432,
          "velocity": 60
        },
        {
          "channel": 2,
          "note": 64,
          "startTick": 39360,
          "durationTicks": 432,
          "velocity": 60
        },
        {
          "channel": 1,
          "note": 61,
          "startTick": 39600,
          "durationTicks": 227,
          "velocity": 80
        },
        {
          "channel": 1,
          "note": 33,
          "startTick": 39600,
          "durationTicks": 227,
          "velocity": 80
        },
        {
          "channel": 10,
          "note": 42,
          "startTick": 39840,
          "durationTicks": 192,
          "velocity": 52
        },
        {
          "channel": 10,
          "note": 38,
          "startTick": 39840,
          "durationTicks": 216,
          "velocity": 90
        },
        {
          "channel": 1,
          "note": 59,
          "startTick": 39840,
          "durationTicks": 227,
          "velocity": 80
        },
        {
          "channel": 1,
          "note": 35,
          "startTick": 39840,
          "durationTicks": 227,
          "velocity": 80
        },
        {
          "channel": 3,
          "note": 45,
          "startTick": 39840,
          "durationTicks": 336,
          "velocity": 70
        },
        {
          "channel": 1,
          "note": 57,
          "startTick": 40080,
          "durationTicks": 227,
          "velocity": 80
        },
        {
          "channel": 1,
          "note": 37,
          "startTick": 40080,
          "durationTicks": 227,
          "velocity": 80
        },
        {
          "channel": 10,
          "note": 42,
          "startTick": 40320,
          "durationTicks": 192,
          "velocity": 52
        },
        {
          "channel": 10,
          "note": 36,
          "startTick": 40320,
          "durationTicks": 216,
          "velocity": 95
        },
        {
          "channel": 1,
          "note": 66,
          "startTick": 40320,
          "durationTicks": 227,
          "velocity": 80
        },
        {
          "channel": 1,
          "note": 38,
          "startTick": 40320,
          "durationTicks": 227,
          "velocity": 80
        },
        {
          "channel": 3,
          "note": 38,
          "startTick": 40320,
          "durationTicks": 336,
          "velocity": 70
        },
        {
          "channel": 2,
          "note": 50,
          "startTick": 40320,
          "durationTicks": 432,
          "velocity": 60
        },
        {
          "channel": 2,
          "note": 54,
          "startTick": 40320,
          "durationTicks": 432,
          "velocity": 60
        },
        {
          "channel": 2,
          "note": 57,
          "startTick": 40320,
          "durationTicks": 432,
          "velocity": 60
        },
        {
          "channel": 1,
          "note": 57,
          "startTick": 40560,
          "durationTicks": 227,
          "velocity": 80
        },
        {
          "channel": 1,
          "note": 62,
          "startTick": 40560,
          "durationTicks": 227,
          "velocity": 80
        },
        {
          "channel": 1,
          "note": 50,
          "startTick": 40560,
          "durationTicks": 227,
          "velocity": 80
        },
        {
          "channel": 10,
          "note": 42,
          "startTick": 40800,
          "durationTicks": 192,
          "velocity": 52
        },
        {
          "channel": 10,
          "note": 38,
          "startTick": 40800,
          "durationTicks": 216,
          "velocity": 90
        },
        {
          "channel": 1,
          "note": 57,
          "startTick": 40800,
          "durationTicks": 227,
          "velocity": 80
        },
        {
          "channel": 1,
          "note": 62,
          "startTick": 40800,
          "durationTicks": 227,
          "velocity": 80
        },
        {
          "channel": 1,
          "note": 45,
          "startTick": 40800,
          "durationTicks": 227,
          "velocity": 80
        },
        {
          "channel": 3,
          "note": 38,
          "startTick": 40800,
          "durationTicks": 336,
          "velocity": 70
        },
        {
          "channel": 1,
          "note": 57,
          "startTick": 41040,
          "durationTicks": 227,
          "velocity": 80
        },
        {
          "channel": 1,
          "note": 62,
          "startTick": 41040,
          "durationTicks": 227,
          "velocity": 80
        },
        {
          "channel": 1,
          "note": 50,
          "startTick": 41040,
          "durationTicks": 227,
          "velocity": 80
        },
        {
          "channel": 10,
          "note": 42,
          "startTick": 41280,
          "durationTicks": 192,
          "velocity": 52
        },
        {
          "channel": 10,
          "note": 36,
          "startTick": 41280,
          "durationTicks": 216,
          "velocity": 95
        },
        {
          "channel": 1,
          "note": 66,
          "startTick": 41280,
          "durationTicks": 227,
          "velocity": 80
        },
        {
          "channel": 1,
          "note": 38,
          "startTick": 41280,
          "durationTicks": 227,
          "velocity": 80
        },
        {
          "channel": 3,
          "note": 38,
          "startTick": 41280,
          "durationTicks": 336,
          "velocity": 70
        },
        {
          "channel": 2,
          "note": 50,
          "startTick": 41280,
          "durationTicks": 432,
          "velocity": 60
        },
        {
          "channel": 2,
          "note": 54,
          "startTick": 41280,
          "durationTicks": 432,
          "velocity": 60
        },
        {
          "channel": 2,
          "note": 57,
          "startTick": 41280,
          "durationTicks": 432,
          "velocity": 60
        },
        {
          "channel": 1,
          "note": 57,
          "startTick": 41520,
          "durationTicks": 227,
          "velocity": 80
        },
        {
          "channel": 1,
          "note": 62,
          "startTick": 41520,
          "durationTicks": 227,
          "velocity": 80
        },
        {
          "channel": 1,
          "note": 50,
          "startTick": 41520,
          "durationTicks": 227,
          "velocity": 80
        },
        {
          "channel": 10,
          "note": 42,
          "startTick": 41760,
          "durationTicks": 192,
          "velocity": 52
        },
        {
          "channel": 10,
          "note": 38,
          "startTick": 41760,
          "durationTicks": 216,
          "velocity": 90
        },
        {
          "channel": 1,
          "note": 57,
          "startTick": 41760,
          "durationTicks": 227,
          "velocity": 80
        },
        {
          "channel": 1,
          "note": 62,
          "startTick": 41760,
          "durationTicks": 227,
          "velocity": 80
        },
        {
          "channel": 1,
          "note": 45,
          "startTick": 41760,
          "durationTicks": 227,
          "velocity": 80
        },
        {
          "channel": 3,
          "note": 38,
          "startTick": 41760,
          "durationTicks": 336,
          "velocity": 70
        },
        {
          "channel": 1,
          "note": 57,
          "startTick": 42000,
          "durationTicks": 227,
          "velocity": 80
        },
        {
          "channel": 1,
          "note": 62,
          "startTick": 42000,
          "durationTicks": 227,
          "velocity": 80
        },
        {
          "channel": 1,
          "note": 50,
          "startTick": 42000,
          "durationTicks": 227,
          "velocity": 80
        },
        {
          "channel": 10,
          "note": 42,
          "startTick": 42240,
          "durationTicks": 192,
          "velocity": 52
        },
        {
          "channel": 10,
          "note": 36,
          "startTick": 42240,
          "durationTicks": 216,
          "velocity": 95
        },
        {
          "channel": 1,
          "note": 59,
          "startTick": 42240,
          "durationTicks": 227,
          "velocity": 80
        },
        {
          "channel": 1,
          "note": 67,
          "startTick": 42240,
          "durationTicks": 227,
          "velocity": 80
        },
        {
          "channel": 1,
          "note": 40,
          "startTick": 42240,
          "durationTicks": 227,
          "velocity": 80
        },
        {
          "channel": 3,
          "note": 40,
          "startTick": 42240,
          "durationTicks": 336,
          "velocity": 70
        },
        {
          "channel": 2,
          "note": 52,
          "startTick": 42240,
          "durationTicks": 432,
          "velocity": 60
        },
        {
          "channel": 2,
          "note": 55,
          "startTick": 42240,
          "durationTicks": 432,
          "velocity": 60
        },
        {
          "channel": 2,
          "note": 59,
          "startTick": 42240,
          "durationTicks": 432,
          "velocity": 60
        },
        {
          "channel": 1,
          "note": 59,
          "startTick": 42480,
          "durationTicks": 227,
          "velocity": 80
        },
        {
          "channel": 1,
          "note": 67,
          "startTick": 42480,
          "durationTicks": 227,
          "velocity": 80
        },
        {
          "channel": 1,
          "note": 52,
          "startTick": 42480,
          "durationTicks": 227,
          "velocity": 80
        },
        {
          "channel": 10,
          "note": 42,
          "startTick": 42720,
          "durationTicks": 192,
          "velocity": 52
        },
        {
          "channel": 10,
          "note": 38,
          "startTick": 42720,
          "durationTicks": 216,
          "velocity": 90
        },
        {
          "channel": 1,
          "note": 57,
          "startTick": 42720,
          "durationTicks": 227,
          "velocity": 80
        },
        {
          "channel": 1,
          "note": 66,
          "startTick": 42720,
          "durationTicks": 227,
          "velocity": 80
        },
        {
          "channel": 1,
          "note": 47,
          "startTick": 42720,
          "durationTicks": 227,
          "velocity": 80
        },
        {
          "channel": 3,
          "note": 40,
          "startTick": 42720,
          "durationTicks": 336,
          "velocity": 70
        },
        {
          "channel": 1,
          "note": 57,
          "startTick": 42960,
          "durationTicks": 227,
          "velocity": 80
        },
        {
          "channel": 1,
          "note": 66,
          "startTick": 42960,
          "durationTicks": 227,
          "velocity": 80
        },
        {
          "channel": 1,
          "note": 52,
          "startTick": 42960,
          "durationTicks": 227,
          "velocity": 80
        },
        {
          "channel": 10,
          "note": 42,
          "startTick": 43200,
          "durationTicks": 192,
          "velocity": 52
        },
        {
          "channel": 10,
          "note": 36,
          "startTick": 43200,
          "durationTicks": 216,
          "velocity": 95
        },
        {
          "channel": 1,
          "note": 40,
          "startTick": 43200,
          "durationTicks": 227,
          "velocity": 80
        },
        {
          "channel": 3,
          "note": 40,
          "startTick": 43200,
          "durationTicks": 336,
          "velocity": 70
        },
        {
          "channel": 2,
          "note": 52,
          "startTick": 43200,
          "durationTicks": 432,
          "velocity": 60
        },
        {
          "channel": 2,
          "note": 55,
          "startTick": 43200,
          "durationTicks": 432,
          "velocity": 60
        },
        {
          "channel": 2,
          "note": 59,
          "startTick": 43200,
          "durationTicks": 432,
          "velocity": 60
        },
        {
          "channel": 1,
          "note": 52,
          "startTick": 43440,
          "durationTicks": 227,
          "velocity": 80
        },
        {
          "channel": 10,
          "note": 42,
          "startTick": 43680,
          "durationTicks": 192,
          "velocity": 52
        },
        {
          "channel": 10,
          "note": 38,
          "startTick": 43680,
          "durationTicks": 216,
          "velocity": 90
        },
        {
          "channel": 1,
          "note": 47,
          "startTick": 43680,
          "durationTicks": 227,
          "velocity": 80
        },
        {
          "channel": 3,
          "note": 40,
          "startTick": 43680,
          "durationTicks": 336,
          "velocity": 70
        },
        {
          "channel": 1,
          "note": 55,
          "startTick": 43200,
          "durationTicks": 911,
          "velocity": 80
        },
        {
          "channel": 1,
          "note": 64,
          "startTick": 43200,
          "durationTicks": 911,
          "velocity": 80
        },
        {
          "channel": 1,
          "note": 52,
          "startTick": 43920,
          "durationTicks": 227,
          "velocity": 80
        },
        {
          "channel": 10,
          "note": 42,
          "startTick": 44160,
          "durationTicks": 192,
          "velocity": 52
        },
        {
          "channel": 10,
          "note": 36,
          "startTick": 44160,
          "durationTicks": 216,
          "velocity": 95
        },
        {
          "channel": 1,
          "note": 57,
          "startTick": 44160,
          "durationTicks": 227,
          "velocity": 80
        },
        {
          "channel": 1,
          "note": 61,
          "startTick": 44160,
          "durationTicks": 227,
          "velocity": 80
        },
        {
          "channel": 1,
          "note": 67,
          "startTick": 44160,
          "durationTicks": 227,
          "velocity": 80
        },
        {
          "channel": 1,
          "note": 45,
          "startTick": 44160,
          "durationTicks": 227,
          "velocity": 80
        },
        {
          "channel": 3,
          "note": 37,
          "startTick": 44160,
          "durationTicks": 336,
          "velocity": 70
        },
        {
          "channel": 2,
          "note": 49,
          "startTick": 44160,
          "durationTicks": 432,
          "velocity": 60
        },
        {
          "channel": 2,
          "note": 52,
          "startTick": 44160,
          "durationTicks": 432,
          "velocity": 60
        },
        {
          "channel": 2,
          "note": 56,
          "startTick": 44160,
          "durationTicks": 432,
          "velocity": 60
        },
        {
          "channel": 1,
          "note": 57,
          "startTick": 44400,
          "durationTicks": 227,
          "velocity": 80
        },
        {
          "channel": 1,
          "note": 61,
          "startTick": 44400,
          "durationTicks": 227,
          "velocity": 80
        },
        {
          "channel": 1,
          "note": 67,
          "startTick": 44400,
          "durationTicks": 227,
          "velocity": 80
        },
        {
          "channel": 1,
          "note": 52,
          "startTick": 44400,
          "durationTicks": 227,
          "velocity": 80
        },
        {
          "channel": 10,
          "note": 42,
          "startTick": 44640,
          "durationTicks": 192,
          "velocity": 52
        },
        {
          "channel": 10,
          "note": 38,
          "startTick": 44640,
          "durationTicks": 216,
          "velocity": 90
        },
        {
          "channel": 1,
          "note": 57,
          "startTick": 44640,
          "durationTicks": 227,
          "velocity": 80
        },
        {
          "channel": 1,
          "note": 61,
          "startTick": 44640,
          "durationTicks": 227,
          "velocity": 80
        },
        {
          "channel": 1,
          "note": 66,
          "startTick": 44640,
          "durationTicks": 227,
          "velocity": 80
        },
        {
          "channel": 1,
          "note": 49,
          "startTick": 44640,
          "durationTicks": 227,
          "velocity": 80
        },
        {
          "channel": 3,
          "note": 37,
          "startTick": 44640,
          "durationTicks": 336,
          "velocity": 70
        },
        {
          "channel": 1,
          "note": 57,
          "startTick": 44880,
          "durationTicks": 227,
          "velocity": 80
        },
        {
          "channel": 1,
          "note": 61,
          "startTick": 44880,
          "durationTicks": 227,
          "velocity": 80
        },
        {
          "channel": 1,
          "note": 66,
          "startTick": 44880,
          "durationTicks": 227,
          "velocity": 80
        },
        {
          "channel": 1,
          "note": 52,
          "startTick": 44880,
          "durationTicks": 227,
          "velocity": 80
        },
        {
          "channel": 10,
          "note": 42,
          "startTick": 45120,
          "durationTicks": 192,
          "velocity": 52
        },
        {
          "channel": 10,
          "note": 36,
          "startTick": 45120,
          "durationTicks": 216,
          "velocity": 95
        },
        {
          "channel": 1,
          "note": 57,
          "startTick": 45120,
          "durationTicks": 227,
          "velocity": 80
        },
        {
          "channel": 1,
          "note": 61,
          "startTick": 45120,
          "durationTicks": 227,
          "velocity": 80
        },
        {
          "channel": 1,
          "note": 64,
          "startTick": 45120,
          "durationTicks": 227,
          "velocity": 80
        },
        {
          "channel": 1,
          "note": 45,
          "startTick": 45120,
          "durationTicks": 227,
          "velocity": 80
        },
        {
          "channel": 3,
          "note": 37,
          "startTick": 45120,
          "durationTicks": 336,
          "velocity": 70
        },
        {
          "channel": 2,
          "note": 49,
          "startTick": 45120,
          "durationTicks": 432,
          "velocity": 60
        },
        {
          "channel": 2,
          "note": 52,
          "startTick": 45120,
          "durationTicks": 432,
          "velocity": 60
        },
        {
          "channel": 2,
          "note": 56,
          "startTick": 45120,
          "durationTicks": 432,
          "velocity": 60
        },
        {
          "channel": 1,
          "note": 57,
          "startTick": 45360,
          "durationTicks": 227,
          "velocity": 80
        },
        {
          "channel": 1,
          "note": 61,
          "startTick": 45360,
          "durationTicks": 227,
          "velocity": 80
        },
        {
          "channel": 1,
          "note": 64,
          "startTick": 45360,
          "durationTicks": 227,
          "velocity": 80
        },
        {
          "channel": 1,
          "note": 52,
          "startTick": 45360,
          "durationTicks": 227,
          "velocity": 80
        },
        {
          "channel": 10,
          "note": 42,
          "startTick": 45600,
          "durationTicks": 192,
          "velocity": 52
        },
        {
          "channel": 10,
          "note": 38,
          "startTick": 45600,
          "durationTicks": 216,
          "velocity": 90
        },
        {
          "channel": 1,
          "note": 61,
          "startTick": 45600,
          "durationTicks": 227,
          "velocity": 80
        },
        {
          "channel": 1,
          "note": 71,
          "startTick": 45600,
          "durationTicks": 227,
          "velocity": 80
        },
        {
          "channel": 1,
          "note": 49,
          "startTick": 45600,
          "durationTicks": 227,
          "velocity": 80
        },
        {
          "channel": 3,
          "note": 37,
          "startTick": 45600,
          "durationTicks": 336,
          "velocity": 70
        },
        {
          "channel": 1,
          "note": 61,
          "startTick": 45840,
          "durationTicks": 227,
          "velocity": 80
        },
        {
          "channel": 1,
          "note": 71,
          "startTick": 45840,
          "durationTicks": 227,
          "velocity": 80
        },
        {
          "channel": 1,
          "note": 52,
          "startTick": 45840,
          "durationTicks": 227,
          "velocity": 80
        },
        {
          "channel": 10,
          "note": 42,
          "startTick": 46080,
          "durationTicks": 192,
          "velocity": 52
        },
        {
          "channel": 10,
          "note": 36,
          "startTick": 46080,
          "durationTicks": 216,
          "velocity": 95
        },
        {
          "channel": 1,
          "note": 62,
          "startTick": 46080,
          "durationTicks": 227,
          "velocity": 80
        },
        {
          "channel": 1,
          "note": 69,
          "startTick": 46080,
          "durationTicks": 227,
          "velocity": 80
        },
        {
          "channel": 1,
          "note": 38,
          "startTick": 46080,
          "durationTicks": 227,
          "velocity": 80
        },
        {
          "channel": 3,
          "note": 38,
          "startTick": 46080,
          "durationTicks": 336,
          "velocity": 70
        },
        {
          "channel": 2,
          "note": 50,
          "startTick": 46080,
          "durationTicks": 432,
          "velocity": 60
        },
        {
          "channel": 2,
          "note": 54,
          "startTick": 46080,
          "durationTicks": 432,
          "velocity": 60
        },
        {
          "channel": 2,
          "note": 57,
          "startTick": 46080,
          "durationTicks": 432,
          "velocity": 60
        },
        {
          "channel": 1,
          "note": 67,
          "startTick": 46320,
          "durationTicks": 227,
          "velocity": 80
        },
        {
          "channel": 1,
          "note": 50,
          "startTick": 46320,
          "durationTicks": 227,
          "velocity": 80
        },
        {
          "channel": 10,
          "note": 42,
          "startTick": 46560,
          "durationTicks": 192,
          "velocity": 52
        },
        {
          "channel": 10,
          "note": 38,
          "startTick": 46560,
          "durationTicks": 216,
          "velocity": 90
        },
        {
          "channel": 1,
          "note": 66,
          "startTick": 46560,
          "durationTicks": 227,
          "velocity": 80
        },
        {
          "channel": 1,
          "note": 45,
          "startTick": 46560,
          "durationTicks": 227,
          "velocity": 80
        },
        {
          "channel": 3,
          "note": 38,
          "startTick": 46560,
          "durationTicks": 336,
          "velocity": 70
        },
        {
          "channel": 1,
          "note": 64,
          "startTick": 46800,
          "durationTicks": 227,
          "velocity": 80
        },
        {
          "channel": 1,
          "note": 50,
          "startTick": 46800,
          "durationTicks": 227,
          "velocity": 80
        },
        {
          "channel": 10,
          "note": 42,
          "startTick": 47040,
          "durationTicks": 192,
          "velocity": 52
        },
        {
          "channel": 10,
          "note": 36,
          "startTick": 47040,
          "durationTicks": 216,
          "velocity": 95
        },
        {
          "channel": 1,
          "note": 38,
          "startTick": 47040,
          "durationTicks": 227,
          "velocity": 80
        },
        {
          "channel": 3,
          "note": 38,
          "startTick": 47040,
          "durationTicks": 336,
          "velocity": 70
        },
        {
          "channel": 2,
          "note": 50,
          "startTick": 47040,
          "durationTicks": 432,
          "velocity": 60
        },
        {
          "channel": 2,
          "note": 54,
          "startTick": 47040,
          "durationTicks": 432,
          "velocity": 60
        },
        {
          "channel": 2,
          "note": 57,
          "startTick": 47040,
          "durationTicks": 432,
          "velocity": 60
        },
        {
          "channel": 1,
          "note": 62,
          "startTick": 47040,
          "durationTicks": 455,
          "velocity": 80
        },
        {
          "channel": 1,
          "note": 50,
          "startTick": 47280,
          "durationTicks": 227,
          "velocity": 80
        },
        {
          "channel": 10,
          "note": 42,
          "startTick": 47520,
          "durationTicks": 192,
          "velocity": 52
        },
        {
          "channel": 10,
          "note": 38,
          "startTick": 47520,
          "durationTicks": 216,
          "velocity": 90
        },
        {
          "channel": 1,
          "note": 62,
          "startTick": 47520,
          "durationTicks": 227,
          "velocity": 80
        },
        {
          "channel": 1,
          "note": 45,
          "startTick": 47520,
          "durationTicks": 227,
          "velocity": 80
        },
        {
          "channel": 3,
          "note": 38,
          "startTick": 47520,
          "durationTicks": 336,
          "velocity": 70
        },
        {
          "channel": 1,
          "note": 64,
          "startTick": 47760,
          "durationTicks": 227,
          "velocity": 80
        },
        {
          "channel": 1,
          "note": 50,
          "startTick": 47760,
          "durationTicks": 227,
          "velocity": 80
        },
        {
          "channel": 10,
          "note": 42,
          "startTick": 48000,
          "durationTicks": 192,
          "velocity": 52
        },
        {
          "channel": 10,
          "note": 36,
          "startTick": 48000,
          "durationTicks": 216,
          "velocity": 95
        },
        {
          "channel": 1,
          "note": 38,
          "startTick": 48000,
          "durationTicks": 227,
          "velocity": 80
        },
        {
          "channel": 3,
          "note": 38,
          "startTick": 48000,
          "durationTicks": 336,
          "velocity": 70
        },
        {
          "channel": 2,
          "note": 50,
          "startTick": 48000,
          "durationTicks": 432,
          "velocity": 60
        },
        {
          "channel": 2,
          "note": 54,
          "startTick": 48000,
          "durationTicks": 432,
          "velocity": 60
        },
        {
          "channel": 2,
          "note": 57,
          "startTick": 48000,
          "durationTicks": 432,
          "velocity": 60
        },
        {
          "channel": 1,
          "note": 50,
          "startTick": 48240,
          "durationTicks": 227,
          "velocity": 80
        },
        {
          "channel": 10,
          "note": 42,
          "startTick": 48480,
          "durationTicks": 192,
          "velocity": 52
        },
        {
          "channel": 1,
          "note": 57,
          "startTick": 48000,
          "durationTicks": 683,
          "velocity": 80
        },
        {
          "channel": 1,
          "note": 62,
          "startTick": 48000,
          "durationTicks": 683,
          "velocity": 80
        },
        {
          "channel": 1,
          "note": 66,
          "startTick": 48000,
          "durationTicks": 683,
          "velocity": 80
        },
        {
          "channel": 10,
          "note": 38,
          "startTick": 48480,
          "durationTicks": 216,
          "velocity": 90
        },
        {
          "channel": 1,
          "note": 45,
          "startTick": 48480,
          "durationTicks": 227,
          "velocity": 80
        },
        {
          "channel": 3,
          "note": 38,
          "startTick": 48480,
          "durationTicks": 336,
          "velocity": 70
        },
        {
          "channel": 1,
          "note": 57,
          "startTick": 48720,
          "durationTicks": 227,
          "velocity": 80
        },
        {
          "channel": 1,
          "note": 66,
          "startTick": 48720,
          "durationTicks": 227,
          "velocity": 80
        },
        {
          "channel": 1,
          "note": 50,
          "startTick": 48720,
          "durationTicks": 227,
          "velocity": 80
        },
        {
          "channel": 10,
          "note": 42,
          "startTick": 48960,
          "durationTicks": 192,
          "velocity": 52
        },
        {
          "channel": 10,
          "note": 36,
          "startTick": 48960,
          "durationTicks": 216,
          "velocity": 95
        },
        {
          "channel": 1,
          "note": 38,
          "startTick": 48960,
          "durationTicks": 227,
          "velocity": 80
        },
        {
          "channel": 3,
          "note": 38,
          "startTick": 48960,
          "durationTicks": 336,
          "velocity": 70
        },
        {
          "channel": 2,
          "note": 50,
          "startTick": 48960,
          "durationTicks": 432,
          "velocity": 60
        },
        {
          "channel": 2,
          "note": 54,
          "startTick": 48960,
          "durationTicks": 432,
          "velocity": 60
        },
        {
          "channel": 2,
          "note": 57,
          "startTick": 48960,
          "durationTicks": 432,
          "velocity": 60
        },
        {
          "channel": 1,
          "note": 66,
          "startTick": 48960,
          "durationTicks": 455,
          "velocity": 80
        },
        {
          "channel": 1,
          "note": 50,
          "startTick": 49200,
          "durationTicks": 227,
          "velocity": 80
        },
        {
          "channel": 10,
          "note": 42,
          "startTick": 49440,
          "durationTicks": 192,
          "velocity": 52
        },
        {
          "channel": 10,
          "note": 38,
          "startTick": 49440,
          "durationTicks": 216,
          "velocity": 90
        },
        {
          "channel": 1,
          "note": 57,
          "startTick": 49440,
          "durationTicks": 227,
          "velocity": 80
        },
        {
          "channel": 1,
          "note": 66,
          "startTick": 49440,
          "durationTicks": 227,
          "velocity": 80
        },
        {
          "channel": 1,
          "note": 45,
          "startTick": 49440,
          "durationTicks": 227,
          "velocity": 80
        },
        {
          "channel": 3,
          "note": 38,
          "startTick": 49440,
          "durationTicks": 336,
          "velocity": 70
        },
        {
          "channel": 1,
          "note": 62,
          "startTick": 49680,
          "durationTicks": 227,
          "velocity": 80
        },
        {
          "channel": 1,
          "note": 50,
          "startTick": 49680,
          "durationTicks": 227,
          "velocity": 80
        },
        {
          "channel": 10,
          "note": 42,
          "startTick": 49920,
          "durationTicks": 192,
          "velocity": 52
        },
        {
          "channel": 10,
          "note": 36,
          "startTick": 49920,
          "durationTicks": 216,
          "velocity": 95
        },
        {
          "channel": 1,
          "note": 59,
          "startTick": 49920,
          "durationTicks": 227,
          "velocity": 80
        },
        {
          "channel": 1,
          "note": 62,
          "startTick": 49920,
          "durationTicks": 227,
          "velocity": 80
        },
        {
          "channel": 1,
          "note": 67,
          "startTick": 49920,
          "durationTicks": 227,
          "velocity": 80
        },
        {
          "channel": 1,
          "note": 40,
          "startTick": 49920,
          "durationTicks": 227,
          "velocity": 80
        },
        {
          "channel": 3,
          "note": 40,
          "startTick": 49920,
          "durationTicks": 336,
          "velocity": 70
        },
        {
          "channel": 2,
          "note": 52,
          "startTick": 49920,
          "durationTicks": 432,
          "velocity": 60
        },
        {
          "channel": 2,
          "note": 55,
          "startTick": 49920,
          "durationTicks": 432,
          "velocity": 60
        },
        {
          "channel": 2,
          "note": 59,
          "startTick": 49920,
          "durationTicks": 432,
          "velocity": 60
        },
        {
          "channel": 1,
          "note": 59,
          "startTick": 50160,
          "durationTicks": 227,
          "velocity": 80
        },
        {
          "channel": 1,
          "note": 62,
          "startTick": 50160,
          "durationTicks": 227,
          "velocity": 80
        },
        {
          "channel": 1,
          "note": 67,
          "startTick": 50160,
          "durationTicks": 227,
          "velocity": 80
        },
        {
          "channel": 1,
          "note": 52,
          "startTick": 50160,
          "durationTicks": 227,
          "velocity": 80
        },
        {
          "channel": 10,
          "note": 42,
          "startTick": 50400,
          "durationTicks": 192,
          "velocity": 52
        },
        {
          "channel": 10,
          "note": 38,
          "startTick": 50400,
          "durationTicks": 216,
          "velocity": 90
        },
        {
          "channel": 1,
          "note": 59,
          "startTick": 50400,
          "durationTicks": 227,
          "velocity": 80
        },
        {
          "channel": 1,
          "note": 62,
          "startTick": 50400,
          "durationTicks": 227,
          "velocity": 80
        },
        {
          "channel": 1,
          "note": 67,
          "startTick": 50400,
          "durationTicks": 227,
          "velocity": 80
        },
        {
          "channel": 1,
          "note": 47,
          "startTick": 50400,
          "durationTicks": 227,
          "velocity": 80
        },
        {
          "channel": 3,
          "note": 40,
          "startTick": 50400,
          "durationTicks": 336,
          "velocity": 70
        },
        {
          "channel": 1,
          "note": 57,
          "startTick": 50640,
          "durationTicks": 227,
          "velocity": 80
        },
        {
          "channel": 1,
          "note": 66,
          "startTick": 50640,
          "durationTicks": 227,
          "velocity": 80
        },
        {
          "channel": 1,
          "note": 52,
          "startTick": 50640,
          "durationTicks": 227,
          "velocity": 80
        },
        {
          "channel": 10,
          "note": 42,
          "startTick": 50880,
          "durationTicks": 192,
          "velocity": 52
        },
        {
          "channel": 10,
          "note": 36,
          "startTick": 50880,
          "durationTicks": 216,
          "velocity": 95
        },
        {
          "channel": 1,
          "note": 40,
          "startTick": 50880,
          "durationTicks": 227,
          "velocity": 80
        },
        {
          "channel": 3,
          "note": 40,
          "startTick": 50880,
          "durationTicks": 336,
          "velocity": 70
        },
        {
          "channel": 2,
          "note": 52,
          "startTick": 50880,
          "durationTicks": 432,
          "velocity": 60
        },
        {
          "channel": 2,
          "note": 55,
          "startTick": 50880,
          "durationTicks": 432,
          "velocity": 60
        },
        {
          "channel": 2,
          "note": 59,
          "startTick": 50880,
          "durationTicks": 432,
          "velocity": 60
        },
        {
          "channel": 1,
          "note": 55,
          "startTick": 50880,
          "durationTicks": 455,
          "velocity": 80
        },
        {
          "channel": 1,
          "note": 59,
          "startTick": 50880,
          "durationTicks": 455,
          "velocity": 80
        },
        {
          "channel": 1,
          "note": 64,
          "startTick": 50880,
          "durationTicks": 455,
          "velocity": 80
        },
        {
          "channel": 1,
          "note": 52,
          "startTick": 51120,
          "durationTicks": 227,
          "velocity": 80
        },
        {
          "channel": 10,
          "note": 42,
          "startTick": 51360,
          "durationTicks": 192,
          "velocity": 52
        },
        {
          "channel": 10,
          "note": 38,
          "startTick": 51360,
          "durationTicks": 216,
          "velocity": 90
        },
        {
          "channel": 1,
          "note": 59,
          "startTick": 51360,
          "durationTicks": 227,
          "velocity": 80
        },
        {
          "channel": 1,
          "note": 64,
          "startTick": 51360,
          "durationTicks": 227,
          "velocity": 80
        },
        {
          "channel": 1,
          "note": 47,
          "startTick": 51360,
          "durationTicks": 227,
          "velocity": 80
        },
        {
          "channel": 3,
          "note": 40,
          "startTick": 51360,
          "durationTicks": 336,
          "velocity": 70
        },
        {
          "channel": 1,
          "note": 66,
          "startTick": 51600,
          "durationTicks": 227,
          "velocity": 80
        },
        {
          "channel": 1,
          "note": 52,
          "startTick": 51600,
          "durationTicks": 227,
          "velocity": 80
        },
        {
          "channel": 10,
          "note": 42,
          "startTick": 51840,
          "durationTicks": 192,
          "velocity": 52
        },
        {
          "channel": 10,
          "note": 36,
          "startTick": 51840,
          "durationTicks": 216,
          "velocity": 95
        },
        {
          "channel": 1,
          "note": 33,
          "startTick": 51840,
          "durationTicks": 227,
          "velocity": 80
        },
        {
          "channel": 3,
          "note": 45,
          "startTick": 51840,
          "durationTicks": 336,
          "velocity": 70
        },
        {
          "channel": 2,
          "note": 57,
          "startTick": 51840,
          "durationTicks": 432,
          "velocity": 60
        },
        {
          "channel": 2,
          "note": 61,
          "startTick": 51840,
          "durationTicks": 432,
          "velocity": 60
        },
        {
          "channel": 2,
          "note": 64,
          "startTick": 51840,
          "durationTicks": 432,
          "velocity": 60
        },
        {
          "channel": 1,
          "note": 45,
          "startTick": 52080,
          "durationTicks": 227,
          "velocity": 80
        },
        {
          "channel": 10,
          "note": 42,
          "startTick": 52320,
          "durationTicks": 192,
          "velocity": 52
        },
        {
          "channel": 1,
          "note": 57,
          "startTick": 51840,
          "durationTicks": 683,
          "velocity": 80
        },
        {
          "channel": 1,
          "note": 61,
          "startTick": 51840,
          "durationTicks": 683,
          "velocity": 80
        },
        {
          "channel": 1,
          "note": 67,
          "startTick": 51840,
          "durationTicks": 683,
          "velocity": 80
        },
        {
          "channel": 10,
          "note": 38,
          "startTick": 52320,
          "durationTicks": 216,
          "velocity": 90
        },
        {
          "channel": 1,
          "note": 40,
          "startTick": 52320,
          "durationTicks": 227,
          "velocity": 80
        },
        {
          "channel": 3,
          "note": 45,
          "startTick": 52320,
          "durationTicks": 336,
          "velocity": 70
        },
        {
          "channel": 1,
          "note": 57,
          "startTick": 52560,
          "durationTicks": 227,
          "velocity": 80
        },
        {
          "channel": 1,
          "note": 61,
          "startTick": 52560,
          "durationTicks": 227,
          "velocity": 80
        },
        {
          "channel": 1,
          "note": 67,
          "startTick": 52560,
          "durationTicks": 227,
          "velocity": 80
        },
        {
          "channel": 1,
          "note": 45,
          "startTick": 52560,
          "durationTicks": 227,
          "velocity": 80
        },
        {
          "channel": 10,
          "note": 42,
          "startTick": 52800,
          "durationTicks": 192,
          "velocity": 52
        },
        {
          "channel": 10,
          "note": 36,
          "startTick": 52800,
          "durationTicks": 216,
          "velocity": 95
        },
        {
          "channel": 1,
          "note": 33,
          "startTick": 52800,
          "durationTicks": 227,
          "velocity": 80
        },
        {
          "channel": 3,
          "note": 45,
          "startTick": 52800,
          "durationTicks": 336,
          "velocity": 70
        },
        {
          "channel": 2,
          "note": 57,
          "startTick": 52800,
          "durationTicks": 432,
          "velocity": 60
        },
        {
          "channel": 2,
          "note": 61,
          "startTick": 52800,
          "durationTicks": 432,
          "velocity": 60
        },
        {
          "channel": 2,
          "note": 64,
          "startTick": 52800,
          "durationTicks": 432,
          "velocity": 60
        },
        {
          "channel": 1,
          "note": 57,
          "startTick": 52800,
          "durationTicks": 455,
          "velocity": 80
        },
        {
          "channel": 1,
          "note": 61,
          "startTick": 52800,
          "durationTicks": 455,
          "velocity": 80
        },
        {
          "channel": 1,
          "note": 67,
          "startTick": 52800,
          "durationTicks": 455,
          "velocity": 80
        },
        {
          "channel": 1,
          "note": 45,
          "startTick": 53040,
          "durationTicks": 227,
          "velocity": 80
        },
        {
          "channel": 10,
          "note": 42,
          "startTick": 53280,
          "durationTicks": 192,
          "velocity": 52
        },
        {
          "channel": 10,
          "note": 38,
          "startTick": 53280,
          "durationTicks": 216,
          "velocity": 90
        },
        {
          "channel": 1,
          "note": 57,
          "startTick": 53280,
          "durationTicks": 227,
          "velocity": 80
        },
        {
          "channel": 1,
          "note": 61,
          "startTick": 53280,
          "durationTicks": 227,
          "velocity": 80
        },
        {
          "channel": 1,
          "note": 67,
          "startTick": 53280,
          "durationTicks": 227,
          "velocity": 80
        },
        {
          "channel": 1,
          "note": 40,
          "startTick": 53280,
          "durationTicks": 227,
          "velocity": 80
        },
        {
          "channel": 3,
          "note": 45,
          "startTick": 53280,
          "durationTicks": 336,
          "velocity": 70
        },
        {
          "channel": 1,
          "note": 64,
          "startTick": 53520,
          "durationTicks": 227,
          "velocity": 80
        },
        {
          "channel": 1,
          "note": 45,
          "startTick": 53520,
          "durationTicks": 227,
          "velocity": 80
        },
        {
          "channel": 10,
          "note": 42,
          "startTick": 53760,
          "durationTicks": 192,
          "velocity": 52
        },
        {
          "channel": 10,
          "note": 36,
          "startTick": 53760,
          "durationTicks": 216,
          "velocity": 95
        },
        {
          "channel": 1,
          "note": 62,
          "startTick": 53760,
          "durationTicks": 227,
          "velocity": 80
        },
        {
          "channel": 1,
          "note": 66,
          "startTick": 53760,
          "durationTicks": 227,
          "velocity": 80
        },
        {
          "channel": 1,
          "note": 69,
          "startTick": 53760,
          "durationTicks": 227,
          "velocity": 80
        },
        {
          "channel": 1,
          "note": 38,
          "startTick": 53760,
          "durationTicks": 227,
          "velocity": 80
        },
        {
          "channel": 3,
          "note": 38,
          "startTick": 53760,
          "durationTicks": 336,
          "velocity": 70
        },
        {
          "channel": 2,
          "note": 50,
          "startTick": 53760,
          "durationTicks": 432,
          "velocity": 60
        },
        {
          "channel": 2,
          "note": 54,
          "startTick": 53760,
          "durationTicks": 432,
          "velocity": 60
        },
        {
          "channel": 2,
          "note": 57,
          "startTick": 53760,
          "durationTicks": 432,
          "velocity": 60
        },
        {
          "channel": 1,
          "note": 62,
          "startTick": 54000,
          "durationTicks": 227,
          "velocity": 80
        },
        {
          "channel": 1,
          "note": 66,
          "startTick": 54000,
          "durationTicks": 227,
          "velocity": 80
        },
        {
          "channel": 1,
          "note": 69,
          "startTick": 54000,
          "durationTicks": 227,
          "velocity": 80
        },
        {
          "channel": 1,
          "note": 50,
          "startTick": 54000,
          "durationTicks": 227,
          "velocity": 80
        },
        {
          "channel": 10,
          "note": 42,
          "startTick": 54240,
          "durationTicks": 192,
          "velocity": 52
        },
        {
          "channel": 10,
          "note": 38,
          "startTick": 54240,
          "durationTicks": 216,
          "velocity": 90
        },
        {
          "channel": 1,
          "note": 62,
          "startTick": 54240,
          "durationTicks": 227,
          "velocity": 80
        },
        {
          "channel": 1,
          "note": 66,
          "startTick": 54240,
          "durationTicks": 227,
          "velocity": 80
        },
        {
          "channel": 1,
          "note": 69,
          "startTick": 54240,
          "durationTicks": 227,
          "velocity": 80
        },
        {
          "channel": 1,
          "note": 45,
          "startTick": 54240,
          "durationTicks": 227,
          "velocity": 80
        },
        {
          "channel": 3,
          "note": 38,
          "startTick": 54240,
          "durationTicks": 336,
          "velocity": 70
        },
        {
          "channel": 1,
          "note": 64,
          "startTick": 54480,
          "durationTicks": 227,
          "velocity": 80
        },
        {
          "channel": 1,
          "note": 67,
          "startTick": 54480,
          "durationTicks": 227,
          "velocity": 80
        },
        {
          "channel": 1,
          "note": 50,
          "startTick": 54480,
          "durationTicks": 227,
          "velocity": 80
        },
        {
          "channel": 10,
          "note": 42,
          "startTick": 54720,
          "durationTicks": 192,
          "velocity": 52
        },
        {
          "channel": 10,
          "note": 36,
          "startTick": 54720,
          "durationTicks": 216,
          "velocity": 95
        },
        {
          "channel": 1,
          "note": 38,
          "startTick": 54720,
          "durationTicks": 227,
          "velocity": 80
        },
        {
          "channel": 3,
          "note": 38,
          "startTick": 54720,
          "durationTicks": 336,
          "velocity": 70
        },
        {
          "channel": 2,
          "note": 50,
          "startTick": 54720,
          "durationTicks": 432,
          "velocity": 60
        },
        {
          "channel": 2,
          "note": 54,
          "startTick": 54720,
          "durationTicks": 432,
          "velocity": 60
        },
        {
          "channel": 2,
          "note": 57,
          "startTick": 54720,
          "durationTicks": 432,
          "velocity": 60
        },
        {
          "channel": 1,
          "note": 50,
          "startTick": 54960,
          "durationTicks": 227,
          "velocity": 80
        },
        {
          "channel": 10,
          "note": 42,
          "startTick": 55200,
          "durationTicks": 192,
          "velocity": 52
        },
        {
          "channel": 10,
          "note": 38,
          "startTick": 55200,
          "durationTicks": 216,
          "velocity": 90
        },
        {
          "channel": 1,
          "note": 45,
          "startTick": 55200,
          "durationTicks": 227,
          "velocity": 80
        },
        {
          "channel": 3,
          "note": 38,
          "startTick": 55200,
          "durationTicks": 336,
          "velocity": 70
        },
        {
          "channel": 1,
          "note": 62,
          "startTick": 54720,
          "durationTicks": 911,
          "velocity": 80
        },
        {
          "channel": 1,
          "note": 66,
          "startTick": 54720,
          "durationTicks": 911,
          "velocity": 80
        },
        {
          "channel": 1,
          "note": 50,
          "startTick": 55440,
          "durationTicks": 227,
          "velocity": 80
        },
        {
          "channel": 10,
          "note": 42,
          "startTick": 55680,
          "durationTicks": 192,
          "velocity": 52
        },
        {
          "channel": 10,
          "note": 36,
          "startTick": 55680,
          "durationTicks": 216,
          "velocity": 95
        },
        {
          "channel": 1,
          "note": 62,
          "startTick": 55680,
          "durationTicks": 239,
          "velocity": 80
        },
        {
          "channel": 1,
          "note": 69,
          "startTick": 55680,
          "durationTicks": 239,
          "velocity": 80
        },
        {
          "channel": 1,
          "note": 38,
          "startTick": 55680,
          "durationTicks": 239,
          "velocity": 80
        },
        {
          "channel": 1,
          "note": 45,
          "startTick": 55680,
          "durationTicks": 239,
          "velocity": 80
        },
        {
          "channel": 1,
          "note": 50,
          "startTick": 55680,
          "durationTicks": 239,
          "velocity": 80
        },
        {
          "channel": 3,
          "note": 38,
          "startTick": 55680,
          "durationTicks": 336,
          "velocity": 70
        },
        {
          "channel": 2,
          "note": 50,
          "startTick": 55680,
          "durationTicks": 432,
          "velocity": 60
        },
        {
          "channel": 2,
          "note": 54,
          "startTick": 55680,
          "durationTicks": 432,
          "velocity": 60
        },
        {
          "channel": 2,
          "note": 57,
          "startTick": 55680,
          "durationTicks": 432,
          "velocity": 60
        },
        {
          "channel": 10,
          "note": 42,
          "startTick": 56160,
          "durationTicks": 192,
          "velocity": 52
        },
        {
          "channel": 10,
          "note": 38,
          "startTick": 56160,
          "durationTicks": 216,
          "velocity": 90
        },
        {
          "channel": 1,
          "note": 62,
          "startTick": 56160,
          "durationTicks": 239,
          "velocity": 80
        },
        {
          "channel": 1,
          "note": 66,
          "startTick": 56160,
          "durationTicks": 239,
          "velocity": 80
        },
        {
          "channel": 1,
          "note": 38,
          "startTick": 56160,
          "durationTicks": 239,
          "velocity": 80
        },
        {
          "channel": 1,
          "note": 45,
          "startTick": 56160,
          "durationTicks": 239,
          "velocity": 80
        },
        {
          "channel": 1,
          "note": 50,
          "startTick": 56160,
          "durationTicks": 239,
          "velocity": 80
        },
        {
          "channel": 3,
          "note": 38,
          "startTick": 56160,
          "durationTicks": 336,
          "velocity": 70
        },
        {
          "channel": 1,
          "note": 62,
          "startTick": 56640,
          "durationTicks": 119,
          "velocity": 80
        },
        {
          "channel": 1,
          "note": 69,
          "startTick": 56640,
          "durationTicks": 119,
          "velocity": 80
        },
        {
          "channel": 1,
          "note": 38,
          "startTick": 56640,
          "durationTicks": 119,
          "velocity": 80
        },
        {
          "channel": 1,
          "note": 45,
          "startTick": 56640,
          "durationTicks": 119,
          "velocity": 80
        },
        {
          "channel": 1,
          "note": 50,
          "startTick": 56640,
          "durationTicks": 119,
          "velocity": 80
        },
        {
          "channel": 10,
          "note": 42,
          "startTick": 56640,
          "durationTicks": 192,
          "velocity": 52
        },
        {
          "channel": 10,
          "note": 36,
          "startTick": 56640,
          "durationTicks": 216,
          "velocity": 95
        },
        {
          "channel": 3,
          "note": 38,
          "startTick": 56640,
          "durationTicks": 336,
          "velocity": 70
        },
        {
          "channel": 2,
          "note": 50,
          "startTick": 56640,
          "durationTicks": 432,
          "velocity": 60
        },
        {
          "channel": 2,
          "note": 54,
          "startTick": 56640,
          "durationTicks": 432,
          "velocity": 60
        },
        {
          "channel": 2,
          "note": 57,
          "startTick": 56640,
          "durationTicks": 432,
          "velocity": 60
        },
        {
          "channel": 1,
          "note": 62,
          "startTick": 56880,
          "durationTicks": 359,
          "velocity": 80
        },
        {
          "channel": 1,
          "note": 66,
          "startTick": 56880,
          "durationTicks": 359,
          "velocity": 80
        },
        {
          "channel": 1,
          "note": 74,
          "startTick": 56880,
          "durationTicks": 359,
          "velocity": 80
        },
        {
          "channel": 1,
          "note": 38,
          "startTick": 56880,
          "durationTicks": 359,
          "velocity": 80
        },
        {
          "channel": 1,
          "note": 45,
          "startTick": 56880,
          "durationTicks": 359,
          "velocity": 80
        },
        {
          "channel": 1,
          "note": 50,
          "startTick": 56880,
          "durationTicks": 359,
          "velocity": 80
        },
        {
          "channel": 10,
          "note": 42,
          "startTick": 57120,
          "durationTicks": 192,
          "velocity": 52
        },
        {
          "channel": 10,
          "note": 38,
          "startTick": 57120,
          "durationTicks": 216,
          "velocity": 90
        },
        {
          "channel": 3,
          "note": 38,
          "startTick": 57120,
          "durationTicks": 336,
          "velocity": 70
        },
        {
          "channel": 10,
          "note": 42,
          "startTick": 57600,
          "durationTicks": 192,
          "velocity": 52
        },
        {
          "channel": 10,
          "note": 36,
          "startTick": 57600,
          "durationTicks": 216,
          "velocity": 95
        },
        {
          "channel": 1,
          "note": 62,
          "startTick": 57600,
          "durationTicks": 239,
          "velocity": 80
        },
        {
          "channel": 1,
          "note": 69,
          "startTick": 57600,
          "durationTicks": 239,
          "velocity": 80
        },
        {
          "channel": 1,
          "note": 38,
          "startTick": 57600,
          "durationTicks": 239,
          "velocity": 80
        },
        {
          "channel": 1,
          "note": 45,
          "startTick": 57600,
          "durationTicks": 239,
          "velocity": 80
        },
        {
          "channel": 1,
          "note": 50,
          "startTick": 57600,
          "durationTicks": 239,
          "velocity": 80
        },
        {
          "channel": 3,
          "note": 38,
          "startTick": 57600,
          "durationTicks": 336,
          "velocity": 70
        },
        {
          "channel": 2,
          "note": 50,
          "startTick": 57600,
          "durationTicks": 432,
          "velocity": 60
        },
        {
          "channel": 2,
          "note": 54,
          "startTick": 57600,
          "durationTicks": 432,
          "velocity": 60
        },
        {
          "channel": 2,
          "note": 57,
          "startTick": 57600,
          "durationTicks": 432,
          "velocity": 60
        },
        {
          "channel": 10,
          "note": 42,
          "startTick": 58080,
          "durationTicks": 192,
          "velocity": 52
        },
        {
          "channel": 10,
          "note": 38,
          "startTick": 58080,
          "durationTicks": 216,
          "velocity": 90
        },
        {
          "channel": 1,
          "note": 62,
          "startTick": 58080,
          "durationTicks": 239,
          "velocity": 80
        },
        {
          "channel": 1,
          "note": 66,
          "startTick": 58080,
          "durationTicks": 239,
          "velocity": 80
        },
        {
          "channel": 1,
          "note": 38,
          "startTick": 58080,
          "durationTicks": 239,
          "velocity": 80
        },
        {
          "channel": 1,
          "note": 45,
          "startTick": 58080,
          "durationTicks": 239,
          "velocity": 80
        },
        {
          "channel": 1,
          "note": 50,
          "startTick": 58080,
          "durationTicks": 239,
          "velocity": 80
        },
        {
          "channel": 3,
          "note": 38,
          "startTick": 58080,
          "durationTicks": 336,
          "velocity": 70
        },
        {
          "channel": 1,
          "note": 62,
          "startTick": 58560,
          "durationTicks": 119,
          "velocity": 80
        },
        {
          "channel": 1,
          "note": 69,
          "startTick": 58560,
          "durationTicks": 119,
          "velocity": 80
        },
        {
          "channel": 1,
          "note": 38,
          "startTick": 58560,
          "durationTicks": 119,
          "velocity": 80
        },
        {
          "channel": 1,
          "note": 45,
          "startTick": 58560,
          "durationTicks": 119,
          "velocity": 80
        },
        {
          "channel": 1,
          "note": 50,
          "startTick": 58560,
          "durationTicks": 119,
          "velocity": 80
        },
        {
          "channel": 10,
          "note": 42,
          "startTick": 58560,
          "durationTicks": 192,
          "velocity": 52
        },
        {
          "channel": 10,
          "note": 36,
          "startTick": 58560,
          "durationTicks": 216,
          "velocity": 95
        },
        {
          "channel": 3,
          "note": 38,
          "startTick": 58560,
          "durationTicks": 336,
          "velocity": 70
        },
        {
          "channel": 2,
          "note": 50,
          "startTick": 58560,
          "durationTicks": 432,
          "velocity": 60
        },
        {
          "channel": 2,
          "note": 54,
          "startTick": 58560,
          "durationTicks": 432,
          "velocity": 60
        },
        {
          "channel": 2,
          "note": 57,
          "startTick": 58560,
          "durationTicks": 432,
          "velocity": 60
        },
        {
          "channel": 1,
          "note": 61,
          "startTick": 58800,
          "durationTicks": 359,
          "velocity": 80
        },
        {
          "channel": 1,
          "note": 64,
          "startTick": 58800,
          "durationTicks": 359,
          "velocity": 80
        },
        {
          "channel": 1,
          "note": 33,
          "startTick": 58800,
          "durationTicks": 359,
          "velocity": 80
        },
        {
          "channel": 1,
          "note": 40,
          "startTick": 58800,
          "durationTicks": 359,
          "velocity": 80
        },
        {
          "channel": 1,
          "note": 45,
          "startTick": 58800,
          "durationTicks": 359,
          "velocity": 80
        },
        {
          "channel": 10,
          "note": 42,
          "startTick": 59040,
          "durationTicks": 192,
          "velocity": 52
        },
        {
          "channel": 10,
          "note": 38,
          "startTick": 59040,
          "durationTicks": 216,
          "velocity": 90
        },
        {
          "channel": 3,
          "note": 38,
          "startTick": 59040,
          "durationTicks": 336,
          "velocity": 70
        },
        {
          "channel": 10,
          "note": 42,
          "startTick": 59520,
          "durationTicks": 192,
          "velocity": 52
        },
        {
          "channel": 10,
          "note": 36,
          "startTick": 59520,
          "durationTicks": 216,
          "velocity": 95
        },
        {
          "channel": 3,
          "note": 47,
          "startTick": 59520,
          "durationTicks": 336,
          "velocity": 70
        },
        {
          "channel": 2,
          "note": 59,
          "startTick": 59520,
          "durationTicks": 432,
          "velocity": 60
        },
        {
          "channel": 2,
          "note": 62,
          "startTick": 59520,
          "durationTicks": 432,
          "velocity": 60
        },
        {
          "channel": 2,
          "note": 66,
          "startTick": 59520,
          "durationTicks": 432,
          "velocity": 60
        },
        {
          "channel": 10,
          "note": 42,
          "startTick": 60000,
          "durationTicks": 192,
          "velocity": 52
        },
        {
          "channel": 1,
          "note": 59,
          "startTick": 59520,
          "durationTicks": 683,
          "velocity": 80
        },
        {
          "channel": 1,
          "note": 64,
          "startTick": 59520,
          "durationTicks": 683,
          "velocity": 80
        },
        {
          "channel": 10,
          "note": 38,
          "startTick": 60000,
          "durationTicks": 216,
          "velocity": 90
        },
        {
          "channel": 3,
          "note": 47,
          "startTick": 60000,
          "durationTicks": 336,
          "velocity": 70
        },
        {
          "channel": 1,
          "note": 43,
          "startTick": 59520,
          "durationTicks": 911,
          "velocity": 80
        },
        {
          "channel": 1,
          "note": 47,
          "startTick": 59520,
          "durationTicks": 911,
          "velocity": 80
        },
        {
          "channel": 1,
          "note": 66,
          "startTick": 60240,
          "durationTicks": 227,
          "velocity": 80
        },
        {
          "channel": 1,
          "note": 67,
          "startTick": 60480,
          "durationTicks": 113,
          "velocity": 80
        },
        {
          "channel": 10,
          "note": 42,
          "startTick": 60480,
          "durationTicks": 192,
          "velocity": 52
        },
        {
          "channel": 10,
          "note": 36,
          "startTick": 60480,
          "durationTicks": 216,
          "velocity": 95
        },
        {
          "channel": 1,
          "note": 66,
          "startTick": 60600,
          "durationTicks": 113,
          "velocity": 80
        },
        {
          "channel": 3,
          "note": 47,
          "startTick": 60480,
          "durationTicks": 336,
          "velocity": 70
        },
        {
          "channel": 2,
          "note": 59,
          "startTick": 60480,
          "durationTicks": 432,
          "velocity": 60
        },
        {
          "channel": 2,
          "note": 62,
          "startTick": 60480,
          "durationTicks": 432,
          "velocity": 60
        },
        {
          "channel": 2,
          "note": 66,
          "startTick": 60480,
          "durationTicks": 432,
          "velocity": 60
        },
        {
          "channel": 1,
          "note": 64,
          "startTick": 60720,
          "durationTicks": 227,
          "velocity": 80
        },
        {
          "channel": 10,
          "note": 42,
          "startTick": 60960,
          "durationTicks": 192,
          "velocity": 52
        },
        {
          "channel": 10,
          "note": 38,
          "startTick": 60960,
          "durationTicks": 216,
          "velocity": 90
        },
        {
          "channel": 1,
          "note": 67,
          "startTick": 60960,
          "durationTicks": 227,
          "velocity": 80
        },
        {
          "channel": 3,
          "note": 47,
          "startTick": 60960,
          "durationTicks": 336,
          "velocity": 70
        },
        {
          "channel": 1,
          "note": 40,
          "startTick": 60480,
          "durationTicks": 911,
          "velocity": 80
        },
        {
          "channel": 1,
          "note": 47,
          "startTick": 60480,
          "durationTicks": 911,
          "velocity": 80
        },
        {
          "channel": 1,
          "note": 50,
          "startTick": 60480,
          "durationTicks": 911,
          "velocity": 80
        },
        {
          "channel": 1,
          "note": 71,
          "startTick": 61200,
          "durationTicks": 227,
          "velocity": 80
        },
        {
          "channel": 10,
          "note": 42,
          "startTick": 61440,
          "durationTicks": 192,
          "velocity": 52
        },
        {
          "channel": 10,
          "note": 36,
          "startTick": 61440,
          "durationTicks": 216,
          "velocity": 95
        },
        {
          "channel": 1,
          "note": 69,
          "startTick": 61440,
          "durationTicks": 227,
          "velocity": 80
        },
        {
          "channel": 3,
          "note": 45,
          "startTick": 61440,
          "durationTicks": 336,
          "velocity": 70
        },
        {
          "channel": 2,
          "note": 57,
          "startTick": 61440,
          "durationTicks": 432,
          "velocity": 60
        },
        {
          "channel": 2,
          "note": 61,
          "startTick": 61440,
          "durationTicks": 432,
          "velocity": 60
        },
        {
          "channel": 2,
          "note": 64,
          "startTick": 61440,
          "durationTicks": 432,
          "velocity": 60
        },
        {
          "channel": 1,
          "note": 45,
          "startTick": 61440,
          "durationTicks": 455,
          "velocity": 80
        },
        {
          "channel": 1,
          "note": 49,
          "startTick": 61440,
          "durationTicks": 455,
          "velocity": 80
        },
        {
          "channel": 1,
          "note": 52,
          "startTick": 61440,
          "durationTicks": 455,
          "velocity": 80
        },
        {
          "channel": 1,
          "note": 73,
          "startTick": 61680,
          "durationTicks": 227,
          "velocity": 80
        },
        {
          "channel": 10,
          "note": 42,
          "startTick": 61920,
          "durationTicks": 192,
          "velocity": 52
        },
        {
          "channel": 10,
          "note": 38,
          "startTick": 61920,
          "durationTicks": 216,
          "velocity": 90
        },
        {
          "channel": 1,
          "note": 71,
          "startTick": 61920,
          "durationTicks": 227,
          "velocity": 80
        },
        {
          "channel": 3,
          "note": 45,
          "startTick": 61920,
          "durationTicks": 336,
          "velocity": 70
        },
        {
          "channel": 1,
          "note": 40,
          "startTick": 61920,
          "durationTicks": 455,
          "velocity": 80
        },
        {
          "channel": 1,
          "note": 47,
          "startTick": 61920,
          "durationTicks": 455,
          "velocity": 80
        },
        {
          "channel": 1,
          "note": 50,
          "startTick": 61920,
          "durationTicks": 455,
          "velocity": 80
        },
        {
          "channel": 1,
          "note": 68,
          "startTick": 62160,
          "durationTicks": 227,
          "velocity": 80
        },
        {
          "channel": 10,
          "note": 42,
          "startTick": 62400,
          "durationTicks": 192,
          "velocity": 52
        },
        {
          "channel": 10,
          "note": 36,
          "startTick": 62400,
          "durationTicks": 216,
          "velocity": 95
        },
        {
          "channel": 1,
          "note": 45,
          "startTick": 62400,
          "durationTicks": 227,
          "velocity": 80
        },
        {
          "channel": 1,
          "note": 49,
          "startTick": 62400,
          "durationTicks": 227,
          "velocity": 80
        },
        {
          "channel": 1,
          "note": 52,
          "startTick": 62400,
          "durationTicks": 227,
          "velocity": 80
        },
        {
          "channel": 3,
          "note": 45,
          "startTick": 62400,
          "durationTicks": 336,
          "velocity": 70
        },
        {
          "channel": 2,
          "note": 57,
          "startTick": 62400,
          "durationTicks": 432,
          "velocity": 60
        },
        {
          "channel": 2,
          "note": 61,
          "startTick": 62400,
          "durationTicks": 432,
          "velocity": 60
        },
        {
          "channel": 2,
          "note": 64,
          "startTick": 62400,
          "durationTicks": 432,
          "velocity": 60
        },
        {
          "channel": 1,
          "note": 52,
          "startTick": 62640,
          "durationTicks": 227,
          "velocity": 80
        },
        {
          "channel": 1,
          "note": 57,
          "startTick": 62640,
          "durationTicks": 227,
          "velocity": 80
        },
        {
          "channel": 10,
          "note": 42,
          "startTick": 62880,
          "durationTicks": 192,
          "velocity": 52
        },
        {
          "channel": 10,
          "note": 38,
          "startTick": 62880,
          "durationTicks": 216,
          "velocity": 90
        },
        {
          "channel": 1,
          "note": 52,
          "startTick": 62880,
          "durationTicks": 227,
          "velocity": 80
        },
        {
          "channel": 1,
          "note": 57,
          "startTick": 62880,
          "durationTicks": 227,
          "velocity": 80
        },
        {
          "channel": 3,
          "note": 45,
          "startTick": 62880,
          "durationTicks": 336,
          "velocity": 70
        },
        {
          "channel": 1,
          "note": 69,
          "startTick": 62400,
          "durationTicks": 911,
          "velocity": 80
        },
        {
          "channel": 1,
          "note": 52,
          "startTick": 63120,
          "durationTicks": 227,
          "velocity": 80
        },
        {
          "channel": 1,
          "note": 57,
          "startTick": 63120,
          "durationTicks": 227,
          "velocity": 80
        },
        {
          "channel": 10,
          "note": 42,
          "startTick": 63360,
          "durationTicks": 192,
          "velocity": 52
        },
        {
          "channel": 10,
          "note": 36,
          "startTick": 63360,
          "durationTicks": 216,
          "velocity": 95
        },
        {
          "channel": 1,
          "note": 38,
          "startTick": 63360,
          "durationTicks": 227,
          "velocity": 80
        },
        {
          "channel": 3,
          "note": 38,
          "startTick": 63360,
          "durationTicks": 336,
          "velocity": 70
        },
        {
          "channel": 2,
          "note": 50,
          "startTick": 63360,
          "durationTicks": 432,
          "velocity": 60
        },
        {
          "channel": 2,
          "note": 54,
          "startTick": 63360,
          "durationTicks": 432,
          "velocity": 60
        },
        {
          "channel": 2,
          "note": 57,
          "startTick": 63360,
          "durationTicks": 432,
          "velocity": 60
        },
        {
          "channel": 1,
          "note": 62,
          "startTick": 63360,
          "durationTicks": 455,
          "velocity": 80
        },
        {
          "channel": 1,
          "note": 66,
          "startTick": 63360,
          "durationTicks": 455,
          "velocity": 80
        },
        {
          "channel": 1,
          "note": 50,
          "startTick": 63600,
          "durationTicks": 227,
          "velocity": 80
        },
        {
          "channel": 10,
          "note": 42,
          "startTick": 63840,
          "durationTicks": 192,
          "velocity": 52
        },
        {
          "channel": 10,
          "note": 38,
          "startTick": 63840,
          "durationTicks": 216,
          "velocity": 90
        },
        {
          "channel": 1,
          "note": 45,
          "startTick": 63840,
          "durationTicks": 227,
          "velocity": 80
        },
        {
          "channel": 3,
          "note": 38,
          "startTick": 63840,
          "durationTicks": 336,
          "velocity": 70
        },
        {
          "channel": 1,
          "note": 62,
          "startTick": 63840,
          "durationTicks": 455,
          "velocity": 80
        },
        {
          "channel": 1,
          "note": 69,
          "startTick": 63840,
          "durationTicks": 455,
          "velocity": 80
        },
        {
          "channel": 1,
          "note": 50,
          "startTick": 64080,
          "durationTicks": 227,
          "velocity": 80
        },
        {
          "channel": 10,
          "note": 42,
          "startTick": 64320,
          "durationTicks": 192,
          "velocity": 52
        },
        {
          "channel": 10,
          "note": 36,
          "startTick": 64320,
          "durationTicks": 216,
          "velocity": 95
        },
        {
          "channel": 1,
          "note": 38,
          "startTick": 64320,
          "durationTicks": 227,
          "velocity": 80
        },
        {
          "channel": 3,
          "note": 38,
          "startTick": 64320,
          "durationTicks": 336,
          "velocity": 70
        },
        {
          "channel": 2,
          "note": 50,
          "startTick": 64320,
          "durationTicks": 432,
          "velocity": 60
        },
        {
          "channel": 2,
          "note": 54,
          "startTick": 64320,
          "durationTicks": 432,
          "velocity": 60
        },
        {
          "channel": 2,
          "note": 57,
          "startTick": 64320,
          "durationTicks": 432,
          "velocity": 60
        },
        {
          "channel": 1,
          "note": 50,
          "startTick": 64560,
          "durationTicks": 227,
          "velocity": 80
        },
        {
          "channel": 10,
          "note": 42,
          "startTick": 64800,
          "durationTicks": 192,
          "velocity": 52
        },
        {
          "channel": 10,
          "note": 38,
          "startTick": 64800,
          "durationTicks": 216,
          "velocity": 90
        },
        {
          "channel": 1,
          "note": 45,
          "startTick": 64800,
          "durationTicks": 227,
          "velocity": 80
        },
        {
          "channel": 3,
          "note": 38,
          "startTick": 64800,
          "durationTicks": 336,
          "velocity": 70
        },
        {
          "channel": 1,
          "note": 62,
          "startTick": 64320,
          "durationTicks": 911,
          "velocity": 80
        },
        {
          "channel": 1,
          "note": 69,
          "startTick": 64320,
          "durationTicks": 911,
          "velocity": 80
        },
        {
          "channel": 1,
          "note": 50,
          "startTick": 65040,
          "durationTicks": 227,
          "velocity": 80
        },
        {
          "channel": 10,
          "note": 42,
          "startTick": 65280,
          "durationTicks": 192,
          "velocity": 52
        },
        {
          "channel": 10,
          "note": 36,
          "startTick": 65280,
          "durationTicks": 216,
          "velocity": 95
        },
        {
          "channel": 1,
          "note": 35,
          "startTick": 65280,
          "durationTicks": 227,
          "velocity": 80
        },
        {
          "channel": 1,
          "note": 62,
          "startTick": 65280,
          "durationTicks": 239,
          "velocity": 80
        },
        {
          "channel": 1,
          "note": 66,
          "startTick": 65280,
          "durationTicks": 239,
          "velocity": 80
        },
        {
          "channel": 3,
          "note": 47,
          "startTick": 65280,
          "durationTicks": 336,
          "velocity": 70
        },
        {
          "channel": 2,
          "note": 59,
          "startTick": 65280,
          "durationTicks": 432,
          "velocity": 60
        },
        {
          "channel": 2,
          "note": 62,
          "startTick": 65280,
          "durationTicks": 432,
          "velocity": 60
        },
        {
          "channel": 2,
          "note": 66,
          "startTick": 65280,
          "durationTicks": 432,
          "velocity": 60
        },
        {
          "channel": 1,
          "note": 62,
          "startTick": 65520,
          "durationTicks": 227,
          "velocity": 80
        },
        {
          "channel": 1,
          "note": 71,
          "startTick": 65520,
          "durationTicks": 227,
          "velocity": 80
        },
        {
          "channel": 1,
          "note": 47,
          "startTick": 65520,
          "durationTicks": 227,
          "velocity": 80
        },
        {
          "channel": 10,
          "note": 42,
          "startTick": 65760,
          "durationTicks": 192,
          "velocity": 52
        },
        {
          "channel": 10,
          "note": 38,
          "startTick": 65760,
          "durationTicks": 216,
          "velocity": 90
        },
        {
          "channel": 1,
          "note": 62,
          "startTick": 65760,
          "durationTicks": 227,
          "velocity": 80
        },
        {
          "channel": 1,
          "note": 69,
          "startTick": 65760,
          "durationTicks": 227,
          "velocity": 80
        },
        {
          "channel": 1,
          "note": 42,
          "startTick": 65760,
          "durationTicks": 227,
          "velocity": 80
        },
        {
          "channel": 3,
          "note": 47,
          "startTick": 65760,
          "durationTicks": 336,
          "velocity": 70
        },
        {
          "channel": 1,
          "note": 66,
          "startTick": 66000,
          "durationTicks": 227,
          "velocity": 80
        },
        {
          "channel": 1,
          "note": 47,
          "startTick": 66000,
          "durationTicks": 227,
          "velocity": 80
        },
        {
          "channel": 10,
          "note": 42,
          "startTick": 66240,
          "durationTicks": 192,
          "velocity": 52
        },
        {
          "channel": 10,
          "note": 36,
          "startTick": 66240,
          "durationTicks": 216,
          "velocity": 95
        },
        {
          "channel": 1,
          "note": 35,
          "startTick": 66240,
          "durationTicks": 227,
          "velocity": 80
        },
        {
          "channel": 3,
          "note": 47,
          "startTick": 66240,
          "durationTicks": 336,
          "velocity": 70
        },
        {
          "channel": 2,
          "note": 59,
          "startTick": 66240,
          "durationTicks": 432,
          "velocity": 60
        },
        {
          "channel": 2,
          "note": 62,
          "startTick": 66240,
          "durationTicks": 432,
          "velocity": 60
        },
        {
          "channel": 2,
          "note": 66,
          "startTick": 66240,
          "durationTicks": 432,
          "velocity": 60
        },
        {
          "channel": 1,
          "note": 47,
          "startTick": 66480,
          "durationTicks": 227,
          "velocity": 80
        },
        {
          "channel": 10,
          "note": 42,
          "startTick": 66720,
          "durationTicks": 192,
          "velocity": 52
        },
        {
          "channel": 10,
          "note": 38,
          "startTick": 66720,
          "durationTicks": 216,
          "velocity": 90
        },
        {
          "channel": 1,
          "note": 42,
          "startTick": 66720,
          "durationTicks": 227,
          "velocity": 80
        },
        {
          "channel": 3,
          "note": 47,
          "startTick": 66720,
          "durationTicks": 336,
          "velocity": 70
        },
        {
          "channel": 1,
          "note": 62,
          "startTick": 66240,
          "durationTicks": 911,
          "velocity": 80
        },
        {
          "channel": 1,
          "note": 47,
          "startTick": 66960,
          "durationTicks": 227,
          "velocity": 80
        },
        {
          "channel": 10,
          "note": 42,
          "startTick": 67200,
          "durationTicks": 192,
          "velocity": 52
        },
        {
          "channel": 10,
          "note": 36,
          "startTick": 67200,
          "durationTicks": 216,
          "velocity": 95
        },
        {
          "channel": 1,
          "note": 64,
          "startTick": 67200,
          "durationTicks": 227,
          "velocity": 80
        },
        {
          "channel": 1,
          "note": 40,
          "startTick": 67200,
          "durationTicks": 227,
          "velocity": 80
        },
        {
          "channel": 3,
          "note": 40,
          "startTick": 67200,
          "durationTicks": 336,
          "velocity": 70
        },
        {
          "channel": 2,
          "note": 52,
          "startTick": 67200,
          "durationTicks": 432,
          "velocity": 60
        },
        {
          "channel": 2,
          "note": 56,
          "startTick": 67200,
          "durationTicks": 432,
          "velocity": 60
        },
        {
          "channel": 2,
          "note": 59,
          "startTick": 67200,
          "durationTicks": 432,
          "velocity": 60
        },
        {
          "channel": 1,
          "note": 52,
          "startTick": 67440,
          "durationTicks": 227,
          "velocity": 80
        },
        {
          "channel": 10,
          "note": 42,
          "startTick": 67680,
          "durationTicks": 192,
          "velocity": 52
        },
        {
          "channel": 1,
          "note": 66,
          "startTick": 67440,
          "durationTicks": 455,
          "velocity": 80
        },
        {
          "channel": 10,
          "note": 38,
          "startTick": 67680,
          "durationTicks": 216,
          "velocity": 90
        },
        {
          "channel": 1,
          "note": 47,
          "startTick": 67680,
          "durationTicks": 227,
          "velocity": 80
        },
        {
          "channel": 3,
          "note": 40,
          "startTick": 67680,
          "durationTicks": 336,
          "velocity": 70
        },
        {
          "channel": 1,
          "note": 62,
          "startTick": 67920,
          "durationTicks": 227,
          "velocity": 80
        },
        {
          "channel": 1,
          "note": 52,
          "startTick": 67920,
          "durationTicks": 227,
          "velocity": 80
        },
        {
          "channel": 10,
          "note": 42,
          "startTick": 68160,
          "durationTicks": 192,
          "velocity": 52
        },
        {
          "channel": 10,
          "note": 36,
          "startTick": 68160,
          "durationTicks": 216,
          "velocity": 95
        },
        {
          "channel": 1,
          "note": 59,
          "startTick": 68160,
          "durationTicks": 227,
          "velocity": 80
        },
        {
          "channel": 1,
          "note": 40,
          "startTick": 68160,
          "durationTicks": 227,
          "velocity": 80
        },
        {
          "channel": 3,
          "note": 40,
          "startTick": 68160,
          "durationTicks": 336,
          "velocity": 70
        },
        {
          "channel": 2,
          "note": 52,
          "startTick": 68160,
          "durationTicks": 432,
          "velocity": 60
        },
        {
          "channel": 2,
          "note": 56,
          "startTick": 68160,
          "durationTicks": 432,
          "velocity": 60
        },
        {
          "channel": 2,
          "note": 59,
          "startTick": 68160,
          "durationTicks": 432,
          "velocity": 60
        },
        {
          "channel": 1,
          "note": 52,
          "startTick": 68400,
          "durationTicks": 227,
          "velocity": 80
        },
        {
          "channel": 10,
          "note": 42,
          "startTick": 68640,
          "durationTicks": 192,
          "velocity": 52
        },
        {
          "channel": 1,
          "note": 62,
          "startTick": 68400,
          "durationTicks": 455,
          "velocity": 80
        },
        {
          "channel": 10,
          "note": 38,
          "startTick": 68640,
          "durationTicks": 216,
          "velocity": 90
        },
        {
          "channel": 1,
          "note": 47,
          "startTick": 68640,
          "durationTicks": 227,
          "velocity": 80
        },
        {
          "channel": 3,
          "note": 40,
          "startTick": 68640,
          "durationTicks": 336,
          "velocity": 70
        },
        {
          "channel": 1,
          "note": 64,
          "startTick": 68880,
          "durationTicks": 227,
          "velocity": 80
        },
        {
          "channel": 1,
          "note": 52,
          "startTick": 68880,
          "durationTicks": 227,
          "velocity": 80
        },
        {
          "channel": 10,
          "note": 42,
          "startTick": 69120,
          "durationTicks": 192,
          "velocity": 52
        },
        {
          "channel": 10,
          "note": 36,
          "startTick": 69120,
          "durationTicks": 216,
          "velocity": 95
        },
        {
          "channel": 1,
          "note": 57,
          "startTick": 69120,
          "durationTicks": 239,
          "velocity": 80
        },
        {
          "channel": 1,
          "note": 66,
          "startTick": 69120,
          "durationTicks": 239,
          "velocity": 80
        },
        {
          "channel": 1,
          "note": 38,
          "startTick": 69120,
          "durationTicks": 239,
          "velocity": 80
        },
        {
          "channel": 1,
          "note": 45,
          "startTick": 69120,
          "durationTicks": 239,
          "velocity": 80
        },
        {
          "channel": 1,
          "note": 50,
          "startTick": 69120,
          "durationTicks": 239,
          "velocity": 80
        },
        {
          "channel": 3,
          "note": 40,
          "startTick": 69120,
          "durationTicks": 336,
          "velocity": 70
        },
        {
          "channel": 2,
          "note": 52,
          "startTick": 69120,
          "durationTicks": 432,
          "velocity": 60
        },
        {
          "channel": 2,
          "note": 56,
          "startTick": 69120,
          "durationTicks": 432,
          "velocity": 60
        },
        {
          "channel": 2,
          "note": 59,
          "startTick": 69120,
          "durationTicks": 432,
          "velocity": 60
        },
        {
          "channel": 10,
          "note": 42,
          "startTick": 69600,
          "durationTicks": 192,
          "velocity": 52
        },
        {
          "channel": 10,
          "note": 38,
          "startTick": 69600,
          "durationTicks": 216,
          "velocity": 90
        },
        {
          "channel": 1,
          "note": 57,
          "startTick": 69600,
          "durationTicks": 239,
          "velocity": 80
        },
        {
          "channel": 1,
          "note": 62,
          "startTick": 69600,
          "durationTicks": 239,
          "velocity": 80
        },
        {
          "channel": 1,
          "note": 38,
          "startTick": 69600,
          "durationTicks": 239,
          "velocity": 80
        },
        {
          "channel": 1,
          "note": 45,
          "startTick": 69600,
          "durationTicks": 239,
          "velocity": 80
        },
        {
          "channel": 1,
          "note": 50,
          "startTick": 69600,
          "durationTicks": 239,
          "velocity": 80
        },
        {
          "channel": 3,
          "note": 40,
          "startTick": 69600,
          "durationTicks": 336,
          "velocity": 70
        },
        {
          "channel": 1,
          "note": 59,
          "startTick": 70080,
          "durationTicks": 119,
          "velocity": 80
        },
        {
          "channel": 1,
          "note": 64,
          "startTick": 70080,
          "durationTicks": 119,
          "velocity": 80
        },
        {
          "channel": 1,
          "note": 40,
          "startTick": 70080,
          "durationTicks": 119,
          "velocity": 80
        },
        {
          "channel": 1,
          "note": 47,
          "startTick": 70080,
          "durationTicks": 119,
          "velocity": 80
        },
        {
          "channel": 1,
          "note": 52,
          "startTick": 70080,
          "durationTicks": 119,
          "velocity": 80
        },
        {
          "channel": 10,
          "note": 42,
          "startTick": 70080,
          "durationTicks": 192,
          "velocity": 52
        },
        {
          "channel": 10,
          "note": 36,
          "startTick": 70080,
          "durationTicks": 216,
          "velocity": 95
        },
        {
          "channel": 3,
          "note": 40,
          "startTick": 70080,
          "durationTicks": 336,
          "velocity": 70
        },
        {
          "channel": 2,
          "note": 52,
          "startTick": 70080,
          "durationTicks": 432,
          "velocity": 60
        },
        {
          "channel": 2,
          "note": 56,
          "startTick": 70080,
          "durationTicks": 432,
          "velocity": 60
        },
        {
          "channel": 2,
          "note": 59,
          "startTick": 70080,
          "durationTicks": 432,
          "velocity": 60
        },
        {
          "channel": 1,
          "note": 59,
          "startTick": 70320,
          "durationTicks": 359,
          "velocity": 80
        },
        {
          "channel": 1,
          "note": 64,
          "startTick": 70320,
          "durationTicks": 359,
          "velocity": 80
        },
        {
          "channel": 1,
          "note": 71,
          "startTick": 70320,
          "durationTicks": 359,
          "velocity": 80
        },
        {
          "channel": 1,
          "note": 40,
          "startTick": 70320,
          "durationTicks": 359,
          "velocity": 80
        },
        {
          "channel": 1,
          "note": 47,
          "startTick": 70320,
          "durationTicks": 359,
          "velocity": 80
        },
        {
          "channel": 1,
          "note": 52,
          "startTick": 70320,
          "durationTicks": 359,
          "velocity": 80
        },
        {
          "channel": 10,
          "note": 42,
          "startTick": 70560,
          "durationTicks": 192,
          "velocity": 52
        },
        {
          "channel": 10,
          "note": 38,
          "startTick": 70560,
          "durationTicks": 216,
          "velocity": 90
        },
        {
          "channel": 3,
          "note": 40,
          "startTick": 70560,
          "durationTicks": 336,
          "velocity": 70
        },
        {
          "channel": 10,
          "note": 42,
          "startTick": 71040,
          "durationTicks": 192,
          "velocity": 52
        },
        {
          "channel": 10,
          "note": 36,
          "startTick": 71040,
          "durationTicks": 216,
          "velocity": 95
        },
        {
          "channel": 1,
          "note": 61,
          "startTick": 71040,
          "durationTicks": 239,
          "velocity": 80
        },
        {
          "channel": 1,
          "note": 69,
          "startTick": 71040,
          "durationTicks": 239,
          "velocity": 80
        },
        {
          "channel": 1,
          "note": 33,
          "startTick": 71040,
          "durationTicks": 239,
          "velocity": 80
        },
        {
          "channel": 1,
          "note": 40,
          "startTick": 71040,
          "durationTicks": 239,
          "velocity": 80
        },
        {
          "channel": 1,
          "note": 45,
          "startTick": 71040,
          "durationTicks": 239,
          "velocity": 80
        },
        {
          "channel": 3,
          "note": 45,
          "startTick": 71040,
          "durationTicks": 336,
          "velocity": 70
        },
        {
          "channel": 2,
          "note": 57,
          "startTick": 71040,
          "durationTicks": 432,
          "velocity": 60
        },
        {
          "channel": 2,
          "note": 61,
          "startTick": 71040,
          "durationTicks": 432,
          "velocity": 60
        },
        {
          "channel": 2,
          "note": 64,
          "startTick": 71040,
          "durationTicks": 432,
          "velocity": 60
        },
        {
          "channel": 10,
          "note": 42,
          "startTick": 71520,
          "durationTicks": 192,
          "velocity": 52
        },
        {
          "channel": 10,
          "note": 38,
          "startTick": 71520,
          "durationTicks": 216,
          "velocity": 90
        },
        {
          "channel": 1,
          "note": 61,
          "startTick": 71520,
          "durationTicks": 239,
          "velocity": 80
        },
        {
          "channel": 1,
          "note": 64,
          "startTick": 71520,
          "durationTicks": 239,
          "velocity": 80
        },
        {
          "channel": 1,
          "note": 33,
          "startTick": 71520,
          "durationTicks": 239,
          "velocity": 80
        },
        {
          "channel": 1,
          "note": 40,
          "startTick": 71520,
          "durationTicks": 239,
          "velocity": 80
        },
        {
          "channel": 1,
          "note": 45,
          "startTick": 71520,
          "durationTicks": 239,
          "velocity": 80
        },
        {
          "channel": 3,
          "note": 45,
          "startTick": 71520,
          "durationTicks": 336,
          "velocity": 70
        },
        {
          "channel": 1,
          "note": 62,
          "startTick": 72000,
          "durationTicks": 119,
          "velocity": 80
        },
        {
          "channel": 1,
          "note": 66,
          "startTick": 72000,
          "durationTicks": 119,
          "velocity": 80
        },
        {
          "channel": 1,
          "note": 38,
          "startTick": 72000,
          "durationTicks": 119,
          "velocity": 80
        },
        {
          "channel": 1,
          "note": 45,
          "startTick": 72000,
          "durationTicks": 119,
          "velocity": 80
        },
        {
          "channel": 1,
          "note": 50,
          "startTick": 72000,
          "durationTicks": 119,
          "velocity": 80
        },
        {
          "channel": 10,
          "note": 42,
          "startTick": 72000,
          "durationTicks": 192,
          "velocity": 52
        },
        {
          "channel": 10,
          "note": 36,
          "startTick": 72000,
          "durationTicks": 216,
          "velocity": 95
        },
        {
          "channel": 3,
          "note": 45,
          "startTick": 72000,
          "durationTicks": 336,
          "velocity": 70
        },
        {
          "channel": 2,
          "note": 57,
          "startTick": 72000,
          "durationTicks": 432,
          "velocity": 60
        },
        {
          "channel": 2,
          "note": 61,
          "startTick": 72000,
          "durationTicks": 432,
          "velocity": 60
        },
        {
          "channel": 2,
          "note": 64,
          "startTick": 72000,
          "durationTicks": 432,
          "velocity": 60
        },
        {
          "channel": 1,
          "note": 62,
          "startTick": 72240,
          "durationTicks": 359,
          "velocity": 80
        },
        {
          "channel": 1,
          "note": 38,
          "startTick": 72240,
          "durationTicks": 359,
          "velocity": 80
        },
        {
          "channel": 1,
          "note": 45,
          "startTick": 72240,
          "durationTicks": 359,
          "velocity": 80
        },
        {
          "channel": 1,
          "note": 50,
          "startTick": 72240,
          "durationTicks": 359,
          "velocity": 80
        },
        {
          "channel": 10,
          "note": 42,
          "startTick": 72480,
          "durationTicks": 192,
          "velocity": 52
        },
        {
          "channel": 10,
          "note": 38,
          "startTick": 72480,
          "durationTicks": 216,
          "velocity": 90
        },
        {
          "channel": 3,
          "note": 45,
          "startTick": 72480,
          "durationTicks": 336,
          "velocity": 70
        },
        {
          "channel": 10,
          "note": 42,
          "startTick": 72960,
          "durationTicks": 192,
          "velocity": 52
        },
        {
          "channel": 10,
          "note": 36,
          "startTick": 72960,
          "durationTicks": 216,
          "velocity": 95
        },
        {
          "channel": 1,
          "note": 62,
          "startTick": 72960,
          "durationTicks": 227,
          "velocity": 80
        },
        {
          "channel": 3,
          "note": 38,
          "startTick": 72960,
          "durationTicks": 336,
          "velocity": 70
        },
        {
          "channel": 1,
          "note": 74,
          "startTick": 73200,
          "durationTicks": 113,
          "velocity": 80
        },
        {
          "channel": 2,
          "note": 50,
          "startTick": 72960,
          "durationTicks": 432,
          "velocity": 60
        },
        {
          "channel": 2,
          "note": 54,
          "startTick": 72960,
          "durationTicks": 432,
          "velocity": 60
        },
        {
          "channel": 2,
          "note": 57,
          "startTick": 72960,
          "durationTicks": 432,
          "velocity": 60
        },
        {
          "channel": 1,
          "note": 73,
          "startTick": 73320,
          "durationTicks": 113,
          "velocity": 80
        },
        {
          "channel": 10,
          "note": 42,
          "startTick": 73440,
          "durationTicks": 192,
          "velocity": 52
        },
        {
          "channel": 10,
          "note": 38,
          "startTick": 73440,
          "durationTicks": 216,
          "velocity": 90
        },
        {
          "channel": 1,
          "note": 69,
          "startTick": 73440,
          "durationTicks": 227,
          "velocity": 80
        },
        {
          "channel": 3,
          "note": 38,
          "startTick": 73440,
          "durationTicks": 336,
          "velocity": 70
        },
        {
          "channel": 1,
          "note": 66,
          "startTick": 73680,
          "durationTicks": 227,
          "velocity": 80
        },
        {
          "channel": 10,
          "note": 42,
          "startTick": 73920,
          "durationTicks": 192,
          "velocity": 52
        },
        {
          "channel": 10,
          "note": 36,
          "startTick": 73920,
          "durationTicks": 216,
          "velocity": 95
        },
        {
          "channel": 1,
          "note": 65,
          "startTick": 73920,
          "durationTicks": 227,
          "velocity": 80
        },
        {
          "channel": 3,
          "note": 38,
          "startTick": 73920,
          "durationTicks": 336,
          "velocity": 70
        },
        {
          "channel": 2,
          "note": 50,
          "startTick": 73920,
          "durationTicks": 432,
          "velocity": 60
        },
        {
          "channel": 2,
          "note": 54,
          "startTick": 73920,
          "durationTicks": 432,
          "velocity": 60
        },
        {
          "channel": 2,
          "note": 57,
          "startTick": 73920,
          "durationTicks": 432,
          "velocity": 60
        },
        {
          "channel": 1,
          "note": 64,
          "startTick": 74160,
          "durationTicks": 227,
          "velocity": 80
        },
        {
          "channel": 10,
          "note": 42,
          "startTick": 74400,
          "durationTicks": 192,
          "velocity": 52
        },
        {
          "channel": 10,
          "note": 38,
          "startTick": 74400,
          "durationTicks": 216,
          "velocity": 90
        },
        {
          "channel": 1,
          "note": 63,
          "startTick": 74400,
          "durationTicks": 227,
          "velocity": 80
        },
        {
          "channel": 3,
          "note": 38,
          "startTick": 74400,
          "durationTicks": 336,
          "velocity": 70
        },
        {
          "channel": 1,
          "note": 38,
          "startTick": 72960,
          "durationTicks": 1823,
          "velocity": 80
        },
        {
          "channel": 1,
          "note": 50,
          "startTick": 72960,
          "durationTicks": 1823,
          "velocity": 80
        },
        {
          "channel": 10,
          "note": 42,
          "startTick": 74880,
          "durationTicks": 192,
          "velocity": 52
        },
        {
          "channel": 10,
          "note": 36,
          "startTick": 74880,
          "durationTicks": 216,
          "velocity": 95
        },
        {
          "channel": 3,
          "note": 38,
          "startTick": 74880,
          "durationTicks": 336,
          "velocity": 70
        },
        {
          "channel": 2,
          "note": 50,
          "startTick": 74880,
          "durationTicks": 432,
          "velocity": 60
        },
        {
          "channel": 2,
          "note": 54,
          "startTick": 74880,
          "durationTicks": 432,
          "velocity": 60
        },
        {
          "channel": 2,
          "note": 57,
          "startTick": 74880,
          "durationTicks": 432,
          "velocity": 60
        },
        {
          "channel": 10,
          "note": 42,
          "startTick": 75360,
          "durationTicks": 192,
          "velocity": 52
        },
        {
          "channel": 10,
          "note": 38,
          "startTick": 75360,
          "durationTicks": 216,
          "velocity": 90
        },
        {
          "channel": 3,
          "note": 38,
          "startTick": 75360,
          "durationTicks": 336,
          "velocity": 70
        },
        {
          "channel": 1,
          "note": 62,
          "startTick": 74640,
          "durationTicks": 1139,
          "velocity": 80
        },
        {
          "channel": 10,
          "note": 42,
          "startTick": 75840,
          "durationTicks": 192,
          "velocity": 52
        },
        {
          "channel": 10,
          "note": 36,
          "startTick": 75840,
          "durationTicks": 216,
          "velocity": 95
        },
        {
          "channel": 3,
          "note": 38,
          "startTick": 75840,
          "durationTicks": 336,
          "velocity": 70
        },
        {
          "channel": 2,
          "note": 50,
          "startTick": 75840,
          "durationTicks": 432,
          "velocity": 60
        },
        {
          "channel": 2,
          "note": 54,
          "startTick": 75840,
          "durationTicks": 432,
          "velocity": 60
        },
        {
          "channel": 2,
          "note": 57,
          "startTick": 75840,
          "durationTicks": 432,
          "velocity": 60
        },
        {
          "channel": 1,
          "note": 66,
          "startTick": 75840,
          "durationTicks": 479,
          "velocity": 80
        },
        {
          "channel": 1,
          "note": 69,
          "startTick": 75840,
          "durationTicks": 479,
          "velocity": 80
        },
        {
          "channel": 1,
          "note": 74,
          "startTick": 75840,
          "durationTicks": 479,
          "velocity": 80
        },
        {
          "channel": 1,
          "note": 38,
          "startTick": 75840,
          "durationTicks": 479,
          "velocity": 80
        },
        {
          "channel": 1,
          "note": 45,
          "startTick": 75840,
          "durationTicks": 479,
          "velocity": 80
        },
        {
          "channel": 1,
          "note": 50,
          "startTick": 75840,
          "durationTicks": 479,
          "velocity": 80
        },
        {
          "channel": 10,
          "note": 42,
          "startTick": 76320,
          "durationTicks": 192,
          "velocity": 52
        },
        {
          "channel": 10,
          "note": 38,
          "startTick": 76320,
          "durationTicks": 216,
          "velocity": 90
        },
        {
          "channel": 3,
          "note": 38,
          "startTick": 76320,
          "durationTicks": 336,
          "velocity": 70
        }
      ]
    }
  ]
}