<svg xmlns="http://www.w3.org/2000/svg" viewBox="0 0 1024 256">
  <rect width="1024" height="256" fill="none"/>
  <g transform="translate(0 138)">
    <g fill="#2ba33c" stroke="#18762a" stroke-width="4">
      <g transform="translate(20 0)">
        <ellipse cx="42" cy="56" rx="34" ry="24"/>
        <ellipse cx="78" cy="40" rx="40" ry="28"/>
        <ellipse cx="120" cy="56" rx="34" ry="24"/>
      </g>
      <g transform="translate(210 8)">
        <ellipse cx="42" cy="56" rx="34" ry="24"/>
        <ellipse cx="78" cy="40" rx="40" ry="28"/>
        <ellipse cx="120" cy="56" rx="34" ry="24"/>
      </g>
      <g transform="translate(430 2)">
        <ellipse cx="42" cy="56" rx="34" ry="24"/>
        <ellipse cx="78" cy="40" rx="40" ry="28"/>
        <ellipse cx="120" cy="56" rx="34" ry="24"/>
      </g>
      <g transform="translate(650 12)">
        <ellipse cx="42" cy="56" rx="34" ry="24"/>
        <ellipse cx="78" cy="40" rx="40" ry="28"/>
        <ellipse cx="120" cy="56" rx="34" ry="24"/>
      </g>
      <g transform="translate(860 0)">
        <ellipse cx="42" cy="56" rx="34" ry="24"/>
        <ellipse cx="78" cy="40" rx="40" ry="28"/>
        <ellipse cx="120" cy="56" rx="34" ry="24"/>
      </g>
    </g>
  </g>
</svg>
