<svg xmlns="http://www.w3.org/2000/svg" width="1600" height="900" viewBox="0 0 1600 900">
  <rect x="0" y="0" width="1600" height="900" fill="#dce9ff" />
  <path d="M0 560 L140 420 L280 560 L420 370 L580 560 L760 340 L960 560 L1160 360 L1360 560 L1600 420 L1600 900 L0 900 Z" fill="#7b95b7" />
  <path d="M0 630 L170 500 L340 630 L520 470 L690 630 L870 470 L1060 630 L1250 500 L1450 630 L1600 545 L1600 900 L0 900 Z" fill="#5d779f" />
  <path d="M0 710 L140 640 L320 710 L520 610 L700 710 L910 620 L1120 710 L1290 650 L1500 710 L1600 680 L1600 900 L0 900 Z" fill="#3d597f" />
  <rect x="0" y="760" width="1600" height="140" fill="#385e3d" />
</svg>
