<svg xmlns="http://www.w3.org/2000/svg" viewBox="0 0 960 720" role="img" aria-label="Space Invaders preview">
  <rect width="960" height="720" fill="#000"/>
  <rect x="24" y="24" width="912" height="672" fill="#020702" stroke="#66ff66" stroke-width="4"/>
  <g fill="#66ff66">
    <rect x="180" y="170" width="24" height="6"/>
    <rect x="174" y="176" width="36" height="8"/>
    <rect x="168" y="184" width="48" height="6"/>
    <rect x="174" y="190" width="6" height="8"/>
    <rect x="204" y="190" width="6" height="8"/>
    <rect x="254" y="170" width="24" height="6"/>
    <rect x="248" y="176" width="36" height="8"/>
    <rect x="242" y="184" width="48" height="6"/>
    <rect x="248" y="190" width="6" height="8"/>
    <rect x="278" y="190" width="6" height="8"/>
    <rect x="328" y="170" width="24" height="6"/>
    <rect x="322" y="176" width="36" height="8"/>
    <rect x="316" y="184" width="48" height="6"/>
    <rect x="322" y="190" width="6" height="8"/>
    <rect x="352" y="190" width="6" height="8"/>
    <rect x="402" y="170" width="24" height="6"/>
    <rect x="396" y="176" width="36" height="8"/>
    <rect x="390" y="184" width="48" height="6"/>
    <rect x="396" y="190" width="6" height="8"/>
    <rect x="426" y="190" width="6" height="8"/>
    <rect x="476" y="170" width="24" height="6"/>
    <rect x="470" y="176" width="36" height="8"/>
    <rect x="464" y="184" width="48" height="6"/>
    <rect x="470" y="190" width="6" height="8"/>
    <rect x="500" y="190" width="6" height="8"/>
  </g>
  <g fill="#ff4d4d">
    <rect x="110" y="92" width="46" height="8"/>
    <rect x="100" y="100" width="66" height="12"/>
    <rect x="92" y="112" width="82" height="10"/>
  </g>
  <g fill="#66ff66">
    <rect x="434" y="580" width="92" height="10"/>
    <rect x="464" y="568" width="32" height="12"/>
    <rect x="80" y="642" width="42" height="8"/>
    <rect x="92" y="632" width="18" height="10"/>
    <rect x="132" y="642" width="42" height="8"/>
    <rect x="144" y="632" width="18" height="10"/>
  </g>
  <rect x="472" y="520" width="6" height="34" fill="#fff"/>
  <rect x="56" y="616" width="848" height="4" fill="#66ff66"/>
  <text x="60" y="70" fill="#fff" font-family="monospace" font-size="28">SCORE&lt;1&gt; 0120</text>
  <text x="480" y="70" fill="#fff" font-family="monospace" font-size="28" text-anchor="middle">HI-SCORE 0120</text>
  <text x="900" y="70" fill="#fff" font-family="monospace" font-size="28" text-anchor="end">WAVE 3</text>
</svg>
