<svg xmlns="http://www.w3.org/2000/svg" width="1024" height="300" viewBox="0 0 1024 300" preserveAspectRatio="none">
  <defs>
    <linearGradient id="midShade" x1="0" y1="0" x2="0" y2="1">
      <stop offset="0%" stop-color="#5568d2"/>
      <stop offset="100%" stop-color="#3748a8"/>
    </linearGradient>
  </defs>

  <path d="M0 236 C86 186 170 176 252 210 C332 242 402 246 486 214 C574 180 652 184 732 224 C806 262 878 264 954 234 C982 222 1008 216 1024 220 L1024 300 L0 300 Z" fill="url(#midShade)" fill-opacity="0.90"/>
  <path d="M0 252 C68 228 132 226 196 244 C266 266 334 266 404 242 C482 214 556 216 632 246 C706 276 780 280 856 252 C920 228 976 224 1024 236 L1024 300 L0 300 Z" fill="#6679de" fill-opacity="0.74"/>

  <path d="M82 198 L104 198 L104 300 L82 300 Z" fill="#7d8de5" fill-opacity="0.56"/>
  <path d="M284 188 L310 188 L310 300 L284 300 Z" fill="#8898ea" fill-opacity="0.56"/>
  <path d="M520 194 L544 194 L544 300 L520 300 Z" fill="#7d8de5" fill-opacity="0.54"/>
  <path d="M742 190 L768 190 L768 300 L742 300 Z" fill="#8898ea" fill-opacity="0.56"/>
  <path d="M910 198 L934 198 L934 300 L910 300 Z" fill="#7d8de5" fill-opacity="0.54"/>
</svg>
