<svg xmlns="http://www.w3.org/2000/svg" width="1024" height="300" viewBox="0 0 1024 300" preserveAspectRatio="none">
  <defs>
    <linearGradient id="skyGrad" x1="0" y1="0" x2="0" y2="1">
      <stop offset="0%" stop-color="#b6ddff"/>
      <stop offset="52%" stop-color="#8ec5f4"/>
      <stop offset="100%" stop-color="#6f9dcd"/>
    </linearGradient>
    <linearGradient id="mistGrad" x1="0" y1="0" x2="0" y2="1">
      <stop offset="0%" stop-color="#d8ecff" stop-opacity="0.55"/>
      <stop offset="100%" stop-color="#d8ecff" stop-opacity="0"/>
    </linearGradient>
  </defs>

  <rect width="1024" height="300" fill="url(#skyGrad)"/>

  <circle cx="182" cy="70" r="38" fill="#f9f0c1" fill-opacity="0.82"/>
  <ellipse cx="294" cy="66" rx="62" ry="20" fill="#ffffff" fill-opacity="0.28"/>
  <ellipse cx="496" cy="74" rx="74" ry="24" fill="#ffffff" fill-opacity="0.24"/>
  <ellipse cx="770" cy="58" rx="68" ry="22" fill="#ffffff" fill-opacity="0.20"/>

  <path d="M0 204 L74 160 L140 180 L204 134 L270 174 L336 126 L400 166 L470 116 L540 164 L610 122 L684 172 L758 130 L832 176 L904 138 L978 186 L1024 170 L1024 300 L0 300 Z" fill="#6f87a8" fill-opacity="0.86"/>
  <path d="M0 228 L70 210 L142 220 L214 204 L290 218 L364 198 L440 214 L520 196 L596 214 L674 198 L754 218 L834 206 L914 224 L994 212 L1024 216 L1024 300 L0 300 Z" fill="#95abc3" fill-opacity="0.76"/>

  <rect y="206" width="1024" height="94" fill="url(#mistGrad)"/>
</svg>
