<svg xmlns="http://www.w3.org/2000/svg" width="1024" height="300" viewBox="0 0 1024 300" preserveAspectRatio="none">
  <rect width="1024" height="300" fill="none"/>
  <path d="M0 232 C80 186 168 178 250 214 C318 242 394 244 472 214 C560 178 642 182 724 226 C796 266 868 264 942 232 C976 216 1002 210 1024 216 L1024 300 L0 300 Z" fill="#3f56bb" fill-opacity="0.86"/>
  <path d="M0 252 C66 226 128 228 188 248 C260 272 330 270 404 244 C486 214 560 218 636 252 C708 284 782 286 854 256 C918 230 972 228 1024 240 L1024 300 L0 300 Z" fill="#6379d5" fill-opacity="0.72"/>
  <rect x="102" y="170" width="40" height="92" rx="8" fill="#798be0" fill-opacity="0.55"/>
  <rect x="302" y="160" width="52" height="108" rx="10" fill="#8998e4" fill-opacity="0.54"/>
  <rect x="530" y="166" width="44" height="102" rx="9" fill="#798be0" fill-opacity="0.52"/>
  <rect x="742" y="162" width="50" height="106" rx="10" fill="#8998e4" fill-opacity="0.53"/>
</svg>

