<svg xmlns="http://www.w3.org/2000/svg" width="1024" height="300" viewBox="0 0 1024 300" preserveAspectRatio="none">
  <rect width="1024" height="300" fill="none"/>
  <path d="M0 246 L40 214 L88 240 L132 202 L176 236 L222 198 L268 232 L316 194 L362 228 L408 190 L454 226 L502 186 L548 224 L598 188 L646 228 L698 192 L752 232 L804 196 L860 238 L914 204 L968 244 L1024 210 L1024 300 L0 300 Z" fill="#1d9f95" fill-opacity="0.88"/>
  <rect x="34" y="204" width="20" height="96" fill="#62e2d4" fill-opacity="0.54"/>
  <rect x="146" y="194" width="18" height="106" fill="#62e2d4" fill-opacity="0.50"/>
  <rect x="256" y="188" width="22" height="112" fill="#62e2d4" fill-opacity="0.52"/>
  <rect x="380" y="186" width="18" height="114" fill="#62e2d4" fill-opacity="0.49"/>
  <rect x="506" y="184" width="20" height="116" fill="#62e2d4" fill-opacity="0.51"/>
  <rect x="626" y="190" width="18" height="110" fill="#62e2d4" fill-opacity="0.50"/>
  <rect x="748" y="196" width="22" height="104" fill="#62e2d4" fill-opacity="0.51"/>
  <rect x="874" y="202" width="18" height="98" fill="#62e2d4" fill-opacity="0.48"/>
</svg>

