<svg xmlns="http://www.w3.org/2000/svg" width="1024" height="300" viewBox="0 0 1024 300" preserveAspectRatio="none">
  <rect width="1024" height="300" fill="none"/>
  <path d="M0 210 L60 170 L118 194 L174 154 L230 186 L288 138 L340 172 L396 128 L452 166 L510 120 L568 160 L626 126 L690 176 L748 142 L808 182 L872 150 L930 188 L982 162 L1024 186 L1024 300 L0 300 Z" fill="#5f7490" fill-opacity="0.88"/>
  <path d="M0 242 L56 226 L120 236 L184 220 L250 234 L320 218 L392 232 L458 214 L522 230 L596 212 L668 230 L740 214 L810 234 L884 220 L958 238 L1024 226 L1024 300 L0 300 Z" fill="#90a2b8" fill-opacity="0.74"/>
</svg>

