<svg xmlns="http://www.w3.org/2000/svg" viewBox="0 0 640 360" role="img" aria-labelledby="title desc">
  <title id="title">Vector Arcade Sample Preview</title>
  <desc id="desc">Vector arcade sample preview with player ship, obstacles, and HUD frame.</desc>
  <rect width="640" height="360" fill="#05070d"/>
  <g fill="none" stroke="#6fd3ff" stroke-width="4" stroke-linejoin="round">
    <path d="M40 44h560v272H40z"/>
    <path d="M74 78h492v52H74z" opacity=".45"/>
    <path d="M104 104h92"/>
    <path d="M444 104h92"/>
  </g>
  <g fill="none" stroke="#e8f0ff" stroke-width="7" stroke-linecap="square" stroke-linejoin="round">
    <path d="M320 124l42 112-42-26-42 26z"/>
    <path d="M304 246l16-30 16 30"/>
  </g>
  <g fill="none" stroke="#ffb347" stroke-width="5" stroke-linejoin="round">
    <path d="M150 194l34-48 52 24 18 58-38 46-58-10-34-42z"/>
    <path d="M448 164l24-28 38 12 22 36-14 42-42 22-40-26z"/>
    <path d="M486 258l14-18 24 8 10 22-16 18-22 2-18-14z"/>
  </g>
  <g fill="#6fd3ff">
    <rect x="82" y="270" width="110" height="12"/>
    <rect x="448" y="270" width="110" height="12"/>
  </g>
</svg>
