<!--
Toolbox Aid
David Quesenberry
03/24/2026
preview.svg
-->
<svg xmlns="http://www.w3.org/2000/svg" viewBox="0 0 960 720">
  <defs>
    <linearGradient id="bg" x1="0" y1="0" x2="0" y2="1">
      <stop offset="0%" stop-color="#06080d" />
      <stop offset="100%" stop-color="#111826" />
    </linearGradient>
  </defs>
  <rect width="960" height="720" fill="url(#bg)" />
  <rect x="70" y="70" width="820" height="580" fill="none" stroke="#f5f7fb" stroke-width="6" />
  <rect x="136" y="270" width="16" height="144" fill="#f5f7fb" />
  <rect x="808" y="220" width="16" height="144" fill="#f5f7fb" />
  <circle cx="500" cy="356" r="14" fill="#f5f7fb" />
  <g fill="#6a7482">
    <rect x="476" y="92" width="8" height="24" />
    <rect x="476" y="136" width="8" height="24" />
    <rect x="476" y="180" width="8" height="24" />
    <rect x="476" y="224" width="8" height="24" />
    <rect x="476" y="268" width="8" height="24" />
    <rect x="476" y="312" width="8" height="24" />
    <rect x="476" y="356" width="8" height="24" />
    <rect x="476" y="400" width="8" height="24" />
    <rect x="476" y="444" width="8" height="24" />
    <rect x="476" y="488" width="8" height="24" />
    <rect x="476" y="532" width="8" height="24" />
    <rect x="476" y="576" width="8" height="24" />
  </g>
  <text x="70" y="44" fill="#f5f7fb" font-family="monospace" font-size="34" font-weight="700">PONG</text>
  <text x="480" y="46" fill="#7de2ff" font-family="monospace" font-size="28" text-anchor="middle">TENNIS · HOCKEY · HANDBALL · JAI-ALAI</text>
  <text x="400" y="120" fill="#f5f7fb" font-family="monospace" font-size="70" text-anchor="end">7</text>
  <text x="560" y="120" fill="#f5f7fb" font-family="monospace" font-size="70">5</text>
</svg>
