<svg xmlns="http://www.w3.org/2000/svg" viewBox="0 0 960 720">
  <defs>
    <linearGradient id="bg" x1="0" y1="0" x2="0" y2="1">
      <stop offset="0%" stop-color="#081121" />
      <stop offset="100%" stop-color="#0f172a" />
    </linearGradient>
  </defs>
  <rect width="960" height="720" fill="url(#bg)" />
  <circle cx="280" cy="220" r="72" fill="rgba(56,189,248,0.18)" />
  <circle cx="280" cy="220" r="54" fill="#38bdf8" />
  <circle cx="700" cy="240" r="92" fill="rgba(251,113,133,0.18)" />
  <circle cx="700" cy="240" r="70" fill="#fb7185" />
  <circle cx="560" cy="520" r="64" fill="rgba(245,158,11,0.18)" />
  <circle cx="560" cy="520" r="46" fill="#f59e0b" />
  <path d="M 110 620 C 220 540 330 430 468 318" fill="none" stroke="rgba(96,165,250,0.65)" stroke-width="4" stroke-linecap="round" />
  <path d="M 160 610 L 172 644 L 160 637 L 148 644 Z" fill="none" stroke="#f8fafc" stroke-width="6" stroke-linejoin="round" />
  <path d="M 192 116 L 206 130 L 192 144 L 178 130 Z" fill="none" stroke="#f8fafc" stroke-width="5" />
  <path d="M 848 350 L 862 364 L 848 378 L 834 364 Z" fill="none" stroke="#fde68a" stroke-width="5" />
  <path d="M 444 654 L 458 668 L 444 682 L 430 668 Z" fill="none" stroke="#86efac" stroke-width="5" />
  <text x="42" y="66" fill="#f8fafc" font-family="monospace" font-size="34">Gravity Well</text>
  <text x="42" y="102" fill="#cbd5e1" font-family="monospace" font-size="20">Vector gravity game with orbital beacons</text>
</svg>
